<?xml version="1.0" encoding="iso-8859-1"?>
<!-- Generator: Adobe Illustrator 19.0.0, SVG Export Plug-In . SVG Version: 6.00 Build 0)  -->
<svg version="1.1" id="Capa_1" xmlns="http://www.w3.org/2000/svg" xmlns:xlink="http://www.w3.org/1999/xlink" x="0px" y="0px"
	 viewBox="0 0 512 512" style="enable-background:new 0 0 512 512;" xml:space="preserve">
<g>
	<g>
		<path d="M504.4,136.547h-21.266c-4.198,0-7.6,3.403-7.6,7.6v15.983c-0.662-0.248-1.338-0.465-2.026-0.654V98.418
			c0-31.016-25.232-56.249-56.249-56.249c-4.198,0-7.6,3.403-7.6,7.6s3.402,7.6,7.6,7.6c22.634,0,41.048,18.414,41.048,41.048
			v60.226h-86.306V98.418c0-11.801,5.145-23.065,14.116-30.902c3.161-2.761,3.484-7.563,0.724-10.725
			c-2.763-3.162-7.565-3.485-10.725-0.723C363.841,66.793,356.8,82.227,356.8,98.417v61.208c-2.269,0.679-4.395,1.69-6.318,2.983
			v-18.461c0-4.197-3.402-7.6-7.6-7.6h-21.266c-4.198,0-7.6,3.403-7.6,7.6v15.983c-0.662-0.248-1.338-0.465-2.026-0.654v-61.06
			c0-31.016-25.232-56.249-56.248-56.249c-4.197,0-7.6,3.403-7.6,7.6c0,4.197,3.403,7.6,7.6,7.6
			c22.633,0,41.047,18.414,41.047,41.048v60.226h-86.306V98.418c0-11.798,5.143-23.058,14.108-30.895
			c3.161-2.762,3.484-7.564,0.721-10.725c-2.763-3.161-7.564-3.484-10.725-0.721c-12.269,10.724-19.306,26.156-19.306,42.34v61.208
			c-0.509,0.152-1.009,0.32-1.503,0.505v-15.983c0-4.197-3.403-7.6-7.6-7.6h-21.267c-4.197,0-7.6,3.403-7.6,7.6v16.223
			c-0.854-0.349-1.733-0.647-2.633-0.894V98.418c0-31.016-25.233-56.249-56.249-56.249h-4.21c-4.197,0-7.6,3.403-7.6,7.6
			s3.403,7.6,7.6,7.6h4.21c22.634,0,41.048,18.414,41.048,41.048v60.226H53.171V98.418c0-10.18,3.8-19.966,10.699-27.553
			c2.824-3.105,2.596-7.912-0.51-10.737c-3.106-2.824-7.914-2.595-10.737,0.51c-9.45,10.392-14.654,23.809-14.654,37.78v61.208
			c-0.509,0.152-1.01,0.32-1.503,0.505v-15.983c0-4.197-3.403-7.6-7.6-7.6H7.6c-4.197,0-7.6,3.403-7.6,7.6v98.572
			c0,4.197,3.403,7.6,7.6,7.6h21.267c4.197,0,7.6-3.403,7.6-7.6v-38.757c2.554,0.959,5.317,1.488,8.202,1.488H148.5
			c3.116,0,6.088-0.617,8.81-1.727v38.996c0,4.197,3.403,7.6,7.6,7.6h21.267c4.197,0,7.6-3.403,7.6-7.6v-38.756
			c2.554,0.959,5.317,1.487,8.202,1.487H305.81c2.885,0,5.648-0.528,8.202-1.487v38.756c0,4.197,3.402,7.6,7.6,7.6h21.266
			c4.198,0,7.6-3.403,7.6-7.6v-41.234c3.724,2.502,8.203,3.965,13.018,3.965h103.832c2.885,0,5.648-0.528,8.202-1.487v38.756
			c0,4.197,3.402,7.6,7.6,7.6h21.27c4.198,0,7.6-3.403,7.6-7.6v-98.572C512,139.95,508.597,136.547,504.4,136.547z M21.267,235.118
			h-6.066v-83.371h6.066V235.118z M148.501,190.249H44.67c-4.523,0-8.202-3.68-8.202-8.202c0-4.523,3.68-8.202,8.202-8.202h103.831
			c4.523,0,8.202,3.68,8.202,8.202C156.703,186.57,153.024,190.249,148.501,190.249z M178.578,235.118h-6.066v-83.371h6.066V235.118
			z M305.812,190.249H201.981c-4.523,0-8.202-3.68-8.202-8.202c0-4.523,3.68-8.202,8.202-8.202h103.831
			c4.523,0,8.202,3.68,8.202,8.202C314.015,186.57,310.335,190.249,305.812,190.249z M335.28,235.118h-6.065v-83.371h6.065V235.118z
			 M467.331,190.249H363.499c-4.523,0-8.202-3.68-8.202-8.202c0-4.523,3.68-8.202,8.202-8.202h103.832
			c4.523,0,8.202,3.68,8.202,8.202C475.532,186.57,471.854,190.249,467.331,190.249z M496.799,235.118h-6.065v-83.371h6.065V235.118
			z"/>
	</g>
</g>
<g>
	<g>
		<path d="M423.64,356.066h-21.267c-4.198,0-7.6,3.403-7.6,7.6v15.983c-0.661-0.248-1.337-0.465-2.025-0.654v-61.06
			c0-31.016-25.232-56.249-56.249-56.249c-4.198,0-7.6,3.403-7.6,7.6c0,4.197,3.402,7.6,7.6,7.6
			c22.634,0,41.048,18.414,41.048,41.048v60.226h-86.306v-60.226c0-13.294,6.549-25.845,17.519-33.576
			c3.431-2.418,4.252-7.16,1.835-10.591c-2.418-3.43-7.159-4.254-10.591-1.834c-15.006,10.575-23.963,27.772-23.963,46.001v61.208
			c-2.269,0.679-4.395,1.69-6.318,2.983v-18.461c0-4.197-3.402-7.6-7.6-7.6h-21.267c-4.197,0-7.6,3.403-7.6,7.6v15.983
			c-0.662-0.248-1.338-0.465-2.026-0.654v-61.06c0-31.016-25.233-56.249-56.249-56.249h-4.21c-4.197,0-7.6,3.403-7.6,7.6
			c0,4.197,3.403,7.6,7.6,7.6h4.21c22.634,0,41.048,18.414,41.048,41.048v60.226h-86.307v-60.226
			c0-11.26,4.756-22.171,13.048-29.936c3.063-2.869,3.222-7.678,0.353-10.743c-2.87-3.063-7.679-3.223-10.743-0.353
			c-11.35,10.628-17.86,25.584-17.86,41.032v61.208c-0.509,0.152-1.009,0.32-1.503,0.505v-15.983c0-4.197-3.403-7.6-7.6-7.6H84.152
			c-4.197,0-7.6,3.403-7.6,7.6v98.571c0,4.197,3.403,7.6,7.6,7.6h21.267c4.197,0,7.6-3.403,7.6-7.6v-38.756
			c2.554,0.959,5.317,1.487,8.202,1.487h103.831c2.885,0,5.648-0.528,8.202-1.487v38.756c0,4.197,3.403,7.6,7.6,7.6h21.267
			c4.198,0,7.6-3.403,7.6-7.6v-41.234c3.724,2.502,8.203,3.965,13.018,3.965H386.57c2.885,0,5.648-0.528,8.202-1.487v38.756
			c0,4.197,3.402,7.6,7.6,7.6h21.267c4.198,0,7.6-3.403,7.6-7.6v-98.571C431.241,359.469,427.839,356.066,423.64,356.066z
			 M97.819,454.637h-6.066v-83.37h6.066V454.637z M225.053,409.767H121.222c-4.523,0-8.202-3.68-8.202-8.202
			c0-4.523,3.68-8.202,8.202-8.202h103.831c4.523,0,8.202,3.68,8.202,8.202C233.255,406.087,229.576,409.767,225.053,409.767z
			 M254.522,454.637h-6.066v-83.37h6.066V454.637z M386.571,409.767H282.74c-4.523,0-8.202-3.68-8.202-8.202
			c0-4.523,3.68-8.202,8.202-8.202h103.831c4.523,0,8.202,3.68,8.202,8.202C394.773,406.087,391.093,409.767,386.571,409.767z
			 M416.04,454.637h-6.066v-83.37h6.066V454.637z"/>
	</g>
</g>
<g>
</g>
<g>
</g>
<g>
</g>
<g>
</g>
<g>
</g>
<g>
</g>
<g>
</g>
<g>
</g>
<g>
</g>
<g>
</g>
<g>
</g>
<g>
</g>
<g>
</g>
<g>
</g>
<g>
</g>
</svg>
