<svg id="Layer_5" enable-background="new 0 0 64 64" height="512" viewBox="0 0 64 64" width="512" xmlns="http://www.w3.org/2000/svg"><path d="m33.245 28h-2.725l-1.377 4.995-5.547.009-.943 2.36 4.863 3.198-2.246 5.168 2.066 1.539 4.548-3.738 4.547 3.738 2.067-1.539-2.246-5.168 4.864-3.199-.948-2.362-5.524-.001zm.502 9.816 1.798 4.136-3.66-3.009-3.66 3.008 1.796-4.135-4.281-2.816 4.927-.007 1.22-4.423 1.239 4.43 4.902.001z"/><path d="m32 24c-7.168 0-13 5.832-13 13s5.832 13 13 13 13-5.832 13-13-5.832-13-13-13zm0 24c-6.065 0-11-4.935-11-11s4.935-11 11-11 11 4.935 11 11-4.935 11-11 11z"/><path d="m19 15h2v2h-2z"/><path d="m19 23h2v2h-2z"/><path d="m19 19h2v2h-2z"/><path d="m43 53h2v2h-2z"/><path d="m43 49h2v2h-2z"/><path d="m43 45h2v2h-2z"/><path d="m63 12c0-4.486-7.028-8-16-8-1.777 0-3.509.146-5.166.42l-3.42-3.42h-12.828l-10.586 10.586v51.414h34v-43.066c7.992-.479 14-3.788 14-7.934zm-36.586-9h11.172l8 8h-8.687c-.465-2.279-2.485-4-4.899-4s-4.434 1.721-4.899 4h-8.687zm6.586 9c0-.86.489-1.61 1.043-2.184.586.548.957 1.321.957 2.184 0 .854-.363 1.621-.937 2.168-.689-.706-1.063-1.447-1.063-2.168zm-.873 2.987c-.043.002-.084.013-.127.013-1.654 0-3-1.346-3-3s1.346-3 3-3c.037 0 .071.01.108.011-.724.935-1.108 1.947-1.108 2.989 0 1.062.406 2.068 1.127 2.987zm4.772-1.987h10.101v5c-4.891 0-8.89-1.115-11.347-2.611.613-.659 1.06-1.475 1.246-2.389zm10.101 44h-26v2h26v2h-30v-2h2v-2h-2v-44h10.101c.465 2.279 2.484 4 4.899 4 .666 0 1.299-.136 1.881-.374 2.868 2.052 7.625 3.374 13.119 3.374zm2-39.071v-6.343l-5.393-5.393c1.105-.123 2.237-.193 3.393-.193 8.25 0 14 3.162 14 6 0 2.602-4.839 5.468-12 5.929z"/></svg>