<?xml version="1.0" encoding="iso-8859-1"?>
<!-- Generator: Adobe Illustrator 19.0.0, SVG Export Plug-In . SVG Version: 6.00 Build 0)  -->
<svg version="1.1" id="Capa_1" xmlns="http://www.w3.org/2000/svg" xmlns:xlink="http://www.w3.org/1999/xlink" x="0px" y="0px"
	 viewBox="0 0 512 512" style="enable-background:new 0 0 512 512;" xml:space="preserve">
<g>
	<g>
		<path d="M473.02,293.713l-22.784-4.212c-1.692-0.313-2.921-1.79-2.921-3.511v-1.32c14.223-9.06,23.686-24.958,23.686-43.035
			v-17.034c0-28.122-22.879-51-51-51c-28.121,0-51,22.878-51,51v17.034c0,18.073,9.458,33.968,23.675,43.029v1.327
			c0,1.722-1.229,3.198-2.922,3.511l-22.774,4.211c-11.862,2.193-22.011,8.674-28.979,17.656
			c-6.968-8.983-17.117-15.463-28.98-17.656l-22.784-4.212c-1.692-0.313-2.921-1.79-2.921-3.511v-1.32
			c14.223-9.06,23.686-24.958,23.686-43.035v-17.034c0-28.122-22.879-51-51-51c-28.121,0-51,22.878-51,51v17.034
			c0,18.073,9.458,33.968,23.675,43.029v1.327c0,1.722-1.229,3.198-2.922,3.511l-22.774,4.211
			c-11.862,2.193-22.011,8.674-28.979,17.656c-6.968-8.983-17.117-15.463-28.98-17.656l-22.784-4.212
			c-1.692-0.313-2.921-1.79-2.921-3.511v-1.32c14.223-9.06,23.686-24.958,23.686-43.035v-17.034c0-28.122-22.879-51-51-51
			c-28.121,0-51,22.878-51,51v17.034c0,18.073,9.458,33.968,23.675,43.029v1.327c0,1.722-1.229,3.198-2.922,3.511l-22.774,4.211
			C16.393,297.889,0,317.591,0,340.56v95.191c0,5.523,4.478,10,10,10h492c5.522,0,10-4.477,10-10v-95.19
			C512,317.591,495.606,297.889,473.02,293.713z M92,193.601c14.234,0,26.26,9.644,29.883,22.741l-11.245-6.606
			c-4.211-2.475-9.593-1.544-12.73,2.199c-6.676,7.967-16.467,12.537-26.861,12.537H61C61.071,207.438,74.95,193.601,92,193.601z
			 M61.135,244.471h9.911c13.432,0,26.222-4.857,36.174-13.548l15.78,9.271v1.441c0,17.093-13.906,31-31,31
			C75.863,272.635,62.573,260.239,61.135,244.471z M101.057,294.836l-9.054,8.751l-9.067-8.76c0.375-0.924,0.703-1.869,0.959-2.844
			c2.641,0.424,5.347,0.651,8.105,0.651c2.755,0,5.457-0.227,8.094-0.649C100.351,292.962,100.681,293.91,101.057,294.836z
			 M163.999,425.75h-12.715h-3.332v-66.488v-2.436c0-5.523-4.478-10-10-10c-5.522,0-10,4.477-10,10v2.436v66.489H56.048v-66.489
			v-2.436c0-5.523-4.478-10-10-10c-5.522,0-10,4.477-10,10v2.436v66.489H20V340.56c0-13.326,9.511-24.757,22.615-27.18l22.774-4.211
			c0.977-0.181,1.92-0.44,2.846-0.734l13.768,13.302v30.391c0,5.523,4.478,10,10,10c5.522,0,10-4.477,10-10v-30.393l13.759-13.298
			c0.924,0.293,1.865,0.551,2.838,0.731l22.783,4.212c13.104,2.422,22.616,13.854,22.616,27.18V425.75z M256,193.601
			c14.234,0,26.26,9.644,29.883,22.741l-11.245-6.606c-4.211-2.475-9.593-1.544-12.73,2.199
			c-6.676,7.967-16.467,12.537-26.861,12.537H225C225.071,207.438,238.95,193.601,256,193.601z M225.135,244.471h9.911
			c13.432,0,26.222-4.857,36.174-13.548l15.78,9.271v1.441c0,17.093-13.906,31-31,31
			C239.863,272.635,226.573,260.239,225.135,244.471z M265.057,294.836l-9.054,8.751l-9.067-8.76
			c0.375-0.924,0.703-1.869,0.959-2.844c2.641,0.424,5.347,0.651,8.105,0.651c2.755,0,5.457-0.227,8.094-0.649
			C264.351,292.962,264.681,293.91,265.057,294.836z M327.999,425.75h-12.715h-3.332v-66.488v-2.436c0-5.523-4.478-10-10-10
			c-5.522,0-10,4.477-10,10v2.436v66.489h-71.904v-66.489v-2.436c0-5.523-4.478-10-10-10c-5.522,0-10,4.477-10,10v2.436v66.489H184
			v-85.19v-0.001c0-13.326,9.511-24.757,22.615-27.18l22.774-4.211c0.977-0.181,1.92-0.44,2.846-0.734L246,321.733v30.395
			c0,5.523,4.478,10,10,10c5.522,0,10-4.477,10-10v-30.389l13.762-13.302c0.924,0.293,1.865,0.551,2.838,0.731l22.783,4.212
			c13.104,2.422,22.616,13.854,22.616,27.18V425.75z M420,193.601c14.234,0,26.26,9.644,29.883,22.741l-11.245-6.606
			c-4.21-2.475-9.593-1.544-12.73,2.199c-6.676,7.967-16.467,12.537-26.861,12.537H389C389.071,207.438,402.95,193.601,420,193.601z
			 M389.135,244.471h9.911c13.432,0,26.222-4.857,36.174-13.548l15.78,9.271v1.441c0,17.093-13.906,31-31,31
			C403.863,272.635,390.573,260.239,389.135,244.471z M429.057,294.836l-9.054,8.751l-9.067-8.76
			c0.375-0.924,0.703-1.869,0.959-2.844c2.641,0.424,5.347,0.651,8.105,0.651c2.755,0,5.457-0.227,8.094-0.649
			C428.351,292.962,428.681,293.91,429.057,294.836z M491.999,425.75h-6.798h-9.249v-66.488v-2.436c0-5.523-4.478-10-10-10
			c-5.522,0-10,4.477-10,10v2.436v66.489h-71.904v-66.489v-2.436c0-5.523-4.478-10-10-10c-5.522,0-10,4.477-10,10v2.436v66.489
			h-4.298H348v-85.19v-0.001c0-13.326,9.511-24.757,22.615-27.18l22.774-4.211c0.977-0.181,1.92-0.44,2.846-0.734l16.24,15.69
			v28.003c0,5.523,4.478,10,10,10c5.522,0,10-4.477,10-10v-32.782l11.287-10.909c0.924,0.293,1.865,0.551,2.838,0.731l22.783,4.212
			c13.104,2.422,22.616,13.854,22.616,27.18V425.75z"/>
	</g>
</g>
<g>
	<g>
		<path d="M174,66.249c-28.121,0-51,22.878-51,51v17.034c0,28.122,22.879,51,51,51c28.121,0,51-22.878,51-51v-17.034
			C225,89.127,202.121,66.249,174,66.249z M174,86.249c14.234,0,26.26,9.644,29.883,22.741l-11.245-6.606
			c-4.211-2.474-9.593-1.544-12.73,2.199c-6.676,7.967-16.467,12.537-26.861,12.537H143C143.071,100.086,156.95,86.249,174,86.249z
			 M205,134.283c0,17.093-13.906,31-31,31c-16.137,0-29.427-12.396-30.865-28.164h9.911c13.432,0,26.222-4.857,36.174-13.548
			l15.78,9.271V134.283z"/>
	</g>
</g>
<g>
	<g>
		<path d="M338,66.249c-28.121,0-51,22.878-51,51v17.034c0,28.122,22.879,51,51,51c28.121,0,51-22.878,51-51v-17.034
			C389,89.127,366.121,66.249,338,66.249z M338,86.249c14.234,0,26.26,9.644,29.883,22.741l-11.245-6.606
			c-4.21-2.474-9.593-1.544-12.73,2.199c-6.676,7.967-16.467,12.537-26.861,12.537H307C307.071,100.086,320.95,86.249,338,86.249z
			 M369,134.283c0,17.093-13.906,31-31,31c-16.137,0-29.427-12.396-30.865-28.164h9.911c13.432,0,26.222-4.857,36.174-13.548
			l15.78,9.271V134.283z"/>
	</g>
</g>
<g>
	<g>
		<path d="M174,202.036c-5.522,0-10,4.477-10,10v34.715c0,5.523,4.478,10,10,10c5.522,0,10-4.477,10-10v-34.715
			C184,206.513,179.522,202.036,174,202.036z"/>
	</g>
</g>
<g>
	<g>
		<path d="M181.069,271.631c-1.859-1.87-4.439-2.93-7.069-2.93s-5.21,1.06-7.07,2.93c-1.86,1.86-2.93,4.44-2.93,7.07
			s1.069,5.21,2.93,7.07c1.86,1.86,4.44,2.93,7.07,2.93s5.21-1.07,7.069-2.93c1.86-1.86,2.931-4.44,2.931-7.07
			S182.93,273.491,181.069,271.631z"/>
	</g>
</g>
<g>
	<g>
		<path d="M338,233.983c-5.522,0-10,4.477-10,10v34.715c0,5.523,4.478,10,10,10c5.522,0,10-4.477,10-10v-34.715
			C348,238.46,343.522,233.983,338,233.983z"/>
	</g>
</g>
<g>
	<g>
		<path d="M345.069,204.961c-1.859-1.86-4.439-2.92-7.069-2.92s-5.21,1.06-7.07,2.92c-1.86,1.87-2.93,4.44-2.93,7.07
			c0,2.64,1.069,5.22,2.93,7.07c1.86,1.87,4.44,2.93,7.07,2.93s5.21-1.06,7.069-2.93c1.86-1.86,2.931-4.43,2.931-7.07
			C348,209.401,346.93,206.831,345.069,204.961z"/>
	</g>
</g>
<g>
</g>
<g>
</g>
<g>
</g>
<g>
</g>
<g>
</g>
<g>
</g>
<g>
</g>
<g>
</g>
<g>
</g>
<g>
</g>
<g>
</g>
<g>
</g>
<g>
</g>
<g>
</g>
<g>
</g>
</svg>
