<?xml version="1.0" encoding="iso-8859-1"?>
<!-- Generator: Adobe Illustrator 19.0.0, SVG Export Plug-In . SVG Version: 6.00 Build 0)  -->
<svg version="1.1" id="Capa_1" xmlns="http://www.w3.org/2000/svg" xmlns:xlink="http://www.w3.org/1999/xlink" x="0px" y="0px"
	 viewBox="0 0 496 496" style="enable-background:new 0 0 496 496;" xml:space="preserve">
<g>
	<g>
		<g>
			<path d="M456,104h-80V64c0-22.056-17.944-40-40-40H160c-22.056,0-40,17.944-40,40v40H40c-22.056,0-40,17.944-40,40v288
				c0,22.056,17.944,40,40,40h416c22.056,0,40-17.944,40-40V144C496,121.944,478.056,104,456,104z M392,120h16v192h-16V120z
				 M384,328h32c4.408,0,8,3.584,8,8v48c0,4.416-3.592,8-8,8h-32c-4.408,0-8-3.584-8-8v-48C376,331.584,379.592,328,384,328z
				 M328,40h8c13.232,0,24,10.768,24,24v40h-16V72c0-8.824-7.176-16-16-16V40z M184,40h128v16H184V40z M328,72v32H168V72H328z
				 M136,64c0-13.232,10.768-24,24-24h8v16c-8.824,0-16,7.176-16,16v32h-16V64z M88,120h16v192H88V120z M80,328h32
				c4.408,0,8,3.584,8,8v48c0,4.416-3.592,8-8,8H80c-4.408,0-8-3.584-8-8v-48C72,331.584,75.592,328,80,328z M480,432
				c0,13.232-10.768,24-24,24h-32v-32h-16v32h-16v-32h-16v32H120v-32h-16v32H88v-32H72v32H40c-13.232,0-24-10.768-24-24V144
				c0-13.232,10.768-24,24-24h32v193.472c-9.288,3.312-16,12.112-16,22.528v48c0,13.232,10.768,24,24,24h32
				c13.232,0,24-10.768,24-24v-48c0-10.416-6.712-19.216-16-22.528V120h256v193.472c-9.288,3.312-16,12.112-16,22.528v48
				c0,13.232,10.768,24,24,24h32c13.232,0,24-10.768,24-24v-48c0-10.416-6.712-19.216-16-22.528V120h32c13.232,0,24,10.768,24,24
				V432z"/>
			<path d="M240,176h-96v64h96V176z M224,224h-64v-32h64V224z"/>
			<path d="M222.152,317.912l16.304,59.808l91.4-23.632l-16.304-59.808L222.152,317.912z M249.736,358.28l-7.88-28.928
				l60.416-15.632l7.88,28.928L249.736,358.28z"/>
		</g>
	</g>
</g>
<g>
</g>
<g>
</g>
<g>
</g>
<g>
</g>
<g>
</g>
<g>
</g>
<g>
</g>
<g>
</g>
<g>
</g>
<g>
</g>
<g>
</g>
<g>
</g>
<g>
</g>
<g>
</g>
<g>
</g>
</svg>
