<svg id="Capa_1" enable-background="new 0 0 512 512" height="512" viewBox="0 0 512 512" width="512" xmlns="http://www.w3.org/2000/svg"><g><path d="m502 389c5.522 0 10-4.478 10-10s-4.478-10-10-10h-10v-53c0-15.717-7.172-30.208-19.678-39.758-4.388-3.352-10.666-2.511-14.017 1.878-3.353 4.389-2.512 10.665 1.878 14.017 7.51 5.735 11.817 14.432 11.817 23.863v53h-10c-5.522 0-10 4.478-10 10s4.478 10 10 10h10v23h-100v-23h10c5.522 0 10-4.478 10-10s-4.478-10-10-10h-10v-53c0-9.431 4.307-18.128 11.816-23.863 4.39-3.352 5.23-9.628 1.878-14.017-3.351-4.389-9.628-5.23-14.017-1.878-12.505 9.55-19.677 24.041-19.677 39.758v53h-26v-53c0-27.57-22.43-50-50-50h-40c-27.57 0-50 22.43-50 50v53h-26v-53c0-27.57-22.43-50-50-50h-40c-27.57 0-50 22.43-50 50v53h-10c-5.522 0-10 4.478-10 10s4.478 10 10 10h10v23h-10c-5.522 0-10 4.478-10 10s4.478 10 10 10h70v20h-10c-5.522 0-10 4.478-10 10v30h-30c-5.522 0-10 4.478-10 10s4.478 10 10 10h452c5.522 0 10-4.478 10-10s-4.478-10-10-10h-30v-30c0-5.522-4.478-10-10-10h-10v-20h70c5.522 0 10-4.478 10-10s-4.478-10-10-10h-10v-23zm-150 0v23h-26v-23zm-146-73c0-16.542 13.458-30 30-30h40c16.542 0 30 13.458 30 30v53h-10c-5.522 0-10 4.478-10 10s4.478 10 10 10h10v23h-100v-23h10c5.522 0 10-4.478 10-10s-4.478-10-10-10h-10zm-20 73v23h-26v-23zm-146 0h10c5.522 0 10-4.478 10-10s-4.478-10-10-10h-10v-53c0-16.542 13.458-30 30-30h40c16.542 0 30 13.458 30 30v53h-10c-5.522 0-10 4.478-10 10s4.478 10 10 10h10v23h-100zm60 43h146v20h-10c-5.522 0-10 4.478-10 10v30h-106v-30c0-5.522-4.478-10-10-10h-10zm166 40v20h-20v-20zm-186 0h20v20h-20zm332 20v-20h20v20zm0-40h-10c-5.522 0-10 4.478-10 10v30h-106v-30c0-5.522-4.478-10-10-10h-10v-20h146z"/><path d="m234.789 360.211c3.907 3.905 10.236 3.904 14.143 0l7.068-7.068 7.068 7.068c3.907 3.905 10.236 3.904 14.143 0 3.905-3.905 3.905-10.237 0-14.143l-7.068-7.068 7.068-7.068c3.905-3.905 3.905-10.237 0-14.143-3.906-3.904-10.236-3.904-14.143 0l-7.068 7.068-7.068-7.068c-3.906-3.904-10.236-3.904-14.143 0-3.905 3.905-3.905 10.237 0 14.143l7.068 7.068-7.068 7.068c-3.905 3.906-3.905 10.238 0 14.143z"/><path d="m502 123c5.522 0 10-4.478 10-10s-4.478-10-10-10h-10v-53c0-27.57-22.43-50-50-50h-40c-27.57 0-50 22.43-50 50v53h-26v-53c0-27.57-22.43-50-50-50h-40c-27.57 0-50 22.43-50 50v53h-26v-53c0-27.57-22.43-50-50-50h-40c-27.57 0-50 22.43-50 50v53h-10c-5.522 0-10 4.478-10 10s4.478 10 10 10h10v23h-10c-5.522 0-10 4.478-10 10s4.478 10 10 10h70v20h-10c-5.522 0-10 4.478-10 10v30h-30c-5.522 0-10 4.478-10 10s4.478 10 10 10h452c5.522 0 10-4.478 10-10s-4.478-10-10-10h-30v-30c0-5.522-4.478-10-10-10h-10v-20h70c5.522 0 10-4.478 10-10s-4.478-10-10-10h-10v-23zm-150 0v23h-26v-23zm-146-73c0-16.542 13.458-30 30-30h40c16.542 0 30 13.458 30 30v53h-10c-5.522 0-10 4.478-10 10s4.478 10 10 10h10v23h-100v-23h10c5.522 0 10-4.478 10-10s-4.478-10-10-10h-10zm-20 73v23h-26v-23zm-146 0h10c5.522 0 10-4.478 10-10s-4.478-10-10-10h-10v-53c0-16.542 13.458-30 30-30h40c16.542 0 30 13.458 30 30v53h-10c-5.522 0-10 4.478-10 10s4.478 10 10 10h10v23h-100zm60 43h146v20h-10c-5.522 0-10 4.478-10 10v30h-106v-30c0-5.522-4.478-10-10-10h-10zm166 40v20h-20v-20zm-186 0h20v20h-20zm332 20v-20h20v20zm0-40h-10c-5.522 0-10 4.478-10 10v30h-106v-30c0-5.522-4.478-10-10-10h-10v-20h146zm60-40h-100v-23h10c5.522 0 10-4.478 10-10s-4.478-10-10-10h-10v-53c0-16.542 13.458-30 30-30h40c16.542 0 30 13.458 30 30v53h-10c-5.522 0-10 4.478-10 10s4.478 10 10 10h10z"/><path d="m97.068 94.211c3.907 3.905 10.236 3.904 14.143 0 3.905-3.905 3.905-10.237 0-14.143l-7.068-7.068 7.068-7.068c3.905-3.905 3.905-10.237 0-14.143-3.906-3.904-10.236-3.904-14.143 0l-7.068 7.068-7.068-7.068c-3.906-3.904-10.236-3.904-14.143 0-3.905 3.905-3.905 10.237 0 14.143l7.068 7.068-7.068 7.068c-3.905 3.905-3.905 10.237 0 14.143 3.907 3.905 10.236 3.904 14.143 0l7.068-7.068z"/><path d="m443.211 51.789c-3.906-3.904-10.236-3.904-14.143 0l-7.068 7.068-7.068-7.068c-3.906-3.904-10.236-3.904-14.143 0-3.905 3.905-3.905 10.237 0 14.143l7.068 7.068-7.068 7.068c-3.905 3.905-3.905 10.237 0 14.143 3.907 3.905 10.236 3.904 14.143 0l7.068-7.068 7.068 7.068c3.907 3.905 10.236 3.904 14.143 0 3.905-3.905 3.905-10.237 0-14.143l-7.068-7.068 7.068-7.068c3.905-3.906 3.905-10.238 0-14.143z"/><circle cx="422" cy="276" r="10"/></g></svg>