<svg id="Layer_1" enable-background="new 0 0 512.097 512.097" height="512" viewBox="0 0 512.097 512.097" width="512" xmlns="http://www.w3.org/2000/svg"><g><g><path d="m70.505 186.405c-3.933-1.307-8.176.819-9.484 4.75-45.135 130.282 56.98 272.173 195.043 270.394 113.312.002 205.498-92.185 205.498-205.498-2.318-214.054-286.374-283.961-387.533-95.451-4.314 8.95 8.361 15.602 13.279 6.977 80.077-152.276 304.733-127.088 351.713 35.333l-47.031-13.546c-25.106-7.242-51.106-10.914-77.278-10.914h-6.42c-.041 0-.082.001-.122.002-29.625-21-74.601-20.996-104.222.004-.088-.003-.177-.005-.266-.005h-6.271c-26.172 0-52.172 3.672-77.275 10.913l-47.069 13.556c.683-2.356 1.412-4.701 2.187-7.032 1.308-3.93-.818-8.176-4.749-9.483zm372.575 33.284c4.614 23.355 4.626 49.187.033 72.549l-55.092 15.968c-20.287 5.885-41.187 9.306-62.281 10.204 31.878-34.495 31.274-91.019-.081-124.733 21.058.872 41.923 4.258 62.175 10.1zm-108.518 36.361c0 32.235-20.202 61.681-50.271 73.273-9.14 3.893-3.988 17.249 5.396 13.996 6.584-2.538 12.806-5.785 18.579-9.669h6.226c26.317 0 52.463-3.713 77.708-11.037l46.868-13.585c-54.18 182.267-311.903 182.148-366.011 0l46.866 13.584c25.247 7.324 51.393 11.037 77.71 11.037h6.376c14.778 9.956 32.532 15.81 51.608 15.899h.036c9.906-.341 9.935-14.616.034-15-103.858-4.831-103.512-152.727.376-156.999 43.284.001 78.499 35.216 78.499 78.501zm-210.271-52.274c20.249-5.841 41.114-9.227 62.173-10.099-31.639 33.888-31.632 90.853.04 124.738-21.135-.89-42.077-4.312-62.404-10.209l-55.09-15.968c-4.585-23.471-4.596-48.934.015-72.544z"/><path d="m443.803 82.01c-2.815-3.036-7.562-3.215-10.599-.399s-3.216 7.562-.399 10.599c142.446 152.401 32.05 405.438-176.746 404.839-132.885.001-240.997-108.111-240.997-240.999-.692-202.882 240.263-315.513 395.331-185.111 3.178 2.653 7.909 2.229 10.563-.952 2.654-3.18 2.229-7.909-.952-10.563-166.034-138.34-420.107-19.664-419.941 196.628-2.838 137.596 118.391 258.848 256.001 255.996 222.628-.062 338.902-266.734 187.739-430.038z"/><path d="m256.062 304.55c26.743 0 48.5-21.757 48.5-48.5-2.664-64.342-94.346-64.323-97 0 0 26.743 21.756 48.5 48.5 48.5zm0-82c18.472 0 33.5 15.028 33.5 33.5-1.84 44.442-65.167 44.429-67 0 0-18.472 15.028-33.5 33.5-33.5z"/><path d="m132.864 236.319h10.688c9.931-.344 9.923-14.66 0-15h-10.688c-9.93.344-9.923 14.66 0 15z"/><path d="m132.864 260.704h10.688c9.931-.344 9.923-14.66 0-15h-10.688c-9.93.344-9.923 14.659 0 15z"/><path d="m92.351 248.511h10.689c9.931-.344 9.923-14.66 0-15h-10.689c-9.931.344-9.924 14.66 0 15z"/><path d="m103.04 257.896h-10.689c-9.931.344-9.923 14.66 0 15h10.689c9.931-.344 9.924-14.659 0-15z"/><path d="m132.864 285.088h10.688c9.931-.344 9.923-14.66 0-15h-10.688c-9.93.344-9.923 14.66 0 15z"/><path d="m368.57 236.319h10.688c9.931-.344 9.923-14.66 0-15h-10.688c-9.93.344-9.923 14.66 0 15z"/><path d="m368.57 260.704h10.688c9.931-.344 9.923-14.66 0-15h-10.688c-9.93.344-9.923 14.659 0 15z"/><path d="m409.083 248.511h10.689c9.931-.344 9.923-14.66 0-15h-10.689c-9.931.344-9.923 14.66 0 15z"/><path d="m409.083 272.896h10.689c9.931-.344 9.923-14.66 0-15h-10.689c-9.931.344-9.923 14.66 0 15z"/><path d="m368.57 285.088h10.688c9.931-.344 9.923-14.66 0-15h-10.688c-9.93.344-9.923 14.66 0 15z"/></g></g></svg>