<?xml version="1.0" standalone="no"?>
<!DOCTYPE svg PUBLIC "-//W3C//DTD SVG 20010904//EN"
 "http://www.w3.org/TR/2001/REC-SVG-20010904/DTD/svg10.dtd">
<svg version="1.0" xmlns="http://www.w3.org/2000/svg"
 width="965.000000pt" height="965.000000pt" viewBox="0 0 965.000000 965.000000"
 preserveAspectRatio="xMidYMid meet">
<metadata>
Created by potrace 1.14, written by Peter Selinger 2001-2017
</metadata>
<g transform="translate(0.000000,965.000000) scale(0.100000,-0.100000)"
fill="#000000" stroke="none">
<path d="M7438 9625 c-2 -1 -34 -5 -73 -8 -186 -16 -269 -37 -480 -120 -243
-95 -477 -225 -845 -471 -190 -127 -231 -151 -251 -145 -13 4 -55 17 -94 28
-131 40 -279 65 -440 77 -121 8 -421 8 -525 -1 -283 -24 -559 -95 -815 -209
-134 -59 -283 -149 -170 -102 20 9 41 13 46 10 5 -3 9 -1 9 4 0 6 6 12 14 15
17 7 30 -20 14 -29 -7 -4 -8 -3 -4 4 4 7 3 12 -3 12 -5 0 -11 -5 -13 -12 -2
-6 -12 -13 -21 -15 -41 -8 -47 -9 -52 -14 -9 -9 50 -3 65 6 8 5 21 10 29 12 8
1 18 8 22 15 5 7 9 9 9 3 0 -5 5 -3 10 5 9 13 11 13 20 0 7 -11 10 -11 10 -2
0 7 4 10 10 7 5 -3 7 0 4 8 -6 17 25 19 45 3 11 -8 13 -8 8 0 -6 10 8 22 33
29 20 5 107 18 113 17 4 -1 10 5 13 13 4 8 10 15 16 15 5 0 7 -4 4 -8 -3 -5 1
-9 9 -9 8 0 12 4 9 9 -3 4 3 8 13 8 11 0 25 6 32 13 12 10 13 9 7 -7 -6 -19
-6 -19 12 -3 15 13 21 14 32 4 8 -7 11 -8 7 -1 -4 7 0 14 8 18 8 3 15 0 15 -7
0 -7 5 -4 11 6 5 9 15 17 22 17 7 0 6 -4 -3 -10 -10 -6 -4 -9 22 -7 20 1 34 5
31 10 -2 4 -9 4 -15 1 -7 -4 -8 -2 -4 4 5 8 14 8 33 -1 20 -9 27 -9 30 0 3 8
13 9 33 3 19 -6 32 -5 36 2 4 6 2 8 -4 4 -6 -3 -13 -3 -16 2 -2 4 6 8 19 8 13
0 21 -4 19 -8 -3 -4 0 -8 5 -8 6 0 11 6 11 13 0 9 3 8 9 -2 5 -8 11 -9 15 -3
3 6 16 8 28 4 16 -4 19 -2 13 9 -6 11 -5 11 5 2 7 -6 19 -9 28 -6 11 5 13 2 7
-8 -6 -11 -5 -12 6 -1 16 14 33 16 24 2 -3 -6 1 -7 10 -4 9 4 12 11 8 18 -5 7
-1 4 8 -5 14 -15 16 -15 25 -1 9 13 12 13 19 2 6 -9 4 -11 -5 -5 -9 6 -11 4
-5 -4 5 -9 11 -9 17 -3 6 6 17 8 26 5 10 -4 13 -2 8 5 -5 8 -2 10 8 6 9 -3 13
-11 9 -18 -3 -6 -1 -6 8 2 16 15 33 16 23 1 -5 -8 -1 -8 14 0 14 7 23 8 27 1
4 -7 13 -7 26 0 13 8 19 7 19 0 0 -7 6 -8 19 0 14 7 22 7 27 -2 5 -7 3 -8 -6
-3 -9 5 -11 4 -6 -3 4 -8 15 -8 31 -2 18 7 28 5 40 -6 9 -9 15 -11 15 -4 0 6
5 8 13 3 18 -11 36 -12 43 -2 3 5 10 7 15 3 5 -3 7 -10 4 -15 -4 -5 -1 -9 4
-9 6 0 11 7 11 15 0 8 5 15 11 15 5 0 7 -4 4 -10 -4 -6 6 -10 22 -10 16 0 35
-6 42 -12 11 -10 13 -10 7 0 -4 6 -2 12 3 12 6 0 11 -5 11 -10 0 -7 8 -6 23 1
19 11 20 10 9 -3 -11 -13 -8 -15 23 -11 24 2 35 -1 35 -9 0 -8 3 -9 8 -3 12
17 35 17 29 0 -4 -8 -2 -15 3 -15 6 0 10 8 10 18 1 16 1 16 11 0 5 -10 15 -18
20 -18 6 0 8 4 5 9 -4 5 3 7 14 4 11 -3 17 -10 13 -17 -3 -6 -3 -8 2 -4 4 4
17 3 28 -3 12 -7 17 -7 13 -1 -3 5 1 13 10 16 24 9 31 7 14 -4 -15 -10 -13
-11 28 -14 9 0 23 -6 31 -14 9 -9 17 -10 26 -2 10 8 15 8 21 -1 4 -8 3 -9 -4
-5 -7 4 -12 1 -12 -8 0 -8 -37 -43 -82 -77 -72 -55 -344 -274 -358 -289 -3 -3
-41 -36 -85 -75 -44 -38 -98 -86 -120 -107 -22 -20 -52 -47 -67 -60 -27 -23
-104 -92 -179 -159 l-40 -37 -87 23 c-399 106 -581 172 -827 302 l-80 42 45
-40 c25 -23 39 -38 33 -35 -24 13 -13 -2 15 -20 26 -17 27 -17 12 2 -14 18
-14 18 3 5 9 -7 17 -21 17 -30 0 -14 2 -14 10 -1 8 12 10 10 10 -9 0 -21 2
-22 17 -10 9 8 14 9 10 3 -4 -7 2 -14 13 -17 11 -3 20 -12 20 -21 0 -10 5 -13
17 -9 12 5 14 3 8 -7 -5 -8 -4 -11 3 -7 13 9 44 -2 37 -13 -3 -4 2 -10 10 -13
10 -4 12 -1 9 11 -3 9 1 7 8 -6 8 -12 17 -19 21 -16 4 4 7 2 7 -4 0 -7 3 -11
8 -11 21 4 32 -2 26 -13 -5 -8 -2 -8 10 1 15 12 17 12 14 0 -2 -9 4 -13 16
-11 11 2 15 -1 11 -7 -3 -6 -1 -12 4 -12 21 -3 26 -4 39 -12 6 -5 18 -5 25 -1
7 5 6 0 -3 -11 -10 -12 -10 -16 -2 -11 7 4 20 2 29 -6 12 -9 15 -9 9 0 -4 6
-3 12 2 12 5 0 12 -10 16 -22 5 -19 8 -21 16 -8 8 13 14 8 12 -11 -1 -3 10 -5
23 -3 16 1 25 -3 25 -12 0 -8 6 -11 17 -7 11 5 14 3 8 -6 -6 -10 -2 -11 15 -6
14 4 20 3 16 -3 -3 -5 1 -13 10 -16 10 -4 13 -2 8 6 -11 18 19 -3 34 -24 11
-15 17 -16 28 -7 10 8 14 8 14 0 0 -6 7 -11 16 -11 9 0 12 -5 8 -12 -5 -8 0
-7 11 2 17 14 18 13 12 -2 -4 -12 -2 -15 9 -11 7 3 14 0 14 -6 0 -6 5 -11 11
-11 5 0 7 6 3 13 -5 7 -1 6 10 -3 20 -16 15 -21 -280 -295 -237 -221 -397
-388 -573 -600 -26 -32 -239 -310 -306 -400 -33 -44 -63 -84 -67 -90 -77 -102
-111 -135 -131 -129 -62 19 -394 166 -552 244 -253 125 -456 260 -423 282 10
6 10 8 -2 8 -11 0 -11 3 -2 12 16 16 15 31 0 23 -7 -4 -5 0 4 8 14 11 15 17 5
28 -7 7 -8 10 -3 6 12 -9 36 43 27 58 -10 17 -10 35 0 29 5 -3 6 -10 3 -16 -4
-7 -2 -8 5 -4 6 4 9 18 7 32 -3 13 0 24 5 24 6 0 7 5 4 10 -4 6 -3 16 3 23 16
22 23 49 10 40 -7 -4 -3 6 10 21 12 16 19 33 16 38 -3 5 0 16 8 25 11 14 11
16 -2 9 -10 -5 -10 -3 2 6 11 10 13 19 7 31 -8 13 -6 15 6 11 8 -3 15 -1 15 5
0 6 -5 11 -11 11 -5 0 -7 5 -4 10 4 6 11 7 17 4 7 -4 8 -2 4 4 -4 7 -1 12 6
12 10 0 11 2 0 8 -7 5 -10 16 -6 25 3 9 10 15 14 12 4 -3 11 2 14 11 4 10 2
13 -7 9 -6 -4 -4 0 5 8 10 8 15 17 11 20 -3 4 0 13 7 22 7 8 10 21 7 29 -4 10
-1 13 7 10 7 -3 16 3 20 13 3 10 10 28 16 41 7 17 7 21 -2 16 -7 -5 -8 -3 -4
5 5 7 15 10 23 6 13 -4 14 -3 3 10 -10 12 -9 15 6 15 15 0 16 2 5 9 -11 7 -10
11 5 20 11 6 15 11 10 11 -6 0 -1 6 10 14 19 14 20 18 23 57 0 11 5 17 11 14
5 -3 10 1 10 9 0 8 7 22 16 31 9 8 13 22 10 30 -5 13 -2 14 15 4 17 -9 20 -8
13 3 -11 18 -14 39 -4 33 4 -2 16 5 26 18 16 18 16 19 2 8 -23 -18 -23 -10 1
17 10 12 22 18 27 14 4 -4 2 1 -5 11 -12 15 -12 17 3 11 12 -4 16 0 16 15 0
12 9 29 19 38 11 9 18 20 15 25 -3 4 2 5 10 2 11 -4 14 1 12 19 -2 19 1 24 12
19 11 -4 14 -1 9 11 -4 12 -2 14 11 10 9 -3 14 -3 10 2 -4 4 5 19 20 33 15 13
21 21 15 18 -9 -5 -11 -2 -7 8 3 9 11 13 17 9 6 -4 8 0 4 10 -4 11 -2 14 9 10
10 -4 12 0 8 11 -4 11 -1 16 11 16 11 0 15 5 12 14 -4 10 -1 13 9 9 17 -6 19
13 2 21 -7 3 -3 3 9 1 12 -3 25 0 29 6 5 8 3 9 -7 4 -12 -8 -12 -6 0 8 7 9 23
17 34 17 21 0 21 0 1 16 -10 8 -13 13 -6 9 7 -4 26 7 44 27 17 18 28 27 23 19
-6 -10 -4 -12 4 -7 9 6 9 11 1 21 -10 11 -8 13 9 10 12 -2 19 0 16 4 -6 11 23
36 32 27 9 -9 35 32 28 44 -4 6 -3 10 2 9 28 -5 45 2 39 17 -3 8 -2 12 3 9 5
-3 13 0 16 6 4 5 14 8 22 4 14 -5 14 -3 2 12 -7 10 -10 15 -5 11 12 -10 48 11
41 22 -3 6 0 7 8 5 7 -3 21 3 31 14 10 11 23 18 27 15 5 -3 6 3 2 12 -5 13 -2
16 8 12 8 -3 23 0 34 8 10 8 16 14 12 14 -5 0 -2 6 5 14 7 8 17 12 21 9 11 -7
38 17 31 28 -3 5 2 6 10 3 9 -3 16 -1 16 6 0 6 4 9 9 6 5 -3 15 2 22 11 12 14
12 16 0 8 -10 -5 -12 -4 -7 4 6 9 11 9 22 0 11 -9 14 -8 14 4 0 9 5 19 12 23
7 4 8 3 4 -4 -5 -8 -2 -10 8 -6 9 3 16 13 16 21 0 12 3 13 13 4 11 -8 19 -5
36 15 12 14 27 22 33 18 8 -5 9 -1 4 11 -6 16 -4 16 11 4 11 -9 14 -10 9 -1
-6 11 9 17 35 14 4 -1 6 6 5 15 -1 10 9 16 27 18 27 4 81 38 72 47 -3 3 2 5
10 5 8 0 12 -4 10 -8 -7 -10 22 -5 32 6 4 4 2 5 -4 1 -7 -4 -13 -2 -13 3 0 6
9 11 21 11 13 0 18 4 13 13 -5 7 0 6 11 -3 17 -13 18 -13 13 1 -5 12 -1 16 15
15 12 -1 32 9 45 23 13 15 21 20 17 14 -4 -8 0 -13 9 -13 9 0 16 5 16 11 0 5
5 7 10 4 6 -3 10 -1 10 4 0 6 6 10 12 8 7 -1 12 3 11 10 -2 7 4 10 12 7 8 -4
12 -11 8 -18 -3 -6 -2 -7 3 -3 5 5 9 14 9 19 0 6 6 13 14 16 9 3 11 0 7 -9 -4
-8 -1 -7 6 3 10 11 19 13 31 7 14 -8 15 -6 10 8 -6 16 -5 17 12 3 17 -14 18
-13 12 4 -6 16 -5 17 8 6 13 -11 14 -10 9 4 -3 9 -1 16 5 16 6 0 11 -5 11 -11
0 -5 5 -7 10 -4 6 4 7 12 3 18 -4 7 0 6 10 -2 12 -9 17 -10 17 -2 0 7 4 10 9
7 5 -3 14 1 21 9 9 11 16 12 25 5 10 -8 15 -8 21 1 5 8 3 9 -6 4 -9 -5 -11 -4
-6 4 6 9 11 9 21 1 9 -8 15 -8 20 0 3 5 17 10 31 10 13 0 24 6 24 13 0 8 4 7
10 -3 6 -10 10 -11 10 -2 0 6 12 12 28 12 41 0 73 11 66 22 -4 6 3 5 15 -1 14
-8 21 -8 21 -1 0 7 7 7 23 -1 19 -11 20 -10 10 2 -10 12 -8 15 8 15 10 0 19
-4 19 -9 0 -4 5 -5 10 -2 6 4 8 10 5 15 -3 5 0 12 6 16 7 4 9 3 6 -2 -3 -6 3
-15 14 -22 10 -7 19 -9 18 -5 -3 19 3 21 30 13 22 -6 28 -5 25 4 -3 7 2 13 11
13 8 0 15 -4 15 -9 0 -5 5 -6 10 -3 6 4 8 10 5 15 -3 5 -1 12 5 15 6 4 9 1 8
-6 -2 -6 3 -14 10 -16 6 -3 12 0 12 6 0 6 5 11 11 11 5 0 7 -4 4 -10 -3 -5 -2
-10 4 -10 5 0 12 6 14 13 3 6 6 3 7 -8 1 -18 2 -18 11 4 7 17 13 21 22 13 16
-13 70 -12 79 2 5 7 8 7 8 -3 0 -11 3 -11 17 0 11 10 14 10 9 2 -4 -7 -2 -13
3 -13 6 0 11 6 11 13 0 8 4 7 10 -3 9 -14 15 -7 11 14 -1 5 5 4 13 -3 8 -7 20
-10 26 -6 6 4 16 3 23 -3 13 -10 52 -8 81 4 15 6 17 4 11 -7 -7 -12 -6 -12 7
-1 13 10 17 10 21 0 4 -9 6 -10 6 -1 1 7 9 10 19 7 16 -5 16 -5 -1 6 -9 6 -15
15 -12 20 24 39 -461 70 -735 48 -130 -11 -255 -29 -380 -54 -41 -9 -83 -17
-92 -19 -161 -32 -481 -153 -678 -258 -308 -163 -566 -352 -795 -582 -295
-295 -532 -645 -710 -1046 -44 -99 -44 -101 -28 -132 8 -18 22 -36 29 -40 8
-4 14 -15 14 -22 0 -8 7 -15 16 -15 8 0 12 -4 9 -10 -3 -5 -3 -10 2 -10 4 0
22 -14 40 -30 18 -17 36 -30 41 -30 5 0 16 -8 23 -17 13 -16 12 -17 -4 -4 -9
8 -20 12 -22 9 -3 -3 7 -11 22 -19 15 -8 56 -42 91 -76 34 -35 67 -63 72 -63
6 0 9 -5 7 -12 -1 -7 5 -13 13 -13 8 0 14 -6 13 -12 -1 -6 11 -16 27 -23 17
-7 30 -17 30 -22 0 -5 5 -6 10 -3 6 3 10 -1 10 -10 0 -9 5 -13 10 -10 6 3 10
1 10 -5 0 -7 6 -10 14 -7 8 3 18 -5 25 -19 6 -14 16 -22 21 -19 6 3 17 -1 26
-9 9 -9 21 -13 27 -9 7 4 7 1 -1 -9 -11 -14 -10 -16 5 -14 20 3 43 -15 35 -28
-3 -5 1 -6 8 -1 8 5 17 2 24 -7 12 -16 17 -18 41 -18 8 0 15 -8 15 -17 0 -9 3
-13 7 -10 3 4 17 -6 31 -21 21 -21 24 -23 19 -7 -6 16 -3 15 14 -5 11 -14 18
-19 14 -12 -3 6 -2 12 3 12 6 0 13 -7 16 -16 3 -8 10 -13 15 -10 5 3 14 -1 21
-9 7 -8 18 -15 26 -15 7 0 18 -9 24 -19 5 -11 30 -27 55 -36 27 -11 42 -22 38
-29 -4 -6 2 -4 12 4 11 9 16 10 11 3 -5 -9 0 -13 13 -13 12 0 21 -4 21 -10 0
-5 7 -10 16 -10 9 0 12 -5 8 -12 -5 -7 -2 -9 8 -5 9 3 21 0 27 -6 6 -6 11 -8
11 -4 0 4 6 3 13 -3 42 -37 81 -58 103 -55 14 1 22 0 20 -3 -7 -6 15 -27 37
-35 13 -5 16 -3 12 6 -4 6 0 4 8 -5 11 -14 16 -15 27 -5 10 9 11 9 6 0 -5 -8
-1 -13 9 -13 12 0 15 -5 10 -17 -5 -14 -4 -15 6 -6 10 10 15 9 26 -5 8 -9 12
-11 8 -4 -3 6 -1 12 4 12 6 0 11 -4 11 -10 0 -5 9 -10 20 -10 11 0 20 -5 20
-11 0 -6 6 -9 14 -6 8 3 17 -1 20 -9 3 -8 17 -14 31 -14 15 0 24 -4 20 -9 -3
-5 0 -13 6 -17 7 -4 9 -3 5 4 -4 6 1 10 13 9 11 0 19 -5 18 -10 -2 -9 15 -15
55 -21 10 -1 21 -6 25 -11 5 -4 2 -5 -6 0 -9 5 -12 4 -7 -3 4 -6 13 -9 21 -5
8 3 15 1 15 -5 0 -5 7 -13 16 -16 8 -3 13 -2 10 3 -4 5 3 7 14 4 11 -3 20 -9
20 -14 0 -5 9 -9 19 -9 11 0 21 -4 23 -10 2 -5 17 -10 35 -12 17 -1 29 -6 27
-10 -3 -4 4 -8 16 -8 13 0 19 -4 14 -11 -4 -7 1 -7 16 1 18 10 21 9 15 -1 -6
-9 -2 -11 13 -7 16 4 19 2 15 -10 -4 -10 -2 -13 5 -8 6 3 13 2 17 -3 3 -5 14
-8 25 -6 11 2 20 -1 20 -7 0 -6 3 -8 7 -5 3 4 12 2 20 -4 9 -9 13 -8 13 0 0 6
4 11 10 11 5 0 9 -3 9 -7 -1 -5 -1 -15 0 -23 1 -12 3 -12 10 -2 7 11 11 10 24
-2 10 -10 18 -12 22 -6 10 16 25 12 25 -6 0 -14 2 -15 17 -3 14 12 16 12 8 0
-6 -11 -4 -13 8 -8 11 4 14 2 11 -7 -4 -10 2 -12 22 -8 19 3 25 1 20 -7 -9
-14 6 -15 20 -1 8 8 15 5 25 -7 13 -17 13 -17 -6 -3 -19 14 -19 14 -6 -3 10
-13 17 -15 27 -6 11 9 14 8 14 0 0 -7 4 -10 9 -6 5 3 16 -2 25 -10 9 -9 17
-11 21 -5 9 15 25 12 25 -5 0 -8 5 -15 11 -15 5 0 7 6 4 13 -4 6 0 4 8 -6 11
-14 16 -15 20 -5 4 10 6 10 6 1 1 -7 12 -13 25 -13 13 0 26 -4 28 -10 2 -5 22
-11 46 -12 26 -2 41 -7 38 -14 -3 -7 3 -10 15 -7 12 3 19 0 19 -8 0 -11 2 -11
10 1 7 11 10 11 10 2 0 -7 5 -10 12 -6 6 4 17 -1 25 -11 7 -11 13 -14 13 -9 0
6 7 11 15 11 8 0 15 -4 15 -9 0 -4 9 -8 21 -8 12 0 17 -4 13 -11 -4 -8 0 -8
15 0 19 11 25 8 23 -10 -1 -3 11 -4 25 -1 19 4 24 2 18 -8 -6 -9 -3 -9 15 0
13 7 20 8 16 2 -3 -6 -2 -13 4 -17 5 -3 10 -1 10 6 0 8 3 9 13 0 8 -6 17 -8
20 -4 4 3 7 0 7 -8 0 -11 2 -11 10 1 5 8 10 10 10 4 0 -7 7 -15 16 -18 9 -4
13 -2 8 5 -4 7 -1 10 7 7 8 -3 13 -11 11 -17 -1 -8 2 -9 10 -5 21 13 37 13 32
0 -3 -7 8 -11 31 -10 19 1 35 -3 35 -9 0 -6 3 -7 7 -4 3 4 13 1 21 -6 13 -9
14 -9 8 1 -4 6 -2 12 3 12 6 0 11 -4 11 -10 0 -5 5 -10 11 -10 5 0 8 4 5 9 -4
5 3 7 14 4 11 -3 17 -10 13 -16 -3 -5 -2 -7 3 -4 6 3 16 2 23 -3 8 -4 26 -4
42 0 20 6 26 5 23 -3 -2 -7 7 -13 22 -14 19 -1 23 1 13 8 -8 5 -10 9 -5 9 5 0
18 -8 29 -17 11 -10 17 -12 13 -5 -4 6 -2 12 3 12 6 0 11 -4 11 -10 0 -5 7 -6
17 -3 10 4 14 2 10 -4 -7 -12 18 -12 29 0 4 3 16 0 28 -8 23 -17 40 -20 32 -6
-3 4 6 6 19 3 14 -2 25 -9 25 -14 0 -6 6 -6 14 1 10 8 16 9 21 1 4 -6 12 -10
18 -9 35 4 58 -2 51 -13 -6 -10 -4 -10 7 -2 15 11 25 11 52 0 9 -5 26 -6 37
-3 13 3 18 1 13 -6 -4 -6 0 -8 10 -4 10 3 17 2 17 -2 0 -5 8 -8 18 -6 9 1 27
-3 38 -10 16 -11 24 -11 33 -2 9 9 14 8 21 -3 9 -13 10 -13 10 0 0 13 1 13 10
0 9 -13 10 -13 10 0 1 13 2 13 10 -1 6 -10 21 -15 45 -13 26 2 34 0 28 -9 -4
-7 0 -7 10 2 16 12 22 8 18 -12 -1 -5 3 -6 9 -2 6 3 8 11 5 16 -4 5 -1 9 4 9
6 0 11 -5 11 -11 0 -6 9 -9 20 -6 11 3 20 0 20 -6 0 -9 2 -9 8 0 5 8 13 9 22
3 9 -5 19 -5 27 1 9 8 11 5 8 -11 -3 -17 -1 -20 9 -11 14 12 37 11 46 -1 3 -4
17 -1 31 6 21 11 26 11 26 0 0 -7 -5 -10 -10 -7 -6 3 -7 1 -3 -6 4 -6 13 -8
19 -4 18 11 37 12 37 2 0 -5 5 -9 11 -9 5 0 7 6 3 13 -5 8 -2 8 9 -2 14 -11
20 -11 33 -1 8 8 14 9 13 4 -3 -19 2 -29 9 -17 6 10 14 9 35 -2 15 -8 25 -10
22 -5 -4 6 1 10 9 10 9 0 16 -6 16 -12 0 -9 4 -8 10 2 6 10 10 11 10 3 0 -7 7
-13 16 -13 9 0 12 5 8 13 -4 6 3 3 16 -8 23 -19 23 -19 16 -1 -6 19 -6 19 12
3 21 -20 37 -23 26 -5 -4 6 3 4 16 -5 17 -12 28 -13 42 -6 10 5 18 6 18 2 0
-5 15 -8 33 -8 17 0 38 -4 46 -10 11 -7 13 -7 8 1 -4 7 0 15 9 18 8 3 13 2 10
-3 -3 -5 1 -12 10 -15 12 -5 15 -2 10 10 -5 14 -4 15 9 4 9 -7 18 -10 22 -7 3
4 12 2 20 -4 9 -9 13 -8 13 0 0 8 8 6 23 -4 21 -13 25 -13 45 1 20 14 21 14
15 -3 -5 -15 -3 -16 8 -5 16 15 33 16 23 1 -5 -8 -1 -8 14 0 27 14 35 14 26
-1 -5 -9 -2 -9 9 1 14 11 20 11 32 1 12 -10 18 -10 30 0 10 9 15 9 15 1 0 -6
5 -11 11 -11 5 0 8 4 4 9 -5 10 40 5 57 -5 4 -3 8 -1 8 4 0 5 7 9 15 9 8 0 11
-5 8 -10 -4 -7 1 -8 13 -3 35 14 54 15 54 3 0 -7 4 -6 10 3 5 8 10 10 10 5 0
-6 9 -11 19 -11 11 0 17 4 15 8 -3 4 -1 8 5 8 5 0 12 -6 15 -12 5 -10 7 -10
12 0 3 6 11 9 17 5 20 -12 38 -12 30 0 -3 7 3 4 15 -6 20 -19 21 -18 15 5 -5
22 -5 22 9 4 15 -19 15 -19 26 0 11 18 11 18 12 0 0 -15 3 -16 14 -7 9 8 16 8
20 2 9 -14 37 -2 29 13 -3 6 3 3 14 -7 19 -16 22 -16 36 -2 20 20 28 19 21 -2
-5 -17 -5 -17 8 -1 13 15 15 15 27 0 11 -16 12 -16 7 1 -3 10 -2 16 3 12 19
-11 71 -12 71 -1 0 6 5 4 10 -4 8 -13 11 -13 22 -1 11 11 11 13 -1 6 -9 -5
-12 -4 -7 3 5 9 12 9 26 0 14 -9 22 -9 36 3 11 9 15 9 10 2 -4 -7 -3 -13 1
-13 5 0 15 6 22 13 8 6 11 7 8 1 -4 -6 6 -9 26 -7 18 2 44 4 60 4 15 0 27 6
27 12 0 8 3 8 8 2 8 -11 63 -15 56 -4 -2 4 3 9 11 13 8 3 17 1 21 -5 4 -6 11
-6 20 2 11 9 14 8 14 -2 0 -8 6 -6 16 7 8 10 13 14 10 8 -3 -7 1 -15 10 -18 8
-3 13 -2 10 2 -2 4 7 12 20 19 17 8 26 8 31 1 4 -7 1 -8 -7 -3 -9 5 -11 4 -6
-4 4 -6 12 -9 17 -5 5 3 7 10 4 15 -4 5 -1 9 4 9 6 0 11 -5 11 -11 0 -6 7 -3
16 5 18 19 28 21 18 4 -5 -8 -2 -9 10 -5 10 4 20 7 22 7 3 0 2 6 -2 13 -6 9
-4 9 7 1 18 -15 58 -11 69 5 6 10 10 9 19 -5 10 -18 10 -18 11 -1 0 15 3 16
23 6 20 -11 21 -11 9 4 -12 14 -11 15 17 7 23 -6 33 -5 43 8 12 16 11 16 -7 2
-19 -14 -19 -14 -6 3 10 13 17 15 27 6 10 -8 18 -9 27 0 8 6 17 8 20 4 4 -3 7
-1 7 5 0 6 7 9 17 5 11 -4 14 -3 9 5 -5 8 -1 10 10 5 13 -5 15 -3 9 8 -7 11
-6 12 6 2 11 -9 18 -8 31 1 10 7 15 16 11 19 -3 4 -1 7 5 7 7 0 12 -6 12 -12
0 -7 5 -5 11 5 5 9 19 17 29 17 11 0 20 5 20 11 0 5 -5 7 -12 3 -7 -4 -8 -3
-4 5 4 6 11 9 16 6 12 -7 41 6 34 16 -3 5 3 6 12 2 13 -5 16 -2 12 9 -4 10 0
14 14 13 22 -2 67 34 61 48 -2 4 1 7 7 7 6 0 8 4 5 10 -3 6 1 7 10 4 11 -5 14
-2 8 12 -4 12 -3 15 5 10 7 -4 13 -2 13 3 1 6 2 15 3 20 2 13 16 26 29 26 7 0
12 7 12 15 1 8 6 14 12 13 5 -1 9 9 8 22 -2 13 3 29 11 36 7 6 11 16 7 23 -4
7 -1 6 8 -1 14 -11 16 -9 14 17 -1 16 1 27 5 25 3 -2 12 6 19 17 12 19 11 20
-6 14 -17 -6 -17 -6 1 8 10 8 15 19 12 25 -3 5 2 12 11 14 15 4 15 5 -2 6 -16
1 -17 3 -6 10 8 5 15 23 16 40 2 19 -1 28 -8 24 -6 -4 -7 -1 -1 8 11 18 13 59
2 59 -4 0 -8 11 -8 24 0 14 -4 28 -10 31 -5 3 -10 12 -10 18 0 7 4 6 10 -3 5
-8 10 -10 10 -4 0 6 -7 17 -15 24 -8 7 -12 16 -9 21 3 5 0 9 -5 9 -6 0 -11 8
-11 19 0 10 -7 24 -15 31 -8 7 -15 21 -15 31 0 11 -5 19 -11 19 -6 0 -8 7 -5
16 3 8 2 13 -3 10 -4 -3 -23 17 -40 44 -41 63 -154 182 -147 155 60 -240 59
-383 -4 -502 -27 -53 -158 -177 -234 -222 -53 -32 -186 -84 -239 -95 -97 -20
-129 -25 -182 -31 -33 -4 -64 -10 -69 -13 -5 -3 -6 0 -2 6 3 6 2 14 -4 17 -8
5 -7 11 1 21 6 7 16 11 23 7 7 -4 7 -1 -1 8 -10 12 -10 18 0 29 10 10 9 11 -3
5 -12 -6 -13 -5 -2 6 14 16 16 33 2 24 -5 -3 -10 -2 -10 3 0 6 7 12 15 16 8 3
15 10 15 16 0 6 -4 8 -10 5 -6 -3 -7 1 -4 9 3 9 11 16 18 16 6 0 4 5 -4 10
-13 9 -13 10 0 10 12 0 12 2 1 9 -9 6 -10 11 -2 15 6 4 11 13 11 19 0 7 -4 6
-10 -3 -6 -9 -10 -10 -10 -3 0 6 4 14 10 18 5 3 6 13 3 22 -4 9 -2 14 3 10 5
-3 9 7 8 21 -1 15 -3 33 -3 40 -1 7 -6 10 -13 6 -7 -4 -8 -3 -4 5 4 6 12 9 17
6 5 -3 7 8 5 24 -2 17 2 32 8 35 6 3 5 5 -3 5 -11 1 -11 4 0 17 10 13 10 17
-2 25 -12 7 -12 9 1 9 13 0 13 1 0 11 -11 8 -12 12 -2 16 6 2 9 10 5 16 -12
18 -12 38 -1 31 12 -8 6 29 -7 38 -6 5 -4 8 5 8 13 0 13 1 0 10 -13 9 -13 10
0 10 13 0 13 1 0 10 -11 7 -11 10 -2 10 7 0 10 5 7 10 -4 6 -12 7 -18 3 -7 -3
-4 2 5 13 15 18 16 23 3 47 -8 15 -11 25 -6 23 8 -6 6 83 -3 92 -3 3 -1 11 6
19 8 11 7 12 -6 7 -14 -5 -15 -3 -7 19 6 16 6 28 -1 35 -6 6 -6 12 2 17 8 5 4
15 -12 32 -20 22 -21 23 -3 17 18 -7 18 -6 7 9 -8 9 -11 21 -7 27 3 5 1 10 -5
10 -6 0 -8 5 -5 10 4 6 1 18 -7 27 -11 15 -11 16 6 10 16 -6 17 -5 7 7 -7 8
-9 21 -5 27 4 7 3 9 -3 6 -6 -4 -13 2 -16 13 -3 11 -1 18 4 14 5 -3 9 -1 9 4
0 6 -8 13 -17 16 -14 6 -15 9 -4 15 9 6 10 11 3 15 -6 4 -8 14 -5 23 4 10 2
14 -4 10 -6 -4 -9 10 -9 33 1 22 -2 40 -5 40 -4 0 -10 7 -13 16 -3 8 -2 12 3
9 5 -3 3 8 -5 25 -9 16 -13 34 -10 39 3 5 0 11 -8 14 -7 3 -12 18 -11 36 1 16
-2 28 -6 26 -4 -3 -10 2 -13 11 -3 8 -2 13 3 10 5 -3 0 11 -10 31 -10 20 -16
40 -13 45 3 5 -1 17 -8 26 -24 27 -33 46 -19 37 14 -8 -7 35 -23 46 -5 4 -5
12 -2 18 4 6 2 11 -4 11 -6 0 -8 5 -5 10 3 6 1 10 -5 10 -6 0 -8 5 -5 10 3 6
1 10 -5 10 -6 0 -8 5 -5 10 3 6 1 10 -4 10 -6 0 -11 9 -11 20 0 11 -5 20 -10
20 -6 0 -9 3 -8 8 2 8 -23 64 -32 72 -10 9 -44 85 -42 93 1 5 -2 6 -7 3 -5 -4
-13 4 -17 16 -4 13 -11 26 -16 29 -5 3 -10 15 -11 27 0 11 -5 18 -9 16 -5 -3
-11 3 -15 13 -4 10 -17 32 -30 49 -12 17 -20 34 -15 39 4 5 2 5 -5 1 -7 -3
-14 2 -18 13 -3 10 -13 28 -23 39 -9 11 -26 33 -37 48 -195 267 -478 524 -762
692 -40 24 -73 47 -73 53 0 6 3 8 8 5 4 -2 16 3 27 11 19 15 19 15 -5 8 -24
-7 -24 -7 -5 8 11 8 24 13 29 9 5 -3 7 1 4 9 -4 10 1 15 12 16 20 2 60 32 60
46 0 4 -5 5 -12 1 -6 -4 -8 -3 -4 4 3 6 15 9 26 7 12 -2 21 3 25 15 3 11 14
22 23 25 9 3 28 15 42 26 14 11 19 17 11 13 -10 -5 -12 -3 -7 5 6 9 11 9 24
-1 10 -8 13 -9 9 -1 -4 7 1 14 13 18 11 4 18 11 15 16 -4 5 1 9 10 9 12 0 15
5 11 16 -5 14 -4 15 9 4 12 -10 15 -9 15 6 0 16 2 17 10 4 8 -13 10 -12 10 2
0 10 3 17 8 17 20 -3 33 2 27 11 -4 6 -11 7 -17 4 -7 -4 -8 -2 -4 4 5 9 13 9
27 2 15 -8 19 -8 17 2 -2 7 3 12 10 10 7 -1 15 5 18 13 3 8 10 12 15 9 5 -3 9
0 9 5 0 6 7 11 15 11 8 0 15 5 15 10 0 6 7 10 16 10 10 0 14 6 11 14 -4 10 1
13 18 11 14 -1 22 2 19 6 -3 5 0 9 5 9 6 0 10 6 9 13 -2 7 5 11 15 9 10 -2 25
2 32 8 8 7 20 8 27 4 10 -6 10 -4 0 9 -12 14 -11 16 8 12 16 -3 20 0 16 10 -3
9 1 12 15 10 10 -2 19 1 19 7 0 5 7 8 15 4 9 -3 15 0 15 9 0 9 6 12 17 8 11
-4 14 -3 9 5 -4 7 -2 13 3 13 12 2 26 5 39 9 4 1 11 2 15 1 5 -1 5 3 2 9 -4 7
2 14 14 17 24 6 19 22 -7 19 -9 -2 -17 -9 -17 -17 0 -8 -12 -15 -30 -16 -16
-1 -31 -7 -33 -13 -2 -5 -10 -10 -18 -10 -9 0 -13 -4 -10 -8 3 -5 -2 -9 -12
-9 -12 0 -9 6 11 21 44 32 167 97 176 92 4 -3 8 1 8 8 0 15 -112 -28 -285
-110 -159 -75 -277 -144 -425 -249 -70 -49 -156 -108 -190 -130 -208 -133
-415 -299 -671 -539 -66 -61 -158 -147 -205 -191 -189 -177 -603 -593 -708
-713 -217 -247 -337 -405 -653 -857 -251 -359 -325 -455 -349 -455 -56 0 -331
101 -331 122 0 5 8 17 18 26 10 10 13 14 7 10 -7 -5 -12 -2 -12 7 0 8 3 12 7
10 3 -2 12 1 20 6 13 8 13 10 0 19 -8 5 -10 10 -5 10 6 0 17 -6 24 -13 10 -10
11 -9 6 4 -3 9 1 22 9 29 9 7 14 16 11 20 -3 5 0 12 6 16 8 4 9 3 5 -4 -4 -7
-2 -12 5 -12 6 0 9 8 6 19 -3 13 0 18 8 15 7 -3 16 0 21 7 5 8 3 10 -7 4 -8
-5 1 7 20 26 19 18 39 33 44 31 4 -1 6 2 2 7 -3 6 -13 8 -23 4 -9 -3 -2 4 16
16 29 19 48 42 20 25 -7 -5 -8 -3 -4 5 5 7 14 10 22 7 9 -3 11 0 7 11 -4 11
-2 14 5 9 8 -5 10 -1 5 10 -5 13 -3 16 10 11 10 -4 14 -2 11 6 -2 7 3 21 11
32 15 19 16 19 5 -5 -10 -22 -10 -23 3 -8 8 10 16 15 19 13 3 -3 4 6 2 20 -2
20 1 25 13 21 11 -5 13 -2 9 10 -4 12 -2 15 9 10 8 -3 14 -2 14 2 -1 4 -1 16
0 27 1 17 3 18 11 5 8 -13 10 -12 10 3 0 11 4 15 12 11 7 -4 8 -3 4 4 -4 7 -2
12 4 12 6 0 9 4 6 8 -3 5 5 15 19 22 13 7 21 18 19 25 -3 7 0 16 7 21 8 5 10
3 5 -7 -4 -8 -1 -6 6 5 7 10 26 31 41 47 17 17 23 29 15 30 -7 0 -3 4 10 9 12
5 22 14 22 21 0 6 7 8 16 5 14 -5 15 -4 4 9 -9 11 -9 15 -1 15 19 0 72 60 65
73 -4 7 -4 9 1 5 9 -9 35 9 35 24 0 5 -6 6 -12 2 -7 -4 -9 -3 -5 1 11 13 38
15 31 3 -5 -7 -2 -8 5 -4 7 5 10 14 7 22 -6 15 27 37 40 26 5 -4 2 2 -6 12
-10 14 -11 17 -2 12 8 -5 23 2 40 20 15 15 21 24 13 19 -10 -5 -12 -4 -7 3 4
7 14 12 22 12 9 0 12 5 8 12 -5 7 -2 9 9 5 11 -4 14 -2 10 9 -3 8 1 14 10 14
9 0 19 4 22 10 3 6 -1 7 -12 4 -16 -5 -16 -4 1 6 10 7 27 21 37 31 11 11 24
19 29 19 6 0 10 5 10 11 0 8 -6 7 -17 -2 -16 -13 -17 -12 -4 4 7 9 20 17 27
17 8 0 14 7 14 16 0 8 4 13 9 10 4 -3 17 2 27 10 10 9 13 13 7 9 -7 -3 -13 -1
-13 4 0 6 7 11 15 11 8 0 15 4 15 9 0 5 9 13 21 16 17 6 18 9 7 23 -9 11 -9
14 -1 9 13 -8 53 12 53 27 0 5 -10 1 -22 -10 l-23 -19 19 23 c11 12 25 22 33
22 7 0 13 7 13 15 0 8 3 14 8 14 18 -3 32 2 32 11 0 5 -8 7 -17 4 -10 -4 -3 3
15 15 18 12 37 21 43 21 6 0 7 5 4 10 -3 6 2 10 12 10 15 0 16 2 3 10 -13 8
-13 10 2 10 10 0 22 9 28 21 7 13 17 18 27 15 14 -6 14 -4 2 11 -12 15 -12 16
4 10 16 -6 22 4 17 28 -1 6 2 7 5 3 12 -11 47 12 41 27 -3 9 1 12 14 10 12 -2
17 1 14 10 -3 7 0 16 7 21 8 5 10 3 4 -6 -6 -9 -4 -11 4 -6 7 5 10 15 6 23 -5
14 -3 14 12 2 9 -8 14 -9 10 -3 -7 11 19 29 36 25 4 -1 3 7 -2 18 -9 15 -7 18
7 17 10 0 16 5 14 13 -3 12 0 12 12 2 13 -11 15 -10 11 8 -3 15 0 18 12 14 12
-5 14 -3 8 7 -6 10 -4 12 9 7 10 -4 15 -3 11 3 -3 6 -1 10 6 10 8 0 8 4 -1 15
-11 13 -10 14 3 9 10 -4 28 6 49 28 17 18 41 38 52 43 11 6 26 22 33 35 7 14
13 19 13 10 1 -12 3 -11 11 3 5 9 7 23 3 30 -4 6 -3 9 1 4 5 -4 18 1 29 10
l21 18 -20 -25 -20 -25 27 24 c15 13 25 29 21 34 -4 6 0 8 10 4 10 -4 17 -2
17 5 0 13 41 53 65 61 9 4 13 11 10 17 -3 5 3 10 14 10 12 0 20 6 19 13 -2 6
5 11 14 9 12 -2 16 2 12 12 -3 8 0 17 7 22 8 4 10 3 5 -4 -4 -8 -2 -10 8 -6 8
3 12 12 9 20 -5 12 13 19 39 15 4 0 4 7 1 16 -4 11 -3 14 5 9 7 -4 12 -2 12 3
0 6 7 11 16 11 13 0 14 3 5 13 -8 11 -6 13 12 13 13 -1 21 4 19 12 -1 6 5 12
13 12 8 0 15 5 15 10 0 6 6 9 13 8 6 -2 11 3 9 11 -2 9 3 11 14 7 14 -5 15 -4
5 8 -9 11 -9 16 0 22 8 4 9 3 5 -4 -4 -7 -2 -12 3 -12 6 0 11 5 11 10 0 6 7
10 15 10 9 0 20 11 25 25 5 14 12 25 15 25 4 0 3 -4 0 -10 -3 -5 -1 -10 4 -10
6 0 11 5 11 10 0 6 5 9 12 8 7 -2 12 5 13 14 0 9 9 24 20 32 24 18 39 21 29 4
-4 -7 -3 -8 4 -4 7 4 12 16 12 27 0 10 5 19 11 19 5 0 7 -6 4 -12 -4 -7 0 -5
8 5 9 10 18 18 22 17 4 -1 10 2 13 6 4 4 0 3 -8 -1 -13 -8 -13 -7 -1 9 8 9 21
14 29 11 10 -4 12 0 8 10 -3 9 -2 13 4 10 5 -3 17 3 27 14 9 11 21 17 26 14 6
-4 8 1 3 12 -5 15 -4 16 9 5 13 -11 14 -10 9 4 -5 12 0 16 16 16 15 0 20 5 17
14 -4 11 -1 13 10 9 13 -5 15 -2 10 12 -6 15 -5 16 8 5 12 -10 15 -10 15 3 0
9 5 19 12 23 7 5 9 2 4 -7 -4 -8 -1 -6 7 3 11 14 16 15 26 5 10 -9 11 -8 6 6
-5 12 -2 17 9 17 9 0 16 5 16 11 0 5 -6 7 -12 3 -7 -4 -10 -3 -5 1 4 5 17 10
28 12 11 2 30 13 42 24 12 12 17 19 10 15 -6 -3 -14 -2 -17 3 -7 11 13 9 32
-3 7 -4 16 -5 19 -2 4 3 1 6 -5 6 -7 0 -12 5 -12 11 0 5 4 8 9 5 5 -3 11 1 15
9 3 8 12 15 19 15 8 0 19 10 26 23 11 22 11 22 6 -3 -3 -14 -2 -19 1 -12 3 6
10 10 15 7 5 -4 6 1 3 9 -4 12 0 16 16 16 18 0 20 3 11 14 -9 10 -7 13 6 13
36 0 44 3 37 15 -5 8 -2 9 10 5 14 -6 17 -3 12 9 -5 14 -4 15 9 4 13 -11 14
-10 9 4 -4 11 -1 16 11 16 9 0 13 5 10 10 -3 6 -1 10 4 10 6 0 11 -5 11 -11 0
-5 5 -7 11 -4 6 4 8 10 5 13 -3 3 6 13 22 22 19 12 29 14 34 6 4 -6 8 0 8 14
0 20 2 22 10 10 9 -13 10 -13 11 0 1 8 1 18 0 22 0 5 2 7 7 7 25 -4 42 2 36
14 -5 7 -1 7 12 -3 10 -8 16 -10 11 -5 -12 14 24 47 39 34 9 -7 14 -6 20 2 5
8 3 9 -6 4 -9 -5 -11 -4 -6 3 4 7 16 12 28 12 13 0 18 5 15 14 -4 10 -1 13 9
9 8 -3 22 3 30 13 9 11 13 13 9 7 -3 -7 -1 -13 4 -13 6 0 11 5 11 11 0 5 4 8
9 5 5 -3 11 4 14 15 3 12 10 18 17 14 6 -3 18 2 28 12 9 11 13 13 8 6 -6 -10
-4 -12 8 -7 9 3 16 10 16 16 0 5 5 6 12 2 7 -5 9 -2 5 8 -4 12 -1 14 14 11 11
-3 19 0 19 7 0 7 7 10 15 6 8 -3 15 -1 15 3 0 5 -6 11 -12 14 -7 3 -3 4 9 4
12 -1 19 -6 16 -12 -2 -5 5 1 17 15 12 14 19 19 15 13 -3 -7 -1 -13 4 -13 6 0
11 4 11 9 0 5 14 11 31 15 17 3 28 10 25 15 -3 5 1 12 10 15 9 3 12 2 8 -5 -3
-6 3 -5 14 2 12 7 19 16 16 20 -2 4 7 6 22 4 18 -2 24 1 20 12 -3 8 -2 12 3 8
13 -7 42 5 35 16 -3 5 0 9 5 9 6 0 11 -4 11 -10 0 -5 7 -7 15 -4 8 4 15 14 15
23 0 14 2 14 10 1 9 -13 12 -13 21 3 11 19 34 24 24 5 -4 -7 0 -5 8 4 8 10 17
15 20 11 4 -3 7 -2 7 3 0 5 10 10 23 11 39 4 55 9 71 22 8 7 20 10 26 6 5 -3
10 -1 10 6 0 8 4 8 13 1 14 -12 52 10 40 22 -4 4 0 4 10 0 9 -3 14 -11 10 -17
-4 -6 -1 -7 6 -3 7 5 10 15 6 23 -4 12 -2 13 8 5 10 -9 17 -8 27 1 10 10 11 9
5 -3 -6 -11 -3 -10 12 3 18 15 22 16 33 2 11 -13 15 -12 32 8 11 12 17 17 14
11 -3 -7 1 -15 10 -18 8 -3 13 -2 10 3 -3 5 1 14 8 20 11 9 16 9 22 0 5 -9 11
-7 22 7 10 13 13 14 9 3 -3 -9 1 -16 9 -16 8 0 14 5 14 10 0 5 8 3 17 -4 11
-10 14 -10 9 -1 -8 13 19 13 41 -1 8 -5 11 -3 8 5 -4 10 5 14 27 16 26 2 30 0
18 -9 -12 -9 -11 -10 5 -4 11 4 28 10 38 12 18 6 23 18 10 26 -5 2 -3 2 4 1 7
-2 15 1 18 6 3 5 14 7 25 5 11 -2 22 0 25 5 9 14 -131 26 -312 27 -94 1 -173
0 -175 -2z m390 -60 c-3 -3 -9 2 -12 12 -6 14 -5 15 5 6 7 -7 10 -15 7 -18z
m-2732 -457 c3 -4 -1 -5 -10 -4 -8 1 -18 5 -22 8 -3 4 1 5 10 4 8 -1 18 -5 22
-8z m-1201 -388 c3 -5 0 -7 -8 -4 -8 3 -18 1 -22 -5 -3 -6 -12 -11 -18 -11 -7
0 -3 7 7 15 23 18 33 19 41 5z m-405 -49 c0 -6 -4 -12 -8 -15 -5 -3 -9 1 -9 9
0 8 4 15 9 15 4 0 8 -4 8 -9z m-300 -195 c0 -2 -8 -10 -17 -17 -16 -13 -17
-12 -4 4 13 16 21 21 21 13z m3001 -120 c8 4 9 3 5 -4 -4 -7 -2 -12 4 -12 6 0
8 -5 4 -12 -5 -8 0 -7 11 2 11 9 16 10 11 3 -5 -9 0 -13 14 -13 12 0 18 -4 15
-10 -3 -5 1 -10 9 -10 9 0 16 -5 16 -11 0 -6 6 -9 14 -6 16 6 50 -26 39 -36
-5 -6 19 -11 39 -8 4 0 10 -8 13 -19 4 -11 11 -18 16 -15 5 4 9 -1 9 -9 0 -9
5 -16 11 -16 5 0 7 6 3 13 -5 8 -3 8 9 -2 9 -7 14 -17 11 -22 -3 -5 0 -8 8 -7
7 2 12 -3 11 -9 -2 -7 2 -13 7 -13 6 0 12 0 15 0 2 0 45 -40 94 -87 85 -84 88
-88 74 -110 -40 -61 -183 -106 -183 -58 0 7 -4 15 -8 17 -10 4 -65 98 -57 98
3 0 -4 9 -15 20 -11 11 -20 26 -20 34 0 8 -7 17 -16 20 -10 4 -14 12 -10 23 4
10 4 14 0 10 -6 -6 -54 53 -54 67 0 4 -8 14 -17 24 -10 10 -25 29 -33 42 -8
13 -26 37 -40 54 -14 17 -31 42 -39 56 -13 23 -13 24 2 12 9 -8 22 -10 28 -6z
m-3176 -26 c-3 -5 -12 -10 -18 -10 -7 0 -6 4 3 10 19 12 23 12 15 0z m3002
-47 c4 -10 14 -26 22 -35 9 -9 30 -43 46 -75 17 -32 33 -59 38 -61 4 -2 7 -8
7 -13 0 -5 9 -28 19 -52 24 -52 68 -183 73 -217 3 -24 -1 -26 -82 -42 -137
-27 -348 -39 -433 -24 -160 28 -169 30 -179 49 -7 14 -7 17 1 13 6 -4 19 -2
28 3 11 6 13 11 5 11 -7 0 -10 5 -7 11 4 6 13 8 20 5 9 -3 11 2 8 15 -4 13 -1
19 7 17 7 -2 15 3 18 11 3 9 0 11 -8 6 -8 -5 -11 -4 -6 3 3 6 16 9 27 7 18 -4
19 -2 7 12 -9 12 -9 15 0 9 7 -4 15 -1 18 8 3 9 11 13 17 9 6 -3 7 -1 3 6 -4
6 0 14 8 17 9 3 13 11 9 17 -4 6 0 8 10 4 9 -3 16 -3 16 1 -4 22 4 34 27 42
14 6 22 15 19 21 -4 6 3 13 15 16 16 4 18 8 8 14 -9 6 -6 9 11 9 16 0 21 4 17
15 -3 8 -2 14 2 14 21 -3 32 2 26 13 -5 8 -2 9 11 4 18 -6 18 -6 -1 16 -11 13
-13 18 -3 10 13 -10 21 -8 43 13 15 14 24 30 21 35 -3 6 1 7 9 4 9 -3 16 -1
16 6 0 6 5 8 13 4 8 -5 7 -2 -2 9 -12 15 -12 17 4 11 13 -5 16 -4 11 4 -5 8 3
14 24 19 22 4 28 8 18 14 -10 7 -10 9 0 9 7 0 16 -8 19 -17z m-957 -333 c-6
-11 -13 -20 -16 -20 -2 0 0 9 6 20 6 11 13 20 16 20 2 0 0 -9 -6 -20z m1895
-365 c11 -15 26 -33 33 -41 7 -8 10 -19 6 -25 -4 -7 -3 -9 4 -5 14 8 55 -50
46 -65 -4 -7 -3 -9 3 -6 9 5 51 -53 44 -62 -1 -2 1 -7 6 -10 14 -9 79 -152 99
-215 l18 -58 -24 -19 c-58 -46 -222 -150 -312 -198 -81 -44 -95 -48 -91 -31 3
11 1 20 -4 20 -12 0 -11 30 2 49 6 10 4 12 -5 6 -10 -6 -12 -3 -8 13 4 12 3
20 -2 17 -4 -3 -11 2 -14 11 -5 12 -2 15 11 10 15 -6 15 -5 -1 13 -10 11 -16
27 -13 35 4 9 2 18 -4 22 -5 3 -9 13 -7 22 1 10 -1 23 -6 31 -7 10 -5 12 3 6
8 -4 7 2 -3 17 -9 14 -13 28 -10 31 4 4 1 13 -5 21 -9 10 -9 16 -1 21 8 5 7
12 -3 23 -8 10 -18 28 -21 42 -6 19 -5 21 3 10 8 -12 10 -11 8 7 0 12 -5 19
-9 17 -4 -3 -9 1 -10 8 -2 23 -5 32 -15 58 -7 16 -7 27 -1 31 5 3 3 9 -5 12
-9 3 -14 16 -13 31 2 14 -1 26 -5 26 -11 0 -27 61 -21 83 3 13 8 15 15 8 14
-14 27 -14 27 0 0 5 -6 7 -12 3 -8 -4 -10 -3 -5 2 5 5 12 9 15 9 4 0 13 4 21
9 9 6 12 5 8 -1 -3 -5 0 -10 8 -10 8 0 12 4 9 9 -3 4 2 8 10 8 9 0 16 6 16 13
0 9 2 9 8 0 6 -9 13 -7 27 10 11 12 18 26 17 30 -1 5 2 5 8 2 8 -5 5 -14 -7
-28 -18 -21 -18 -21 2 -7 35 26 44 37 37 46 -4 5 1 3 10 -4 14 -11 18 -10 29
9 l11 22 27 -30 c14 -16 35 -42 46 -58z m-4495 21 c0 -3 -4 -8 -10 -11 -5 -3
-10 -1 -10 4 0 6 5 11 10 11 6 0 10 -2 10 -4z m2781 -125 c0 9 2 10 5 2 3 -7
12 -9 21 -6 10 4 14 2 10 -4 -3 -5 0 -10 8 -10 8 0 11 5 8 11 -4 6 1 5 10 -3
9 -7 23 -11 31 -8 8 3 22 0 32 -7 9 -7 26 -11 36 -8 12 3 17 0 14 -9 -3 -8 -7
-102 -11 -209 -5 -186 -12 -355 -20 -505 -2 -38 -4 -94 -4 -124 l-1 -54 -147
6 c-82 4 -157 8 -168 11 -11 2 -51 7 -90 10 -38 4 -77 9 -85 11 -8 2 -37 6
-65 10 -47 6 -232 37 -301 51 -34 6 -39 22 -15 44 13 13 14 12 7 -5 -5 -15 -4
-17 5 -8 6 6 12 24 12 40 0 15 2 23 4 16 2 -7 11 -9 19 -6 13 5 13 7 2 14 -10
7 -8 11 9 15 13 4 20 10 17 15 -3 5 0 9 5 9 6 0 10 5 8 11 -1 6 4 14 12 17 9
3 11 0 6 -9 -5 -8 -4 -10 0 -6 14 12 15 40 2 57 -10 13 -10 13 5 2 14 -11 18
-10 28 8 6 11 15 18 20 15 6 -3 7 0 4 8 -3 8 0 18 5 22 6 3 8 11 5 17 -4 7 -2
8 5 4 9 -6 9 -12 -1 -24 -12 -15 -11 -16 4 -4 9 8 14 20 11 28 -3 9 0 14 8 12
8 -2 13 3 11 10 -1 6 3 12 9 12 5 0 7 5 3 12 -5 8 -2 9 11 4 16 -6 16 -4 4 11
-8 10 -9 14 -2 10 14 -9 36 26 25 38 -4 5 1 5 11 2 11 -4 17 -1 17 7 0 8 6 16
14 19 8 3 22 22 32 43 10 20 26 39 36 42 10 2 15 9 11 15 -4 7 0 8 12 3 15 -5
16 -4 5 9 -11 13 -10 14 4 9 12 -5 16 0 16 16 0 20 2 21 17 9 15 -13 15 -12 3
11 -12 22 -12 24 2 12 13 -10 18 -10 24 -1 4 8 3 9 -4 5 -7 -4 -12 -2 -12 3 0
6 5 11 11 11 6 0 9 6 6 13 -3 8 1 14 9 14 7 0 10 -5 7 -10 -3 -6 -1 -7 5 -3 7
4 12 12 12 17 0 5 9 19 20 31 10 12 16 26 13 32 -4 6 1 5 10 -3 15 -12 17 -12
11 3 -3 9 -1 16 6 16 6 0 8 5 5 10 -3 6 1 10 9 10 8 0 18 5 22 12 5 7 3 8 -6
3 -9 -5 -11 -4 -6 3 4 7 13 12 21 12 7 0 16 11 19 25 4 14 10 23 15 21 5 -3
14 1 21 9 11 13 10 14 -6 9 -10 -4 -16 -4 -13 0 4 4 17 9 29 11 12 2 25 7 29
10 3 3 11 -2 18 -11 10 -14 13 -15 14 -3z m1047 -30 c-5 12 0 14 23 11 15 -2
28 -7 27 -11 -2 -8 11 -60 23 -91 5 -14 12 -39 15 -55 3 -17 10 -48 16 -70 5
-22 12 -51 15 -64 2 -14 6 -27 8 -31 9 -14 44 -242 51 -322 6 -83 6 -84 -20
-96 -50 -23 -315 -94 -431 -116 -87 -16 -118 -20 -245 -31 -41 -3 -91 -8 -110
-10 -36 -5 -88 22 -63 32 10 3 10 10 2 25 -9 16 -8 19 3 12 11 -6 11 -5 -1 9
-10 13 -10 17 -1 17 9 0 9 4 -1 17 -12 15 -12 16 1 8 13 -8 13 -7 1 8 -11 14
-11 20 -1 32 10 12 10 15 -1 15 -11 0 -11 2 1 10 8 5 10 10 4 10 -6 0 -11 7
-11 15 0 8 5 15 11 15 6 0 4 5 -4 10 -13 9 -13 10 0 10 13 0 13 1 0 10 -13 9
-13 10 0 10 13 0 13 1 0 10 -13 8 -13 10 -1 10 11 0 10 4 -5 16 -10 8 -14 13
-7 10 17 -9 28 15 12 25 -12 7 -11 9 1 9 13 0 13 1 0 10 -13 9 -13 11 0 20 13
9 13 10 0 10 -13 0 -13 1 0 10 13 9 13 10 0 10 -13 0 -13 1 0 10 13 9 13 10 0
10 -13 0 -13 1 0 10 13 9 13 10 0 10 -13 0 -13 1 0 10 13 9 13 10 0 10 -13 0
-13 1 0 10 13 9 13 10 0 10 -13 0 -13 1 0 10 11 7 11 10 2 10 -9 0 -10 5 -2
19 7 14 7 22 -1 27 -8 4 -7 9 2 15 10 6 11 9 2 9 -7 0 -13 5 -13 11 0 5 6 7
13 3 6 -4 3 3 -8 16 -11 13 -15 20 -8 17 6 -4 14 -3 18 3 3 5 0 10 -7 10 -9 0
-9 3 2 10 13 8 13 10 1 10 -12 0 -12 3 -3 12 9 9 8 16 -5 30 -16 18 -16 18 3
12 16 -7 17 -6 6 8 -9 12 -10 18 -2 23 8 5 8 11 -1 21 -9 11 -9 14 0 14 7 0 9
5 6 10 -4 6 -12 8 -18 4 -7 -3 -4 1 5 8 15 13 15 15 0 26 -15 10 -15 11 2 5
14 -5 17 -3 12 6 -4 7 -9 23 -11 37 -2 22 -1 23 14 10 15 -14 19 -14 33 0 12
12 17 13 23 3 6 -8 4 -10 -6 -4 -8 5 -10 4 -6 0 15 -17 39 -14 32 3 -5 13 -2
13 15 -3 18 -17 20 -17 20 -1 0 16 1 16 16 2 16 -17 39 -22 30 -7 -3 4 6 6 20
3 19 -3 22 -7 12 -13 -7 -5 -8 -9 -2 -9 5 0 15 5 22 12 9 9 12 9 12 -2 0 -9 6
-8 22 6 12 10 18 14 14 7 -4 -7 2 -17 13 -23 16 -8 19 -8 15 3 -3 8 2 14 11
14 8 0 15 -5 15 -10 0 -5 7 -4 15 3 12 10 15 10 15 0 0 -8 4 -9 13 -4 6 5 21
9 32 9 11 0 23 4 27 10 5 6 8 6 8 -2 0 -7 7 -13 16 -13 8 0 12 5 8 11 -3 6 6
3 22 -7 22 -14 26 -15 17 -3 -11 13 -9 15 10 13 12 -1 24 -3 27 -4 3 -1 19 -3
37 -4 26 -1 29 1 20 13 -10 12 -8 12 13 1 18 -10 25 -10 28 -1 3 9 8 9 20 -1
14 -11 15 -10 8 6 -7 20 -7 20 15 0 17 -14 21 -15 17 -3z m1046 -743 c-5 -8
-2 -9 10 -5 23 9 25 3 43 -198 15 -156 7 -679 -11 -795 -3 -14 -7 -59 -11
-100 -3 -41 -7 -76 -10 -78 -4 -5 -67 -8 -315 -17 -289 -11 -311 -11 -317 -2
-2 4 -9 5 -14 1 -6 -3 -5 3 3 15 7 12 16 21 19 21 3 0 5 11 4 25 -2 14 0 23 5
20 4 -3 11 2 14 11 3 8 2 12 -4 9 -6 -3 -10 -1 -10 4 0 6 6 11 13 12 9 0 9 2
-1 6 -10 4 -9 9 5 20 10 8 11 11 3 7 -12 -7 -13 -5 -3 8 7 8 10 18 6 21 -3 4
-1 7 7 7 10 0 10 4 -1 17 -8 9 -9 14 -2 10 6 -4 13 -1 16 5 6 20 -4 39 -17 31
-12 -8 13 28 29 39 6 5 4 8 -5 8 -13 0 -13 1 0 10 8 5 11 10 5 10 -5 0 -3 5 5
10 10 6 11 10 3 10 -9 0 -10 7 -3 24 5 15 5 27 -2 34 -8 8 -7 13 5 18 9 3 17
10 17 16 0 5 -3 7 -7 5 -5 -3 -8 5 -8 18 0 13 3 21 6 19 4 -2 10 3 13 12 3 8
2 12 -4 9 -5 -3 -8 4 -7 15 1 11 5 20 9 20 4 0 8 5 8 11 0 5 -4 8 -9 4 -5 -3
-13 0 -17 6 -4 7 -3 9 3 6 15 -9 24 18 11 31 -8 8 -8 16 2 27 10 12 10 15 -1
16 -11 0 -11 2 -1 6 9 4 10 8 2 18 -8 9 -8 15 0 20 5 3 10 11 10 16 0 6 -4 8
-8 5 -5 -3 -9 1 -9 9 0 8 4 12 8 10 3 -3 9 4 12 16 5 17 3 18 -11 7 -12 -10
-14 -10 -8 0 14 24 16 63 5 85 -11 19 -10 20 2 10 12 -10 15 -8 15 7 0 10 -4
17 -7 14 -4 -2 -10 0 -14 6 -3 6 4 10 17 10 19 1 20 2 7 10 -13 8 -15 17 -9
44 4 19 6 37 4 39 -3 2 7 3 21 2 14 -2 25 1 25 6 0 5 5 9 11 9 5 0 7 -6 3 -12
-6 -10 -5 -10 8 -1 8 7 18 10 22 6 4 -4 4 -1 1 8 -4 10 1 15 15 17 44 4 49 6
55 20 3 8 12 11 20 8 10 -3 15 1 16 12 0 10 3 12 6 4 6 -15 23 -6 19 11 -1 7
-1 9 1 5 3 -5 11 -8 19 -8 9 0 12 5 9 10 -3 6 4 10 15 10 15 0 20 5 17 15 -4
8 -2 17 4 20 5 4 8 1 7 -6 -2 -6 3 -14 11 -17 9 -3 11 0 6 8 -6 10 -3 12 13 8
14 -4 19 -2 16 7 -3 7 0 16 7 21 8 5 10 3 5 -7 -4 -8 -1 -6 7 3 11 14 16 15
26 5 7 -7 12 -7 11 -2 -6 29 0 38 16 25 12 -11 15 -11 12 0 -2 7 10 16 26 21
17 5 34 15 38 24 5 8 11 15 14 15 3 0 2 -5 -2 -12z m-2961 -221 c-4 -6 0 -8
10 -4 23 9 49 -2 40 -17 -4 -6 1 -5 10 3 15 12 21 9 19 -10 -1 -3 5 -6 13 -6
8 0 11 5 8 11 -4 6 1 5 10 -3 9 -7 17 -11 17 -7 0 4 14 -1 30 -9 17 -9 36 -13
42 -9 7 4 8 3 4 -4 -5 -8 0 -12 13 -12 11 0 25 -8 31 -17 9 -14 10 -14 7 -2
-3 9 1 16 9 16 7 0 11 -4 8 -9 -3 -4 -1 -8 5 -8 5 0 22 -5 38 -12 15 -6 36
-10 46 -9 9 1 17 -4 17 -11 0 -8 3 -9 8 -3 10 14 32 17 32 4 0 -5 5 -7 10 -4
6 3 10 1 10 -4 0 -6 5 -11 11 -11 5 0 7 4 4 10 -3 6 1 7 9 4 9 -3 13 -11 10
-16 -4 -6 4 -5 16 2 12 7 20 8 16 2 -3 -5 1 -13 10 -16 8 -3 13 -2 10 3 -3 5
1 12 10 15 10 4 13 2 8 -6 -5 -7 0 -9 14 -6 15 4 19 2 15 -9 -5 -13 -3 -13 17
-3 16 9 25 9 33 1 15 -15 30 -14 21 1 -5 7 -3 8 7 2 14 -9 34 -14 57 -16 6 -1
12 -6 12 -12 0 -5 7 -1 15 10 10 12 14 14 13 4 -3 -16 30 -20 50 -6 7 5 12 5
12 -1 0 -13 32 -13 49 1 11 8 13 8 8 0 -4 -7 0 -15 9 -18 8 -3 12 -2 9 4 -3 6
-1 10 4 10 6 0 11 -4 11 -10 0 -5 7 -7 16 -3 13 5 14 0 8 -33 -17 -96 -118
-416 -170 -542 -13 -32 -14 -33 -66 -27 -29 4 -55 8 -58 10 -4 2 -29 7 -56 10
-27 4 -56 8 -64 10 -8 3 -33 7 -55 11 -149 22 -401 82 -580 139 -115 36 -214
67 -220 69 -5 1 -22 6 -37 11 -33 9 -36 21 -7 30 14 5 19 13 16 25 -3 11 1 21
10 24 9 4 12 2 7 -7 -5 -8 -2 -7 9 2 18 15 23 26 7 16 -5 -3 -10 -2 -10 3 0 6
7 13 16 16 9 3 12 11 8 18 -5 8 0 7 11 -2 13 -10 16 -11 11 -2 -5 8 -1 19 10
28 11 9 12 12 4 9 -8 -4 -4 3 10 16 14 13 20 20 13 15 -20 -13 -16 -2 11 29
14 17 29 25 36 20 9 -6 9 -2 0 15 -9 17 -9 21 0 15 7 -4 14 1 17 15 4 17 8 19
15 8 7 -9 8 -7 5 9 -3 13 0 26 5 30 7 4 8 1 3 -8 -8 -12 -6 -12 8 0 9 7 14 17
11 22 -3 5 0 9 6 9 6 0 8 5 5 10 -3 6 2 10 12 10 15 0 16 2 3 10 -13 8 -12 10
3 10 10 0 15 5 12 10 -3 6 -1 10 5 10 7 0 9 9 5 23 -7 22 -7 22 9 2 9 -11 16
-15 15 -10 -3 24 2 36 13 29 7 -4 8 -3 4 4 -4 7 -3 12 3 12 6 0 8 7 4 16 -4
10 1 17 16 21 11 3 21 11 21 17 0 7 7 13 15 13 8 0 11 -5 8 -10z m-1733 -137
c8 -5 11 -10 5 -10 -5 0 -17 5 -25 10 -8 5 -10 10 -5 10 6 0 17 -5 25 -10z
m3759 -11 c1 11 4 11 18 0 9 -8 14 -9 10 -3 -9 16 35 27 45 11 8 -12 3 -284
-7 -387 -10 -95 -45 -374 -51 -402 l-6 -28 -151 5 c-160 5 -338 14 -397 19
-19 2 -69 7 -110 11 -64 5 -126 15 -250 40 -14 3 -40 8 -58 11 -32 6 -55 24
-31 24 7 0 9 3 6 7 -4 3 -1 13 6 21 10 13 9 14 -3 8 -8 -4 -4 2 10 14 14 12
19 19 13 15 -9 -4 -12 2 -10 24 2 17 7 34 12 39 5 4 5 1 1 -5 -5 -9 -2 -11 9
-7 12 5 13 9 4 20 -8 10 -9 18 0 28 6 7 12 25 13 39 1 15 9 29 16 32 11 4 12
9 3 19 -9 10 -8 15 4 20 12 4 14 10 5 25 -7 13 -7 22 0 26 6 4 8 11 5 16 -4 5
0 9 7 9 9 0 9 3 -2 10 -13 8 -8 14 11 12 3 -1 6 5 6 13 0 8 -5 11 -11 8 -6 -4
-5 1 3 10 7 9 11 24 7 32 -3 8 -1 15 5 15 6 0 7 5 4 10 -3 6 2 11 12 11 17 1
17 2 1 6 -10 2 -18 7 -18 10 0 3 8 12 18 20 11 10 12 12 2 8 -8 -4 -6 1 4 9
11 9 14 16 8 16 -7 0 -12 5 -12 11 0 5 4 8 9 4 6 -3 8 4 6 15 -2 11 0 20 4 20
5 0 7 11 6 25 -2 14 1 25 6 25 5 0 9 -5 9 -11 0 -6 5 -7 13 -2 17 11 41 10 49
-2 4 -6 8 -1 8 9 0 19 0 19 13 1 9 -12 16 -14 21 -7 4 6 14 8 23 5 12 -5 14
-3 8 8 -5 8 1 5 13 -5 12 -11 25 -16 29 -13 3 4 1 7 -5 7 -7 0 -12 4 -12 10 0
6 9 6 26 0 15 -6 23 -6 19 -1 -3 5 0 13 6 17 7 4 9 3 5 -4 -11 -18 11 -23 28
-6 15 15 22 8 17 -19 -1 -5 3 -6 9 -2 6 3 8 10 5 15 -3 4 5 6 17 2 16 -4 19
-2 13 9 -5 8 1 6 12 -4 16 -14 23 -15 29 -6 5 8 3 10 -7 4 -8 -5 -10 -4 -6 0
15 17 39 14 32 -3 -5 -15 -4 -15 12 0 13 12 23 14 36 7 12 -7 17 -6 17 3 0 9
3 9 10 -2 6 -10 10 -11 10 -2 0 6 7 12 16 12 8 0 12 -4 9 -10 -3 -6 1 -7 9 -4
9 3 14 9 12 13 -3 4 11 5 30 3 30 -4 33 -2 28 14 -5 18 -5 18 6 1 9 -14 15
-16 26 -6 11 9 14 8 14 -2 0 -11 2 -11 10 1 5 8 10 11 11 5 0 -5 4 -1 9 10 8
18 9 18 9 2 1 -14 6 -17 22 -12 12 4 27 8 33 9 6 1 17 6 25 10 10 7 12 6 6 -4
-5 -8 -3 -11 6 -8 8 3 13 10 12 16 -3 12 30 10 39 -3 4 -6 8 -1 9 10 l0 20 9
-20 c5 -11 9 -14 9 -6z m-3499 -135 c0 -2 -9 0 -20 6 -11 6 -20 13 -20 16 0 2
9 0 20 -6 11 -6 20 -13 20 -16z m5590 -618 c0 -2 -8 -10 -17 -17 -16 -13 -17
-12 -4 4 13 16 21 21 21 13z m-3595 -56 c3 -6 -1 -7 -9 -4 -18 7 -21 14 -7 14
6 0 13 -4 16 -10z"/>
<path d="M7871 9563 c0 -10 3 -13 5 -6 3 7 12 9 20 6 8 -3 14 0 14 6 0 6 -9
11 -20 11 -13 0 -20 -6 -19 -17z"/>
<path d="M7220 9271 c0 -7 -4 -9 -10 -6 -6 4 -7 -1 -3 -11 6 -15 7 -15 15 1 6
9 7 19 4 22 -3 4 -6 1 -6 -6z"/>
<path d="M4945 9080 c-3 -6 1 -7 9 -4 18 7 21 14 7 14 -6 0 -13 -4 -16 -10z"/>
<path d="M5660 8460 c-9 -6 -10 -10 -3 -10 6 0 15 5 18 10 8 12 4 12 -15 0z"/>
<path d="M1550 7840 c-19 -5 -48 -10 -65 -13 -169 -26 -306 -90 -408 -189 -96
-95 -120 -146 -123 -258 -5 -149 52 -324 167 -516 10 -17 15 -34 11 -38 -4 -4
-1 -6 7 -4 8 2 19 -7 26 -18 6 -12 16 -28 23 -36 6 -8 9 -18 5 -21 -3 -4 2 -7
12 -7 10 0 16 -3 13 -6 -3 -3 16 -27 43 -54 27 -27 49 -53 49 -59 0 -5 10 -13
21 -16 17 -6 19 -9 8 -16 -10 -6 -8 -9 9 -9 13 0 20 -4 17 -10 -3 -5 -1 -10 5
-10 6 0 8 -5 4 -12 -6 -10 -4 -10 8 0 14 11 17 10 22 -5 3 -10 16 -23 28 -28
13 -6 22 -16 21 -23 -2 -7 3 -11 10 -9 6 1 11 -4 9 -12 -2 -8 3 -11 12 -8 38
15 45 -50 30 -263 -20 -275 -7 -514 40 -750 22 -108 24 -119 30 -128 3 -5 7
-22 10 -38 21 -119 196 -592 266 -720 22 -39 37 -74 35 -78 -3 -3 -2 -4 2 -1
3 3 16 -11 28 -31 29 -48 24 -69 -64 -289 -163 -405 -221 -662 -216 -965 1
-93 7 -154 19 -195 20 -68 62 -152 88 -176 10 -9 15 -19 11 -23 -3 -3 -1 -6 6
-6 7 0 9 -5 5 -12 -4 -6 -3 -8 3 -5 12 7 44 -28 35 -39 -4 -4 -2 -4 5 0 6 3
18 -3 26 -14 7 -11 17 -17 20 -13 4 3 7 1 7 -6 0 -7 4 -9 10 -6 5 3 10 -1 10
-9 0 -9 9 -16 20 -16 11 0 20 -5 20 -11 0 -6 7 -9 15 -6 8 4 17 1 21 -5 5 -7
2 -8 -6 -3 -9 5 -11 4 -6 -4 6 -9 11 -9 22 0 9 7 14 8 13 3 -4 -21 2 -35 11
-29 6 4 18 1 27 -7 12 -9 15 -9 9 0 -4 6 -2 12 3 12 6 0 11 -8 11 -17 0 -14 2
-15 9 -4 6 9 10 10 12 2 6 -16 41 -21 56 -9 7 6 15 3 22 -9 9 -16 13 -16 31
-5 12 8 19 9 15 3 -3 -6 2 -11 12 -11 11 0 25 -6 32 -12 11 -11 12 -10 6 1 -6
11 -3 13 12 9 11 -3 27 -1 36 3 10 6 18 5 23 -2 5 -8 3 -9 -6 -4 -9 6 -11 4
-5 -5 6 -10 11 -10 20 3 7 9 15 14 18 11 3 -3 16 0 29 7 20 10 21 10 11 -2 -9
-11 -7 -14 12 -14 15 0 20 4 15 10 -6 7 1 11 22 10 20 0 33 6 35 15 4 13 3 13
-6 0 -7 -10 -11 -11 -11 -2 0 6 -7 12 -16 12 -9 0 -12 -5 -8 -12 4 -7 3 -8 -5
-4 -15 10 -4 26 17 26 37 0 42 17 6 18 -97 4 -194 30 -254 67 -36 23 -95 75
-86 75 3 0 -4 11 -15 24 -12 13 -20 27 -19 31 1 4 -4 11 -11 15 -7 5 -13 16
-14 27 0 10 -9 30 -19 46 -16 23 -16 30 -5 44 10 11 10 14 2 9 -7 -4 -13 -2
-13 3 0 20 -2 26 -11 38 -7 7 -6 14 2 18 8 6 7 10 -2 16 -11 7 -11 9 1 9 13 0
13 1 0 10 -13 9 -13 10 0 10 12 0 13 2 1 9 -16 10 -21 83 -6 93 6 5 6 8 -2 8
-7 0 -13 5 -13 11 0 5 5 7 11 3 7 -4 7 1 -1 16 -9 18 -9 24 0 30 9 5 9 9 1 14
-6 4 -11 12 -11 17 0 6 6 7 13 3 8 -5 8 -2 -2 9 -12 15 -11 17 5 17 16 0 17 2
4 10 -19 12 -19 41 0 58 8 8 10 11 4 8 -7 -3 -14 3 -17 14 -3 11 -1 18 3 15 5
-3 11 -1 15 5 3 5 0 10 -7 10 -9 0 -9 3 2 10 8 5 11 10 7 10 -4 0 -3 8 2 18 6
11 6 24 0 35 -7 12 -6 17 2 17 7 0 4 7 -7 15 -19 14 -19 14 1 11 16 -3 21 1
21 17 0 12 -5 25 -10 29 -7 5 -6 8 2 8 7 0 11 4 8 9 -3 5 1 14 9 21 12 10 13
16 4 26 -9 11 -8 14 1 14 9 0 9 4 -1 17 -12 14 -12 16 0 8 11 -6 13 -4 8 8 -3
10 -2 17 4 17 6 0 7 4 4 10 -3 5 2 22 12 37 12 19 14 25 4 18 -11 -6 -13 -4
-8 9 4 10 7 22 7 27 0 6 6 7 13 3 7 -5 6 0 -3 11 -13 17 -13 18 1 13 13 -5 16
-2 12 12 -3 10 0 21 7 25 8 5 7 11 -2 23 -7 9 -8 13 -2 9 7 -4 18 1 25 10 12
14 12 16 0 9 -10 -7 -12 -3 -6 15 4 13 11 26 14 29 4 3 6 17 6 32 -1 23 2 25
14 15 12 -10 13 -9 2 11 -9 17 -9 22 0 20 7 -2 15 6 17 17 2 11 9 23 16 27 7
5 7 8 -3 8 -11 0 -11 3 -1 15 6 8 8 20 4 26 -4 7 -3 9 3 6 6 -4 13 0 16 7 3 8
1 17 -6 20 -7 2 -1 5 12 5 24 1 24 1 5 16 -18 14 -18 14 4 10 20 -4 22 -2 12
10 -7 9 -8 15 -2 15 5 0 13 7 16 16 5 12 3 14 -7 8 -7 -5 -6 -2 3 6 9 9 14 22
12 29 -3 10 0 11 9 5 11 -6 10 -3 -1 11 -8 10 -10 16 -5 13 6 -3 15 0 22 7 10
11 10 15 0 18 -8 4 -8 6 2 6 11 1 11 4 1 16 -11 13 -10 14 3 10 8 -4 18 -1 23
6 5 8 3 10 -7 4 -11 -7 -12 -6 -2 6 7 9 14 25 16 36 4 28 27 54 39 47 6 -4 5
3 -1 15 -10 18 -9 21 6 21 10 0 14 4 8 8 -5 4 -11 13 -13 21 -3 12 -1 12 14 0
12 -9 15 -9 10 -1 -4 7 -2 12 6 12 9 0 9 3 -2 10 -13 8 -8 14 11 12 3 -1 5 10
3 24 -1 15 5 29 18 38 12 9 17 19 13 27 -5 7 -1 18 10 26 11 7 15 13 10 13 -5
0 0 7 11 16 10 8 13 12 6 9 -11 -6 -12 -3 -3 12 6 11 7 23 3 27 -3 4 1 4 9 1
15 -6 29 16 33 50 1 6 7 14 14 18 6 4 12 17 12 29 0 14 5 18 16 14 9 -3 12 -2
9 5 -4 5 -1 17 7 26 11 14 11 16 -2 9 -8 -4 -5 1 7 12 16 14 19 22 11 30 -8 8
-4 10 13 6 13 -2 19 -2 12 2 -7 3 -9 12 -6 20 3 7 10 11 16 7 5 -3 7 -1 3 5
-3 6 2 18 11 28 9 9 19 26 20 38 2 11 11 27 20 34 9 6 13 12 7 12 -5 0 -3 4 4
9 7 4 14 17 15 29 1 16 4 18 14 11 9 -8 11 -6 8 10 -2 12 0 21 6 21 5 0 9 6 9
14 0 8 5 18 12 22 7 5 8 3 3 -6 -5 -9 -4 -11 4 -6 9 6 9 11 -1 24 -10 12 -10
14 0 8 7 -4 15 -1 18 8 3 9 11 13 18 9 6 -4 6 0 -2 9 -14 17 -1 35 17 24 5 -4
7 3 4 14 -3 12 0 20 6 20 7 0 9 -5 5 -12 -5 -7 -3 -8 5 -4 7 5 10 11 7 14 -3
3 2 15 11 26 14 16 14 18 3 11 -9 -6 -5 -1 7 11 13 11 22 27 20 35 -2 8 -2 11
0 7 8 -14 25 -8 20 6 -6 15 33 17 44 3 3 -5 15 -10 25 -11 10 -2 18 -8 17 -14
-1 -6 5 -9 15 -7 9 1 19 -1 22 -4 3 -3 19 -16 36 -28 24 -17 34 -19 44 -10 7
7 10 8 8 2 -7 -13 11 -29 37 -33 11 -2 28 -11 38 -20 9 -8 20 -12 24 -9 3 4
12 -1 20 -11 8 -9 12 -11 8 -5 -4 9 -1 11 9 7 9 -3 13 -11 9 -17 -4 -6 0 -8
10 -4 11 4 17 1 17 -7 0 -7 -51 -118 -114 -247 -63 -129 -144 -306 -181 -394
-133 -317 -274 -789 -300 -1000 -3 -27 -8 -62 -11 -77 -10 -52 -12 -283 -3
-362 13 -114 45 -243 78 -312 15 -32 28 -63 29 -67 1 -4 15 -21 32 -37 16 -15
30 -36 30 -47 0 -15 2 -16 10 -3 8 13 10 13 10 -2 0 -9 9 -20 20 -23 11 -3 20
-11 20 -16 0 -5 7 -9 15 -9 9 0 27 -11 41 -25 25 -25 40 -33 29 -15 -3 6 1 7
9 4 9 -3 13 -11 9 -18 -4 -6 2 -4 12 4 10 8 16 10 12 4 -4 -7 0 -15 9 -18 10
-4 13 -2 9 7 -4 6 1 3 9 -7 9 -11 16 -14 16 -7 0 7 5 9 10 6 6 -4 8 -10 5 -15
-3 -4 5 -6 17 -2 16 4 19 2 13 -9 -8 -12 -6 -12 8 0 13 10 17 10 17 1 0 -9 4
-9 17 1 9 8 14 9 10 3 -4 -7 3 -14 18 -16 13 -3 22 -1 19 3 -3 5 -1 9 5 9 5 0
15 -8 20 -17 10 -17 10 -17 11 1 0 18 1 18 20 1 18 -16 20 -16 26 -1 3 9 10
14 14 11 21 -13 72 -12 77 2 4 11 8 10 20 -4 8 -10 12 -13 9 -7 -3 7 3 14 14
17 13 3 18 1 13 -6 -5 -8 -2 -8 8 0 12 10 18 10 29 0 10 -10 11 -9 5 2 -6 11
-3 13 13 9 14 -4 19 -2 16 6 -3 7 2 13 10 13 8 0 13 -4 10 -9 -3 -4 0 -8 5 -8
6 0 11 4 11 8 0 4 14 13 31 19 27 11 29 10 17 -4 -12 -15 -11 -15 10 -4 12 7
20 17 17 24 -4 7 0 4 8 -6 14 -16 15 -16 20 4 5 18 9 20 21 10 12 -10 16 -9
25 6 8 14 10 15 11 3 0 -13 2 -13 9 -1 5 8 18 12 30 8 12 -3 19 -1 15 4 -3 5
0 9 6 9 7 0 9 8 5 19 -6 19 8 26 95 55 27 8 -34 6 -75 -3 -69 -16 -157 -23
-250 -22 -209 2 -338 44 -425 137 -23 24 -38 44 -34 44 4 0 -1 7 -12 15 -10 8
-15 15 -11 15 5 0 2 7 -7 15 -8 9 -12 23 -9 32 4 11 3 14 -5 9 -8 -4 -12 0
-12 11 0 11 -6 25 -12 32 -7 8 -8 11 -2 8 6 -3 11 0 11 8 0 8 -4 12 -8 10 -9
-6 -16 15 -14 42 1 12 -2 20 -6 18 -4 -3 -10 2 -13 11 -3 8 -2 12 4 9 6 -3 10
-1 10 4 0 6 -4 11 -10 11 -5 0 -7 7 -4 15 4 9 0 15 -7 15 -11 0 -11 3 1 10 12
8 12 10 1 10 -11 0 -11 3 0 17 8 10 9 14 2 10 -7 -5 -12 -1 -12 10 0 10 -2 31
-4 46 -3 20 -1 27 9 23 8 -3 11 0 7 9 -3 8 -10 12 -16 8 -5 -3 -7 -1 -4 4 9
14 47 24 47 12 0 -5 6 -9 14 -9 8 0 17 -6 19 -12 4 -10 6 -10 6 0 1 7 12 1 27
-15 15 -15 21 -20 14 -10 -11 15 -10 17 4 11 9 -3 16 -11 16 -16 0 -6 7 -8 14
-5 10 4 13 1 10 -8 -4 -10 0 -13 16 -10 15 3 24 -3 30 -18 5 -13 9 -16 10 -7
0 9 3 11 8 5 4 -5 16 -17 26 -25 16 -12 18 -12 11 -1 -5 10 -4 12 3 7 7 -4 12
-15 13 -24 0 -11 3 -12 6 -4 2 6 9 12 15 12 6 0 8 -7 5 -14 -4 -10 -1 -13 9
-9 8 3 22 -3 30 -13 9 -11 13 -12 9 -4 -4 8 1 6 9 -4 12 -15 16 -16 16 -5 0
11 2 11 9 1 4 -7 17 -14 29 -15 11 0 18 -5 15 -11 -4 -5 1 -7 10 -3 15 6 21
-2 19 -24 -1 -3 12 -3 29 -1 23 3 29 1 29 -14 0 -15 2 -16 9 -5 6 9 11 10 15
2 4 -6 12 -8 18 -5 7 5 8 2 3 -6 -6 -10 -3 -12 12 -8 22 6 56 -9 49 -21 -3 -4
8 -6 25 -5 19 1 29 -3 29 -12 0 -8 6 -11 15 -8 8 4 15 2 15 -2 0 -5 14 -10 32
-11 17 -1 35 -8 40 -15 4 -7 8 -8 8 -3 0 6 7 1 15 -9 13 -18 15 -18 15 -3 0
16 2 16 27 0 15 -10 24 -12 20 -5 -5 6 -4 12 2 12 6 0 11 -7 11 -15 0 -8 5
-15 11 -15 5 0 7 5 4 10 -10 16 2 12 21 -7 10 -11 29 -16 51 -15 24 2 32 -1
27 -9 -5 -8 -2 -9 12 -1 13 7 24 6 43 -7 14 -9 22 -11 18 -4 -6 9 -3 11 7 7 9
-3 14 -9 11 -13 -2 -4 2 -8 10 -8 8 0 12 4 9 9 -3 4 -1 8 5 8 5 0 12 -6 14
-12 4 -10 6 -10 6 0 1 10 5 10 17 -2 16 -17 39 -22 30 -7 -3 4 6 6 19 3 14 -2
25 -8 25 -13 0 -5 5 -9 11 -9 5 0 8 3 5 8 -5 9 63 7 87 -3 10 -4 25 -2 35 6
13 10 12 8 -3 -11 l-20 -24 28 17 c15 10 27 14 26 10 -3 -20 2 -27 10 -14 7
11 13 12 23 3 11 -9 17 -9 26 0 7 7 12 8 12 2 0 -5 9 -10 20 -11 11 -1 18 2
15 7 -6 10 14 8 32 -3 6 -4 14 -1 16 5 4 10 6 10 6 1 1 -7 6 -13 12 -13 5 0 7
5 4 10 -4 6 3 8 17 6 13 -3 27 -5 31 -5 5 -1 5 -6 1 -13 -5 -7 -3 -8 5 -4 7 5
10 15 7 25 -5 14 -4 14 7 -1 11 -14 16 -15 27 -5 7 7 10 7 7 1 -3 -6 0 -11 8
-11 8 0 12 4 9 9 -3 4 -1 8 5 8 5 0 12 -6 14 -12 4 -10 8 -9 16 2 10 13 11 13
11 0 0 -13 1 -13 10 0 8 12 10 12 10 1 0 -10 3 -11 14 -2 10 8 16 9 21 1 4 -7
12 -7 26 0 14 8 19 7 19 -2 0 -9 3 -9 10 2 9 13 11 13 20 0 6 -10 10 -11 10
-3 0 15 21 13 32 -2 5 -6 8 -5 8 3 0 6 12 12 26 12 17 0 23 -4 18 -12 -5 -9
-2 -9 9 1 9 7 17 10 17 5 0 -5 5 -2 10 6 6 9 10 11 10 3 0 -7 7 -10 15 -7 8 4
12 11 8 18 -4 6 0 6 9 -2 13 -10 17 -10 21 0 4 10 6 10 6 -1 1 -11 4 -11 17 0
13 10 17 10 24 -1 7 -12 12 -11 28 3 10 9 22 14 25 10 10 -10 57 -10 57 0 0 4
4 6 9 3 5 -4 12 0 14 6 4 9 6 9 6 -1 1 -11 5 -10 16 5 15 19 15 19 9 -1 -5
-18 -4 -18 8 -3 11 12 18 14 32 6 14 -8 17 -7 12 1 -5 7 2 11 19 11 14 0 24 3
22 8 -3 4 12 6 34 6 25 -1 37 2 32 9 -4 6 0 8 10 4 10 -3 17 -2 17 4 0 6 9 5
23 -2 20 -11 21 -11 9 4 -11 13 -11 15 0 13 7 -1 19 -6 27 -10 8 -5 12 -5 9 0
-3 5 0 14 7 21 11 10 14 10 18 0 3 -9 8 -9 20 2 9 7 24 11 32 7 9 -3 13 -2 10
3 -3 5 -1 12 5 16 5 3 10 1 10 -5 0 -6 5 -8 10 -5 6 4 7 12 3 18 -4 8 -2 8 9
-1 13 -10 17 -10 22 3 3 9 10 13 16 10 6 -4 7 -12 3 -18 -4 -7 1 -6 11 2 9 8
14 21 11 29 -4 12 -3 12 9 3 11 -9 15 -9 19 1 4 9 6 9 6 -2 1 -11 7 -8 20 9
14 18 20 21 26 11 6 -9 4 -11 -5 -5 -9 5 -11 4 -6 -4 6 -9 11 -9 22 0 7 6 12
15 9 19 -3 5 0 12 6 16 8 4 9 3 5 -4 -5 -8 1 -11 18 -10 15 1 26 7 26 12 0 5
3 7 6 3 3 -3 18 5 32 18 15 14 30 21 35 16 14 -14 49 0 42 17 -4 12 -3 13 10
2 12 -10 15 -10 15 0 0 7 7 10 15 6 8 -3 15 -1 15 5 0 6 5 7 10 4 6 -3 10 -2
10 3 0 6 12 13 27 17 21 5 24 8 12 16 -20 12 -2 11 23 -2 15 -8 19 -8 14 0 -5
7 5 14 24 18 22 4 28 8 18 14 -9 6 -3 9 17 10 17 1 33 1 37 0 4 0 4 7 1 17 -3
9 -3 14 2 10 4 -4 14 0 22 10 12 16 13 16 6 -2 -4 -13 -3 -17 5 -12 7 4 12 15
13 24 0 10 3 12 6 5 3 -10 7 -10 18 0 7 7 10 17 7 22 -3 6 2 3 12 -4 16 -13
17 -13 14 5 -2 13 2 18 15 16 9 -2 17 2 17 8 0 6 4 9 9 5 5 -3 12 -1 16 5 4 6
11 7 17 4 7 -4 8 -2 4 4 -4 7 -2 12 4 12 6 0 8 5 4 12 -5 9 -2 9 9 -1 17 -13
18 -13 21 12 0 6 7 13 14 13 6 1 17 2 23 3 5 0 7 6 3 13 -5 8 -2 9 10 5 10 -4
15 -3 11 3 -3 6 4 10 17 10 18 0 20 2 8 10 -13 8 -12 10 3 10 12 0 16 4 11 13
-4 6 -4 9 1 5 12 -11 45 11 45 30 0 15 2 15 10 2 7 -11 10 -11 10 -2 0 7 5 10
10 7 6 -4 10 -3 9 2 -4 23 2 32 18 26 10 -4 14 -2 10 4 -4 6 5 14 21 18 15 4
21 10 15 12 -7 3 -13 9 -13 14 0 6 5 7 10 4 6 -3 10 -1 10 6 0 8 4 8 16 -1 8
-8 14 -9 13 -4 -4 23 2 35 14 28 7 -5 6 0 -3 11 -8 10 -10 16 -3 12 13 -8 45
2 39 12 -2 3 8 17 22 31 14 14 20 17 13 8 -9 -12 -10 -18 -2 -18 6 0 13 11 17
25 3 14 12 25 20 25 13 0 18 12 15 32 0 4 6 5 15 1 9 -3 14 0 12 8 -2 9 4 13
16 11 10 -2 15 1 12 7 -3 5 1 16 9 24 8 9 15 20 15 26 0 5 5 13 12 17 7 5 8 3
3 -7 -8 -12 -6 -12 8 0 9 7 15 17 12 21 -3 5 4 11 15 15 11 4 18 11 15 16 -4
5 4 13 17 18 13 6 17 10 8 11 -9 0 -6 6 10 15 16 9 19 15 10 15 -9 1 -7 5 8
12 13 6 21 17 18 24 -3 8 0 11 10 7 14 -5 20 12 7 20 -5 2 -2 2 4 1 15 -4 35
30 25 41 -4 5 0 6 10 2 22 -8 30 3 15 21 -8 10 -8 13 -1 9 7 -4 15 0 18 9 3 8
10 12 16 9 5 -3 7 0 4 9 -3 9 3 19 16 26 12 6 18 16 13 23 -4 7 2 5 12 -3 11
-9 16 -10 11 -2 -8 13 -4 14 62 14 23 0 42 4 42 9 0 5 5 9 11 9 5 0 8 -4 5 -8
-3 -5 2 -9 10 -9 8 0 13 6 10 13 -4 10 1 11 19 4 20 -8 25 -6 25 6 0 8 5 12
10 9 6 -4 8 -11 5 -16 -3 -5 1 -6 9 -3 9 3 14 9 12 13 -2 3 7 7 20 7 15 1 21
-2 17 -10 -4 -6 1 -5 10 3 10 8 29 11 44 8 25 -5 26 -4 10 8 -16 11 -13 13 21
10 25 -1 39 2 39 10 0 8 -14 11 -41 9 l-41 -3 35 10 c19 6 38 14 42 17 4 4
-91 7 -210 8 -202 1 -479 11 -519 18 -10 2 -49 7 -88 10 -38 4 -81 9 -95 11
-14 2 -45 7 -70 10 -25 3 -56 8 -70 10 -14 3 -41 7 -60 10 -90 14 -159 26
-200 35 -25 6 -54 12 -65 14 -283 56 -888 231 -1255 363 -249 89 -638 251
-900 374 -390 182 -947 473 -1182 618 -14 9 -48 29 -75 45 -209 126 -540 361
-649 461 -6 5 -33 28 -60 50 -56 46 -130 112 -191 170 -23 22 -50 47 -60 56
-37 32 -219 230 -226 245 -1 3 -21 27 -44 52 -23 25 -40 48 -38 51 3 2 -4 10
-15 18 -11 8 -20 20 -20 28 0 7 -4 15 -8 17 -12 4 -72 95 -72 107 0 6 -3 11
-8 11 -4 0 -13 15 -21 33 -8 17 -19 35 -25 40 -8 5 -7 10 2 16 11 6 9 9 -7 14
-16 4 -20 12 -18 45 2 35 0 39 -13 29 -8 -6 -12 -8 -8 -3 4 5 3 18 -3 29 -7
12 -7 17 -1 13 5 -3 13 1 16 10 3 8 2 12 -4 9 -6 -3 -11 6 -11 22 -1 15 -2 40
-3 54 -1 18 2 25 11 22 15 -6 6 27 -11 40 -7 6 -4 7 7 3 13 -4 17 0 17 19 0
14 6 25 13 25 8 0 7 4 -3 10 -12 7 -12 10 -1 10 7 0 11 6 7 15 -3 8 0 14 7 12
7 -1 12 6 12 15 0 10 9 25 19 35 10 10 15 12 11 4 -6 -10 -4 -12 4 -7 9 6 9
11 0 22 -7 9 -8 14 -3 13 22 -4 32 2 37 22 3 12 10 18 16 15 6 -4 16 2 23 14
7 11 18 20 25 20 12 0 18 14 14 34 -1 5 6 3 15 -5 10 -8 15 -9 11 -2 -7 11 16
31 36 31 5 0 12 4 15 8 4 4 1 4 -5 0 -7 -4 -13 -2 -13 5 0 6 8 9 18 7 13 -4
18 1 20 16 0 11 -2 16 -6 11 -8 -11 -32 -18 -32 -9 0 3 10 14 23 25 12 10 20
18 17 18 -3 -1 -21 -5 -40 -9z m580 -1981 c0 -5 6 -7 13 -3 6 4 9 4 5 -1 -5
-5 1 -15 12 -22 11 -8 18 -19 15 -24 -4 -5 3 -9 14 -9 12 0 21 -5 21 -11 0 -5
5 -7 10 -4 6 3 10 -1 10 -10 0 -9 5 -13 10 -10 6 3 10 -1 10 -10 0 -9 4 -14 8
-11 13 8 53 -24 46 -36 -4 -7 -2 -8 4 -4 6 4 22 1 34 -6 13 -7 27 -11 32 -10
5 2 3 -4 -4 -13 -11 -13 -10 -15 2 -10 9 4 22 0 29 -8 8 -8 22 -13 32 -11 15
2 16 0 5 -14 -8 -10 -8 -13 -1 -9 17 11 66 -11 57 -25 -5 -8 -2 -9 10 -5 10 4
19 1 23 -9 5 -13 7 -13 14 -2 7 10 9 9 9 -5 0 -10 4 -16 9 -12 5 3 16 -1 24
-9 8 -8 17 -12 21 -9 20 20 0 -20 -34 -67 -84 -117 -156 -229 -206 -315 -50
-87 -74 -113 -74 -81 0 9 -4 16 -8 16 -8 0 -10 6 -14 49 -1 11 -6 17 -10 15
-7 -4 -10 10 -7 32 0 4 -4 10 -11 14 -6 4 -12 17 -13 28 -1 12 -5 22 -9 22 -4
0 -8 5 -8 11 0 5 6 7 13 3 6 -4 5 1 -4 12 -9 10 -15 27 -14 37 2 9 0 17 -5 17
-4 0 -10 9 -13 20 -3 11 -1 18 4 14 5 -3 6 2 3 10 -3 9 -11 16 -16 16 -6 0 -8
7 -5 15 4 8 3 17 -2 19 -4 3 -7 21 -6 41 0 19 -2 35 -5 35 -3 0 -7 12 -8 27
-1 15 -6 31 -12 37 -6 6 -5 14 2 24 7 8 8 16 2 20 -5 4 -10 31 -11 60 0 29 -6
58 -11 65 -6 7 -7 18 -2 26 5 9 3 22 -3 33 -9 14 -9 20 1 27 11 7 10 9 -3 15
-9 3 -13 10 -10 16 8 13 25 13 25 -1z m1407 -779 c20 -1 56 -24 48 -32 -3 -3
5 -4 19 -3 17 2 23 -1 20 -10 -4 -8 3 -11 20 -10 18 2 26 -2 26 -11 0 -9 4
-13 9 -9 5 3 17 -2 25 -11 12 -11 16 -12 16 -2 0 10 2 10 9 -1 5 -7 14 -11 20
-7 7 5 9 1 5 -8 -3 -9 -1 -16 5 -16 6 0 11 5 11 12 0 6 7 3 15 -8 8 -10 15
-15 15 -11 0 5 7 1 16 -7 8 -9 20 -14 25 -11 5 4 9 1 9 -4 0 -6 11 -11 25 -11
13 0 29 -8 34 -17 6 -10 11 -14 11 -9 0 5 10 1 22 -10 12 -10 18 -13 14 -6 -4
6 -2 12 3 12 6 0 11 -6 11 -12 0 -10 2 -10 9 0 6 11 9 9 13 -6 4 -15 12 -19
32 -15 19 4 26 1 26 -9 0 -10 8 -14 25 -13 14 2 25 -1 25 -7 0 -6 7 -7 16 -4
8 3 12 2 9 -4 -3 -6 -2 -10 4 -10 5 0 12 6 14 13 3 7 6 5 6 -5 1 -11 9 -19 21
-19 11 -1 25 -3 30 -4 6 -1 15 -3 21 -4 5 0 7 -6 3 -13 -5 -8 0 -9 14 -6 12 4
20 2 16 -3 -3 -5 4 -9 15 -9 11 0 23 -5 26 -11 4 -6 13 -8 21 -5 8 3 14 -1 14
-9 0 -8 5 -15 11 -15 5 0 7 5 4 11 -4 6 2 5 13 -2 12 -7 19 -16 17 -19 -2 -4
2 -7 10 -7 8 0 12 5 8 10 -3 5 6 2 19 -7 14 -9 28 -13 31 -9 4 3 7 1 7 -6 0
-7 5 -9 10 -6 6 3 10 1 10 -5 0 -6 5 -8 10 -5 6 3 10 1 10 -5 0 -6 4 -9 9 -6
5 3 14 0 20 -8 6 -7 23 -13 37 -13 15 0 30 -6 34 -13 5 -7 17 -10 30 -7 17 4
19 3 9 -9 -10 -12 -9 -13 5 -8 29 11 17 -14 -55 -124 -105 -156 -277 -362
-434 -516 -88 -87 -88 -87 -170 -71 -38 7 -90 16 -115 20 -36 5 -266 52 -390
80 -15 3 -19 2 -9 -2 9 -5 15 -16 13 -25 -1 -10 2 -20 6 -23 5 -3 7 4 5 15 -4
22 -4 23 19 14 9 -3 13 -11 9 -17 -3 -6 -1 -7 6 -3 16 10 51 -3 51 -19 0 -7 7
-16 16 -19 14 -5 15 -4 4 9 -11 13 -10 14 4 9 9 -3 16 -14 16 -23 0 -14 2 -14
10 -1 6 10 10 11 10 3 0 -7 5 -13 11 -13 5 0 7 5 3 12 -4 7 -3 8 5 4 6 -4 9
-11 6 -16 -3 -5 -1 -11 5 -15 5 -3 10 -1 10 4 0 6 5 11 11 11 5 0 7 -5 3 -12
-5 -8 -2 -9 10 -5 14 6 17 3 12 -8 -4 -11 -2 -14 7 -8 22 14 37 12 38 -5 0
-10 3 -12 5 -5 3 7 12 9 20 6 7 -3 12 -8 9 -12 -2 -4 2 -8 10 -8 8 0 11 5 8
11 -4 6 4 2 17 -9 13 -11 20 -14 16 -7 -4 6 -2 12 3 12 6 0 11 -7 11 -15 0 -8
5 -15 11 -15 6 0 7 6 2 13 -4 6 5 4 20 -6 26 -17 27 -17 28 0 0 16 1 15 8 -2
5 -11 13 -21 20 -21 6 -1 13 -3 16 -4 13 -7 31 -5 43 3 8 7 12 5 12 -7 0 -19
11 -21 28 -4 8 8 12 8 12 1 0 -6 7 -14 16 -17 8 -3 13 -2 10 3 -4 5 3 7 14 4
11 -3 20 -10 20 -17 0 -6 5 -4 10 4 8 12 10 12 10 1 0 -11 3 -11 15 -1 9 7 18
10 22 6 3 -3 0 -6 -8 -6 -11 0 -11 -2 1 -10 19 -12 33 -13 26 -2 -3 5 1 9 9 9
8 0 12 -4 10 -8 -7 -11 20 -18 36 -9 7 5 18 5 24 0 6 -5 24 -11 40 -14 17 -2
31 -5 33 -6 1 -2 5 -3 10 -4 4 -1 13 -5 20 -9 7 -5 12 -5 11 0 -3 19 2 27 10
15 4 -7 24 -14 44 -15 20 -1 37 -6 37 -11 0 -5 3 -6 6 -3 4 3 16 2 27 -4 15
-9 18 -8 12 2 -6 9 -3 10 8 6 10 -4 24 -10 34 -14 12 -5 14 -3 9 8 -4 8 -1 6
7 -3 11 -14 16 -15 27 -5 10 10 11 9 5 -2 -6 -11 -4 -13 10 -7 24 9 57 -2 48
-17 -3 -7 3 -4 15 7 20 17 22 17 28 2 3 -9 10 -16 16 -16 5 0 7 4 4 8 -3 5 1
9 9 9 8 0 15 -7 16 -16 0 -11 2 -12 6 -3 4 10 9 9 24 -4 16 -14 19 -15 24 -2
3 8 16 13 28 12 12 -1 26 -3 30 -3 5 -1 5 -7 1 -13 -5 -9 -2 -9 9 1 14 11 17
11 18 0 0 -12 1 -12 6 0 5 11 7 11 14 0 7 -12 9 -11 9 1 0 13 1 13 10 0 8 -13
10 -13 10 -1 0 11 4 9 15 -5 8 -10 15 -14 14 -9 -3 22 2 29 10 16 8 -13 12
-13 27 0 10 8 15 9 11 2 -4 -6 -3 -14 2 -17 5 -3 12 1 15 9 5 14 8 14 31 -1
18 -11 25 -13 25 -4 0 9 4 9 17 -1 11 -9 14 -10 9 -2 -9 15 72 7 92 -10 9 -7
11 -5 6 9 -6 16 -5 17 7 7 16 -16 33 -17 23 -2 -5 8 -2 9 12 1 12 -7 25 -7 36
-1 14 8 16 6 11 -8 -6 -15 -4 -16 8 -6 13 11 43 12 84 3 23 -5 36 1 28 13 -4
7 3 6 17 -4 32 -21 56 -14 38 9 -7 10 1 6 16 -8 16 -14 26 -20 23 -14 -4 7 2
14 12 17 15 3 18 1 14 -11 -5 -11 -3 -13 8 -6 8 4 19 9 25 10 6 1 22 5 35 8
13 3 18 3 12 0 -7 -3 -13 -10 -13 -15 0 -6 8 -5 20 1 11 6 20 7 20 3 0 -4 5
-2 11 4 6 6 20 8 31 5 25 -6 -103 -63 -221 -98 -47 -13 -87 -27 -90 -31 -3 -3
3 -3 13 1 12 4 26 0 38 -11 18 -16 72 -28 63 -13 -2 4 9 7 25 7 17 0 30 -5 30
-11 0 -6 5 -3 11 7 7 12 17 16 30 12 11 -4 27 -1 36 7 14 11 16 11 8 -2 -5 -9
1 -7 15 5 13 11 20 14 16 8 -4 -7 -2 -13 3 -13 6 0 11 5 11 11 0 8 4 8 14 0
10 -9 16 -8 26 4 7 8 23 13 36 11 18 -4 22 -1 17 12 -3 9 -2 14 2 9 5 -4 18 1
29 10 20 17 20 17 7 1 -16 -22 -2 -23 25 -3 24 18 38 19 28 3 -5 -9 -2 -8 10
1 13 11 14 16 4 22 -7 5 -8 9 -2 9 6 0 14 -3 18 -7 14 -15 37 -10 51 10 10 15
15 17 15 7 0 -13 2 -13 10 0 5 8 10 11 10 5 0 -5 7 1 15 15 13 23 14 23 15 5
1 -11 4 -14 7 -7 2 6 9 10 14 6 5 -3 9 3 9 13 0 15 2 16 10 3 9 -14 14 -7 11
13 -1 4 8 3 20 -4 15 -8 19 -8 15 0 -4 6 -2 11 4 11 6 0 8 5 4 12 -4 6 -3 8 4
4 6 -3 13 -2 17 4 3 5 12 10 18 10 7 0 6 -4 -3 -10 -8 -5 -12 -10 -9 -10 10 0
69 31 69 36 0 3 -5 2 -12 -2 -7 -4 -8 -3 -4 5 5 8 12 9 19 2 13 -10 61 22 49
33 -3 4 1 4 10 1 18 -7 61 28 50 41 -4 5 1 2 11 -5 9 -7 18 -11 18 -7 1 3 2
10 3 15 0 5 5 13 10 18 5 4 6 3 2 -4 -11 -20 10 -23 24 -3 11 16 17 17 29 7
12 -10 13 -9 2 10 -10 20 -9 22 5 16 12 -4 15 -3 10 5 -5 8 -1 10 10 5 12 -5
15 -3 9 6 -6 10 -3 11 15 1 15 -8 20 -8 16 -1 -4 6 1 14 11 18 10 4 26 15 35
26 10 11 22 16 29 11 8 -4 9 -3 5 4 -4 7 -1 12 7 12 8 0 21 8 28 17 12 14 12
16 0 8 -10 -5 -12 -4 -7 4 6 9 11 9 24 -1 10 -8 13 -9 9 -1 -4 6 -3 14 3 18 6
4 8 10 5 15 -3 4 3 6 14 3 12 -3 24 3 33 16 8 12 18 18 23 13 4 -4 5 2 1 12
-6 17 -5 17 11 5 15 -12 16 -12 10 3 -4 13 -2 15 11 11 14 -6 15 -4 4 9 -10
13 -9 15 13 10 18 -3 25 0 25 11 0 9 9 19 20 22 11 4 18 11 15 16 -4 5 1 9 10
9 10 0 13 -5 9 -12 -5 -7 -3 -8 5 -4 7 5 10 15 7 25 -5 14 -4 14 7 -1 11 -13
16 -15 25 -6 9 9 12 9 12 -1 0 -11 3 -11 15 -1 14 12 19 7 16 -13 -1 -5 3 -6
8 -2 6 3 8 13 5 23 -5 15 -4 15 6 -1 6 -9 15 -15 21 -12 5 4 9 2 9 -2 0 -36
-306 -288 -480 -395 -323 -200 -639 -336 -900 -387 -30 -6 -66 -14 -80 -16
-57 -12 -203 -33 -290 -42 -96 -10 -474 -10 -565 0 -438 48 -835 185 -1205
415 -145 91 -202 134 -297 226 -85 82 -102 108 -84 129 6 8 6 18 1 27 -11 17
-3 32 13 24 7 -3 3 2 -7 10 -11 9 -14 16 -8 16 7 0 12 6 12 14 0 8 6 17 13 19
9 4 9 8 -1 15 -11 7 -10 10 3 16 15 5 15 9 4 23 -8 9 -9 14 -3 10 7 -4 15 0
18 9 3 9 2 12 -4 9 -6 -4 -1 10 10 30 20 36 28 63 10 35 -5 -8 -10 -10 -10 -5
1 17 26 45 34 37 4 -4 7 -2 6 3 -6 30 1 66 12 59 6 -4 8 -3 4 4 -3 6 -2 13 2
16 5 3 8 17 6 32 -2 18 2 24 11 20 9 -3 12 2 10 16 -3 12 3 27 13 35 11 10 12
12 2 8 -8 -4 -6 1 4 9 15 12 16 16 5 16 -10 1 -9 3 4 11 9 6 15 14 12 19 -3 5
-1 11 5 15 6 4 8 11 5 16 -4 5 0 12 9 15 9 3 12 12 9 21 -4 10 -2 14 4 10 6
-4 9 3 7 18 -1 16 2 23 9 18 7 -4 8 0 4 11 -4 9 -3 14 2 11 5 -3 12 -1 16 5 3
5 0 10 -7 10 -8 1 -6 6 6 15 11 8 16 20 12 30 -3 9 -2 13 4 10 6 -3 10 2 10
12 0 15 2 16 10 3 5 -8 10 -10 10 -4 0 5 -5 15 -12 22 -8 8 -8 12 -1 12 6 0
18 12 28 26 9 15 12 24 7 20 -6 -3 -14 -1 -18 5 -4 7 -3 9 3 6 15 -9 33 15 35
46 2 21 5 24 17 14 12 -10 13 -9 2 10 -10 19 -9 22 3 17 11 -4 14 0 11 15 -2
12 1 21 7 21 5 0 8 7 4 15 -3 9 0 15 10 15 9 0 12 -5 8 -12 -4 -7 -3 -10 1 -5
5 4 9 16 10 27 1 16 -1 18 -14 7 -10 -7 -9 -3 3 10 10 13 23 20 29 16 7 -4 8
1 4 13 -6 16 -4 15 12 -3 11 -13 27 -23 38 -23z m1363 -560 c24 -13 24 -12 10
6 -14 18 -14 18 6 2 14 -13 23 -15 31 -7 8 8 13 7 18 -2 5 -8 4 -10 -3 -5 -7
4 -12 2 -12 -3 0 -6 8 -11 18 -11 10 0 24 -6 31 -12 11 -11 12 -10 6 2 -8 13
-6 13 7 2 9 -7 20 -12 24 -10 5 1 26 -6 48 -15 21 -9 42 -14 47 -11 5 3 12 -1
15 -9 3 -9 13 -13 25 -10 10 3 19 1 19 -5 0 -5 13 -9 29 -8 17 1 28 -1 25 -5
-2 -4 3 -9 11 -13 8 -3 15 0 16 7 0 9 2 9 6 0 2 -7 18 -13 34 -13 16 0 29 -4
29 -9 0 -5 11 -8 25 -6 15 1 25 -3 25 -11 0 -7 4 -16 10 -19 5 -3 7 0 4 8 -3
8 1 14 10 14 8 0 12 -5 9 -10 -4 -6 0 -8 10 -4 10 3 17 2 17 -2 0 -5 9 -7 20
-4 11 3 20 1 20 -5 0 -5 9 -12 20 -15 13 -3 18 -1 13 6 -3 7 4 3 16 -8 19 -16
24 -17 31 -5 6 9 10 10 10 4 0 -7 7 -15 16 -18 8 -3 12 -2 9 4 -3 6 1 7 9 4 9
-3 16 -11 16 -17 0 -8 3 -8 11 0 12 12 34 8 58 -11 19 -15 42 -17 34 -3 -3 7
6 1 21 -13 22 -19 26 -21 20 -6 -7 18 -6 18 22 0 17 -11 25 -14 20 -5 -5 8 2
6 20 -5 22 -14 27 -15 19 -3 -5 8 -3 7 7 -3 12 -13 18 -15 21 -6 4 9 6 8 6 -3
1 -8 -20 -42 -46 -75 -107 -135 -113 -144 -97 -137 13 5 15 2 10 -18 -6 -20
-5 -21 4 -6 6 9 9 21 6 26 -6 10 24 25 32 16 3 -3 0 -5 -7 -5 -7 0 -9 -5 -6
-10 4 -6 1 -19 -5 -28 -7 -9 -1 -4 14 11 14 15 26 22 26 15 0 -7 6 -2 13 12 7
14 23 26 36 28 15 3 21 8 17 18 -3 8 -2 13 3 10 5 -3 14 1 21 9 7 8 16 12 21
10 9 -6 35 35 31 48 -1 5 2 6 8 2 8 -5 7 -12 -2 -23 -12 -15 -11 -16 5 -3 10
8 16 20 13 28 -4 9 -1 11 6 7 6 -4 17 1 25 11 13 19 48 31 37 13 -4 -6 1 -8
15 -3 14 4 21 2 22 -7 0 -7 4 -4 9 7 7 16 9 17 9 3 1 -12 7 -15 23 -10 16 4
19 2 13 -9 -7 -12 -6 -12 7 -1 11 9 18 10 23 2 4 -7 12 -7 25 0 13 7 21 7 26
-2 5 -7 3 -8 -6 -3 -9 5 -11 4 -6 -4 5 -7 12 -9 19 -3 17 12 70 7 75 -7 3 -9
7 -9 18 0 11 9 18 9 26 1 16 -16 31 -15 22 1 -4 6 3 3 16 -8 23 -19 23 -19 16
-1 -6 19 -6 19 12 3 22 -20 36 -22 26 -4 -6 9 -5 9 8 0 17 -15 56 -19 79 -9
81 34 -79 -127 -215 -219 -77 -51 -117 -67 -196 -78 -87 -13 -246 -38 -260
-42 -8 -2 -44 -7 -80 -10 -36 -4 -72 -8 -80 -10 -8 -2 -44 -6 -80 -9 -36 -4
-87 -9 -115 -12 -72 -7 -325 -7 -425 0 -123 9 -237 15 -390 21 -74 4 -148 7
-165 9 -145 15 -226 27 -323 48 -45 10 -50 13 -35 22 18 10 23 12 42 15 5 0
12 10 16 21 3 11 12 19 18 17 7 -1 11 4 9 12 -3 12 0 12 13 1 13 -11 14 -10 9
5 -5 12 -4 16 3 12 6 -4 14 0 17 9 3 8 10 12 16 9 6 -3 14 4 19 17 6 14 10 17
11 8 1 -9 5 -6 10 8 5 12 21 27 35 32 14 5 25 17 25 27 0 15 2 16 10 3 9 -13
14 -7 11 13 0 4 6 7 15 7 8 0 12 5 9 10 -3 6 -1 10 5 10 6 0 8 4 5 10 -3 6 1
7 9 4 11 -4 16 0 16 11 0 9 9 19 20 22 23 6 25 14 8 33 -11 12 -10 12 5 1 12
-10 17 -10 17 -2 0 7 4 10 9 7 5 -3 12 6 15 20 4 15 10 24 13 21 3 -3 12 0 19
8 17 17 18 29 2 19 -8 -4 -10 -3 -5 2 5 5 13 10 18 10 5 1 14 2 20 3 5 0 7 6
3 13 -5 7 -2 9 8 5 10 -3 15 0 14 11 0 9 6 17 14 17 8 0 15 7 15 15 0 8 5 15
12 15 6 0 15 4 20 9 5 5 3 6 -4 2 -7 -4 -13 -2 -13 3 0 6 7 11 15 11 8 0 15 7
15 16 0 8 5 12 10 9 6 -3 10 3 10 14 0 11 4 23 10 26 6 4 7 -1 3 -12 -3 -10
-4 -16 -2 -13 36 43 42 52 29 45 -9 -5 -8 0 4 14 15 16 21 18 28 9 4 -7 8 -8
8 -2 0 5 -6 16 -12 23 -10 11 -10 13 0 7 7 -5 12 -1 12 10 0 14 3 14 16 4 8
-8 14 -9 13 -4 -3 19 1 29 9 18 4 -6 18 -17 32 -24z m-699 -623 c-10 -9 -11
-8 -5 6 3 10 9 15 12 12 3 -3 0 -11 -7 -18z m-251 -71 c0 -3 -4 -8 -10 -11 -5
-3 -10 -1 -10 4 0 6 5 11 10 11 6 0 10 -2 10 -4z m34 -14 c3 -5 -1 -9 -9 -9
-8 0 -12 4 -9 9 3 4 7 8 9 8 2 0 6 -4 9 -8z m813 -154 c-3 -8 -6 -5 -6 6 -1
11 2 17 5 13 3 -3 4 -12 1 -19z m1138 -47 c3 -5 2 -12 -3 -15 -5 -3 -9 1 -9 9
0 17 3 19 12 6z m-228 -83 c-3 -8 -6 -5 -6 6 -1 11 2 17 5 13 3 -3 4 -12 1
-19z m-179 -23 c4 -5 -1 -5 -11 -2 -11 4 -24 4 -30 0 -20 -13 -36 -12 -48 3
-10 12 -5 14 35 11 26 -3 50 -8 54 -12z m-598 -589 c0 -3 -4 -8 -10 -11 -5 -3
-10 -1 -10 4 0 6 5 11 10 11 6 0 10 -2 10 -4z m-1195 -226 c-3 -5 -11 -10 -16
-10 -6 0 -7 5 -4 10 3 6 11 10 16 10 6 0 7 -4 4 -10z m-468 -105 c0 -8 -4 -12
-9 -9 -5 3 -6 10 -3 15 9 13 12 11 12 -6z"/>
<path d="M6630 3969 c0 -5 5 -7 10 -4 6 3 10 8 10 11 0 2 -4 4 -10 4 -5 0 -10
-5 -10 -11z"/>
<path d="M3530 3946 c0 -2 7 -9 15 -16 13 -11 14 -10 9 4 -5 14 -24 23 -24 12z"/>
<path d="M6266 4168 c3 -4 9 -8 15 -8 5 0 9 4 9 8 0 5 -7 9 -15 9 -8 0 -12 -4
-9 -9z"/>
<path d="M5905 4100 c-3 -6 1 -7 9 -4 18 7 21 14 7 14 -6 0 -13 -4 -16 -10z"/>
<path d="M5846 4062 c-3 -5 1 -9 9 -9 8 0 12 4 9 9 -3 4 -7 8 -9 8 -2 0 -6 -4
-9 -8z"/>
<path d="M4365 4020 c-3 -6 1 -7 9 -4 18 7 21 14 7 14 -6 0 -13 -4 -16 -10z"/>
<path d="M1290 7391 c0 -6 4 -13 10 -16 6 -3 7 1 4 9 -7 18 -14 21 -14 7z"/>
<path d="M1541 7011 c-7 -5 -9 -15 -5 -27 10 -26 55 -86 76 -102 10 -7 18 -20
18 -28 0 -8 5 -12 10 -9 6 3 10 1 10 -5 0 -6 5 -8 10 -5 6 3 10 -2 11 -12 0
-11 3 -13 6 -5 2 6 9 10 14 6 5 -3 9 0 9 6 0 6 5 8 11 4 27 -16 -15 38 -84
108 -46 48 -78 73 -86 69z"/>
<path d="M1883 6667 c-39 -12 -40 -16 -10 -47 12 -14 21 -28 20 -32 -2 -5 4
-8 13 -8 8 0 12 -4 9 -10 -4 -6 1 -7 11 -3 11 4 15 3 10 -5 -3 -6 3 -13 14
-17 11 -4 18 -11 15 -16 -4 -5 3 -9 15 -9 12 0 18 -4 15 -10 -3 -5 -1 -10 5
-10 6 0 24 -13 40 -30 16 -16 34 -30 39 -30 5 0 11 -4 13 -9 2 -5 10 -11 18
-13 8 -2 18 -7 22 -13 4 -6 8 -2 8 9 0 15 3 16 14 7 11 -9 17 -8 29 3 8 8 17
13 20 10 3 -3 4 2 3 12 -2 16 -72 71 -266 212 -20 15 -31 17 -57 9z"/>
<path d="M2510 6400 c0 -5 5 -10 11 -10 5 0 7 5 4 10 -3 6 -8 10 -11 10 -2 0
-4 -4 -4 -10z"/>
<path d="M2408 6267 c-59 -19 -70 -30 -42 -41 9 -4 14 -13 10 -22 -3 -8 -2
-13 2 -10 11 7 72 -31 72 -44 0 -6 4 -9 9 -6 5 3 11 -1 15 -9 3 -8 12 -12 21
-9 10 4 15 2 13 -7 -2 -8 3 -13 10 -11 6 1 12 -5 12 -13 0 -9 6 -12 15 -9 8 4
17 -1 21 -10 3 -9 12 -16 18 -16 7 0 22 -9 34 -20 12 -11 23 -20 26 -20 3 0
27 -13 55 -29 36 -22 51 -26 54 -17 3 8 17 12 32 11 21 -3 25 0 21 12 -5 13
-4 14 9 3 11 -9 15 -9 15 -1 0 7 5 9 10 6 6 -3 10 -1 10 4 0 6 5 11 11 11 5 0
7 -4 4 -10 -3 -5 0 -7 8 -4 7 2 14 11 14 19 0 8 -4 12 -9 9 -4 -3 -8 1 -8 10
0 8 -42 37 -97 67 -54 29 -136 76 -183 104 -123 76 -117 74 -182 52z"/>
<path d="M3117 5859 c-43 -10 -86 -23 -94 -28 -14 -7 -13 -10 5 -15 12 -4 22
-12 22 -17 0 -6 -5 -7 -12 -3 -7 4 -8 3 -4 -5 4 -6 11 -9 16 -6 5 3 19 -5 31
-17 12 -13 18 -16 14 -8 -6 10 -2 9 13 -3 11 -11 26 -16 31 -12 6 3 11 -1 11
-9 0 -9 7 -13 19 -11 14 3 18 -1 14 -11 -3 -10 0 -12 10 -9 8 4 22 -1 31 -10
9 -9 16 -13 16 -9 0 5 5 3 11 -3 6 -6 18 -9 27 -6 10 4 13 2 8 -5 -5 -8 0 -12
14 -12 11 0 23 -7 27 -16 5 -13 7 -13 14 -2 7 10 9 9 9 -5 0 -10 5 -15 10 -12
6 3 10 0 10 -7 0 -9 3 -9 10 2 8 13 10 12 10 -2 0 -12 8 -18 23 -18 12 0 33
-9 47 -20 14 -11 33 -20 43 -20 10 0 15 -5 12 -10 -4 -6 -3 -10 2 -9 24 4 43
-2 37 -13 -5 -7 0 -9 14 -6 12 4 26 0 33 -8 6 -8 18 -14 26 -14 8 0 11 -5 7
-12 -5 -7 -1 -9 13 -6 14 4 30 -3 47 -19 14 -13 26 -21 26 -18 0 3 10 1 21 -6
18 -9 24 -8 31 5 5 9 16 16 23 16 8 0 15 6 15 13 0 8 4 7 10 -3 8 -13 10 -12
10 3 0 9 7 17 16 17 9 0 12 5 8 13 -5 8 -2 8 9 -2 15 -12 17 -11 17 2 0 11 5
14 17 10 11 -4 14 -3 9 5 -4 7 -1 12 8 12 9 0 16 5 16 11 0 5 4 8 9 4 5 -3 13
0 17 6 4 8 3 9 -4 5 -7 -4 -12 -2 -12 4 0 6 -5 8 -12 4 -9 -6 -9 -3 1 9 12 15
10 18 -15 27 -170 62 -332 127 -496 196 -109 46 -203 84 -210 83 -7 0 -48 -9
-91 -20z"/>
<path d="M8625 5760 c-3 -5 -1 -10 4 -10 6 0 11 5 11 10 0 6 -2 10 -4 10 -3 0
-8 -4 -11 -10z"/>
<path d="M8565 5670 c-3 -5 -1 -10 4 -10 6 0 11 5 11 10 0 6 -2 10 -4 10 -3 0
-8 -4 -11 -10z"/>
<path d="M4194 5466 c-17 -14 -63 -47 -102 -74 -57 -39 -69 -52 -59 -61 8 -6
17 -9 20 -6 4 3 5 2 2 -1 -7 -11 41 -44 64 -44 12 0 21 -4 21 -10 0 -5 7 -6
17 -3 11 4 14 3 9 -6 -4 -6 -4 -10 1 -9 4 1 19 -4 32 -11 19 -11 22 -11 15 1
-6 10 -5 11 8 1 8 -7 18 -10 21 -6 4 3 7 1 7 -5 0 -6 9 -9 20 -7 12 2 24 -4
31 -16 8 -17 13 -18 25 -8 8 7 14 8 13 3 -4 -21 2 -24 23 -13 18 10 20 9 15
-5 -4 -10 -3 -14 2 -11 5 3 13 0 17 -6 4 -8 9 -7 15 2 6 10 9 11 9 2 0 -7 9
-13 20 -13 11 0 20 -5 20 -11 0 -5 5 -7 11 -4 6 4 17 -1 25 -11 9 -11 13 -13
9 -6 -4 7 0 12 10 12 8 0 20 -10 25 -22 7 -20 9 -20 9 -4 1 14 4 16 14 7 8 -6
17 -8 20 -4 4 3 7 -2 7 -13 0 -16 2 -17 10 -4 8 12 10 12 11 -5 0 -11 3 -14 6
-7 6 15 33 16 33 1 0 -5 -5 -7 -12 -3 -6 4 -8 3 -5 -3 3 -5 22 -8 42 -7 20 2
33 -1 30 -5 -2 -5 4 -11 16 -14 14 -4 18 -2 12 7 -4 6 -1 4 9 -6 19 -21 33
-24 22 -5 -6 10 -4 10 7 0 7 -7 23 -13 36 -13 13 0 23 -5 23 -11 0 -8 6 -7 17
2 15 12 16 12 10 -4 -6 -15 -4 -16 15 -6 17 9 18 13 7 21 -10 7 -8 8 7 3 16
-4 23 0 27 15 4 14 10 18 23 13 9 -3 15 -2 12 3 -6 8 15 35 27 34 35 -1 40 1
25 10 -14 9 -13 11 10 14 5 0 17 11 26 24 9 14 22 21 31 18 8 -3 11 -2 8 3 -3
6 1 13 8 18 7 4 17 17 20 27 7 16 5 17 -8 6 -13 -11 -16 -11 -13 1 2 8 7 17
12 20 5 4 -36 17 -90 29 -206 46 -455 111 -609 160 -87 27 -161 50 -165 50 -3
0 -19 -11 -36 -24z"/>
<path d="M5335 5134 c-38 -36 -99 -88 -133 -117 l-64 -52 29 -12 c15 -7 22
-12 14 -13 -19 0 -5 -13 18 -17 10 -1 31 -8 47 -14 16 -7 37 -11 48 -10 12 2
16 -2 11 -9 -6 -9 -2 -9 15 0 13 7 20 8 16 2 -3 -6 -2 -13 4 -17 5 -3 10 0 10
7 0 10 2 10 9 -1 11 -17 39 -23 47 -10 3 5 10 7 15 3 5 -3 7 -9 4 -13 -2 -5 7
-6 22 -3 15 3 23 1 20 -4 -3 -6 9 -9 26 -9 18 1 46 -4 63 -11 21 -9 34 -10 41
-3 7 7 16 3 28 -13 11 -14 15 -16 12 -6 -4 10 -1 20 5 24 6 4 9 3 6 -2 -7 -11
17 -35 26 -26 4 3 13 7 22 8 13 2 13 0 2 -14 -10 -13 -10 -14 0 -8 7 4 20 2
28 -5 12 -10 13 -9 7 7 -6 17 -5 17 10 5 9 -7 17 -10 17 -5 0 4 6 0 13 -11 10
-13 16 -15 21 -6 6 9 11 9 24 -1 13 -11 15 -11 9 2 -5 9 -3 9 5 -2 11 -15 13
-15 25 0 12 16 12 15 7 -2 -6 -16 -4 -17 14 -7 17 9 21 9 16 -2 -4 -10 3 -13
27 -9 22 3 30 1 25 -7 -5 -8 0 -8 20 -1 23 9 25 8 20 -7 -6 -14 -4 -15 5 -6 6
6 18 9 25 6 8 -3 21 0 29 7 13 11 14 10 10 -3 -4 -8 -1 -18 6 -23 8 -4 10 -3
5 4 -4 7 -1 12 9 12 10 0 13 -5 9 -12 -5 -7 -3 -8 7 -2 21 13 39 14 39 1 0 -8
3 -8 11 0 8 8 20 7 44 -7 33 -18 33 -18 28 3 -3 15 -2 18 4 9 12 -16 44 -5 37
12 -3 7 3 19 12 27 16 12 17 12 9 -1 -8 -13 -7 -13 8 -1 14 11 15 16 5 29 -11
13 -11 14 0 8 9 -5 15 -1 19 13 3 11 10 18 16 14 6 -4 8 0 4 11 -4 10 -3 15 3
11 6 -3 13 2 17 12 10 25 29 43 38 35 5 -4 5 -2 2 5 -4 6 -1 18 7 26 11 10 12
17 4 25 -8 8 -4 9 13 6 19 -5 21 -4 9 5 -12 9 -11 11 9 11 21 0 22 2 10 17 -8
9 -9 14 -4 11 6 -4 16 5 22 19 12 25 12 25 -8 7 -20 -18 -20 -18 -10 9 10 25
9 27 -17 28 -15 0 -34 2 -42 3 -8 2 -49 6 -90 10 -41 3 -86 8 -100 10 -14 3
-68 10 -120 16 -52 6 -156 20 -230 30 -74 11 -155 22 -180 25 -50 6 -80 11
-159 25 -85 15 -92 13 -166 -56z"/>
<path d="M7764 5069 c-50 -8 -144 -17 -264 -25 -52 -3 -115 -7 -140 -9 -55 -5
-400 -5 -455 -1 -53 4 -136 8 -156 7 -9 -1 -38 -34 -64 -73 -27 -40 -81 -117
-121 -170 -59 -80 -70 -99 -57 -106 8 -5 14 -13 13 -18 -1 -5 4 -10 11 -13 8
-2 9 1 4 10 -5 8 4 3 19 -11 23 -21 26 -22 20 -5 -7 17 -5 18 8 8 8 -7 18 -10
22 -6 4 4 11 1 16 -7 7 -10 10 -11 10 -2 0 6 5 12 11 12 5 0 7 -6 3 -12 -5 -9
-2 -9 9 1 15 12 17 11 18 -5 0 -11 3 -13 6 -7 3 9 10 10 23 3 12 -7 20 -6 22
1 2 7 11 7 28 0 14 -5 19 -10 11 -10 -8 -1 -11 -4 -8 -7 4 -4 13 -1 21 5 10 8
16 9 21 1 4 -7 12 -7 25 0 15 8 21 6 29 -7 6 -10 11 -13 11 -8 0 16 70 13 70
-3 0 -10 5 -9 17 3 14 15 17 15 25 2 4 -8 16 -14 26 -12 9 2 17 4 17 5 0 1 17
3 37 4 27 1 34 -2 27 -10 -7 -8 -4 -11 8 -10 10 0 21 5 25 10 4 6 12 5 21 -2
17 -14 50 -5 40 11 -3 6 -1 7 6 3 6 -4 9 -12 6 -17 -4 -5 1 -9 10 -9 10 0 13
5 9 13 -4 6 2 4 13 -5 22 -20 33 -23 33 -7 0 5 -5 7 -12 3 -7 -4 -8 -3 -4 5 6
9 11 9 22 0 8 -6 14 -8 14 -3 0 4 5 3 12 -4 15 -15 28 -15 28 -1 0 5 -5 7 -12
3 -7 -4 -8 -3 -4 5 6 8 12 9 20 2 7 -6 16 -8 19 -4 4 3 7 1 7 -5 0 -8 7 -9 25
-2 18 7 25 6 25 -3 0 -8 4 -7 10 3 6 10 10 11 10 3 0 -7 5 -13 11 -13 5 0 8 4
5 8 -3 5 1 9 9 9 8 0 15 -4 15 -9 0 -5 5 -6 11 -2 21 12 54 10 67 -6 10 -11
11 -11 6 -1 -5 11 -3 13 9 8 9 -3 19 -2 22 3 4 6 12 10 18 10 7 0 6 -4 -3 -10
-12 -8 -10 -10 8 -10 16 0 21 4 16 13 -6 9 -5 9 7 0 11 -9 19 -9 26 -2 8 8 13
8 17 0 4 -6 12 -11 17 -11 6 0 7 5 4 10 -3 6 -1 10 5 10 6 0 8 5 5 10 -3 6 -1
10 4 10 6 0 11 -5 11 -12 0 -6 3 -8 6 -5 4 4 2 13 -5 21 -9 11 -8 15 4 19 8 4
12 13 9 22 -4 8 -1 15 6 15 8 0 11 9 8 25 -5 22 -3 24 11 13 9 -7 13 -8 9 -4
-4 5 0 15 10 23 9 8 11 12 5 8 -17 -8 -16 5 2 29 8 10 12 24 8 29 -4 6 0 8 9
4 12 -4 14 -1 11 13 -3 10 5 27 19 40 21 21 21 22 3 16 -20 -6 -20 -6 -1 9 11
8 16 15 10 15 -5 0 -1 5 9 11 9 5 17 21 17 34 0 13 5 27 11 30 6 4 8 13 5 20
-3 8 3 19 12 27 16 12 16 11 2 -7 -14 -18 -14 -19 2 -7 18 14 14 47 -5 35 -6
-4 -8 2 -4 16 5 19 2 21 -33 19 -21 -2 -55 -6 -76 -9z"/>
<path d="M2430 4689 c0 -5 5 -7 10 -4 6 3 10 8 10 11 0 2 -4 4 -10 4 -5 0 -10
-5 -10 -11z"/>
<path d="M7636 4573 c-6 -14 -5 -15 5 -6 7 7 10 15 7 18 -3 3 -9 -2 -12 -12z"/>
<path d="M5862 3138 c-7 -7 -12 -16 -12 -21 0 -5 7 -1 16 8 9 9 14 18 12 20
-2 3 -10 -1 -16 -7z"/>
<path d="M3800 2723 c-36 -7 -43 -18 -24 -34 15 -12 17 -12 9 0 -6 11 -4 13
11 7 10 -4 15 -4 11 0 -4 4 1 13 11 20 9 7 15 13 12 12 -3 0 -16 -3 -30 -5z"/>
<path d="M4709 2078 c-16 -10 -34 -30 -39 -44 -6 -15 -10 -245 -10 -585 l0
-559 105 0 105 0 0 253 c-1 464 -2 455 13 427 94 -178 356 -649 372 -668 26
-30 89 -35 126 -10 14 9 66 94 124 199 54 101 139 256 187 344 l88 160 0 -352
0 -353 105 0 105 0 0 560 c0 616 1 603 -60 635 -38 20 -91 11 -118 -18 -10
-12 -124 -212 -252 -444 -127 -233 -236 -421 -240 -418 -5 3 -32 49 -61 103
-29 53 -69 126 -89 162 -21 36 -51 90 -67 120 -164 308 -267 482 -292 495 -35
18 -65 16 -102 -7z"/>
<path d="M2850 1485 l0 -595 105 0 105 0 0 595 0 595 -105 0 -105 0 0 -595z"/>
<path d="M3759 2075 c-2 -2 -21 -6 -42 -9 -21 -3 -62 -16 -90 -28 -189 -80
-312 -244 -342 -457 -5 -37 -8 -375 -6 -633 l1 -58 103 0 104 0 1 128 c0 70 1
135 1 145 1 16 25 17 361 17 336 0 360 -1 361 -17 0 -10 1 -75 1 -145 l0 -128
104 0 104 0 -2 566 -3 566 -33 29 -33 30 -293 -1 c-162 -1 -295 -3 -297 -5z
m451 -214 c4 -1 4 -235 1 -423 l-1 -38 -360 0 c-281 0 -360 3 -361 13 -4 47 2
155 12 190 38 141 149 236 298 255 44 6 390 8 411 3z"/>
<path d="M6280 2067 c-55 -27 -55 -35 -55 -513 l1 -440 27 -57 c16 -31 48 -74
72 -95 79 -70 97 -72 541 -72 308 0 394 3 395 13 0 13 0 188 -1 197 0 3 -176
6 -390 6 -390 0 -390 0 -413 22 -22 22 -22 25 -24 372 -1 318 0 351 15 358 10
5 194 8 410 7 217 0 396 3 398 7 4 6 7 129 5 191 -1 16 -31 17 -478 17 -362 0
-484 -3 -503 -13z"/>
<path d="M7509 2065 c-50 -27 -51 -36 -51 -584 1 -469 2 -513 18 -540 10 -17
30 -35 45 -41 18 -8 132 -10 370 -8 332 4 346 4 402 27 131 52 235 162 279
296 21 63 23 89 23 260 0 221 -4 247 -49 340 -62 126 -144 198 -276 242 -62
21 -82 22 -400 22 -272 0 -340 -2 -361 -14z m696 -213 c69 -20 125 -68 157
-139 27 -60 28 -68 28 -219 0 -171 -8 -216 -52 -281 -34 -51 -84 -83 -152 -97
-40 -9 -407 -14 -506 -7 -13 1 -15 50 -15 374 0 204 3 374 7 377 14 11 493 3
533 -8z"/>
<path d="M7754 1797 c-23 -17 -23 -18 -21 -303 2 -273 3 -286 22 -301 16 -12
54 -14 215 -11 192 3 196 3 242 31 96 56 130 131 130 288 0 93 -3 114 -25 160
-28 61 -50 87 -99 117 -48 29 -93 35 -277 36 -143 1 -168 -1 -187 -17z m408
-121 c57 -38 72 -77 70 -179 -3 -112 -20 -154 -77 -182 -35 -18 -58 -20 -165
-19 -69 1 -130 2 -135 3 -7 1 -10 72 -9 199 1 108 2 198 3 200 0 2 64 2 141 1
125 -1 143 -3 172 -23z"/>
<path d="M953 2063 c3 -5 37 -75 77 -158 71 -147 139 -285 373 -767 l116 -238
110 0 c61 0 111 4 111 8 0 10 -110 251 -300 657 -23 50 -69 149 -102 220 -33
72 -76 165 -95 208 l-36 77 -129 0 c-71 0 -127 -3 -125 -7z"/>
<path d="M1634 2048 c3 -13 5 -37 5 -55 l1 -31 154 -1 153 -2 7 32 c3 17 6 42
6 55 l0 24 -165 0 -165 0 4 -22z"/>
<path d="M2341 2008 c-15 -35 -67 -146 -114 -248 -47 -102 -108 -234 -136
-293 -28 -60 -51 -110 -51 -112 0 -1 -25 -56 -56 -121 -31 -66 -67 -143 -80
-171 -13 -29 -35 -78 -49 -108 l-25 -55 114 0 114 0 30 63 c17 34 85 175 152
312 67 138 155 318 195 400 40 83 100 205 133 273 l61 122 -129 0 -130 0 -29
-62z"/>
<path d="M1656 1847 c7 -70 1 -67 144 -67 117 0 130 2 130 18 1 9 3 33 6 53
l5 36 -144 1 -145 1 4 -42z"/>
<path d="M1675 1702 c-4 -4 5 -84 10 -90 3 -3 216 -4 220 0 1 2 5 24 8 49 l6
46 -120 -1 c-66 0 -122 -2 -124 -4z"/>
<path d="M6521 1585 c-4 -5 -7 -55 -7 -110 l1 -99 315 -1 c173 0 321 1 328 3
13 5 18 211 5 213 -5 1 -149 2 -321 3 -202 1 -316 -2 -321 -9z"/>
<path d="M1694 1492 c3 -23 7 -46 10 -50 5 -9 171 -10 179 -2 3 3 7 25 8 50
l4 44 -103 1 -103 0 5 -43z"/>
<path d="M1714 1318 c4 -22 9 -45 12 -49 8 -13 128 -9 136 5 4 6 8 28 8 49 l0
37 -81 0 -82 0 7 -42z"/>
<path d="M1736 1181 c-2 -3 -1 -21 1 -39 5 -33 6 -33 57 -30 l51 3 3 37 2 38
-55 -1 c-31 -1 -57 -4 -59 -8z"/>
<path d="M1750 1013 c0 -20 5 -23 40 -23 29 0 40 4 40 15 0 8 1 18 3 23 1 4
-17 7 -40 7 -38 1 -43 -2 -43 -22z"/>
<path d="M1013 558 c-20 -26 -21 -46 -4 -62 32 -29 71 -13 71 29 0 39 -45 61
-67 33z"/>
<path d="M1304 494 c1 -44 -3 -78 -9 -80 -5 -2 -25 -5 -43 -8 -69 -10 -112
-58 -114 -128 -1 -91 47 -126 167 -124 l80 1 0 205 0 205 -41 3 -41 3 1 -77z
m0 -211 c0 -46 -3 -85 -6 -89 -4 -3 -16 -3 -27 1 -25 8 -48 50 -45 83 1 12 2
29 3 37 2 23 40 57 59 53 14 -3 17 -16 16 -85z"/>
<path d="M3933 558 c-20 -26 -21 -46 -4 -62 32 -29 71 -13 71 29 0 39 -45 61
-67 33z"/>
<path d="M4336 548 c-13 -19 -14 -25 -2 -43 26 -39 76 -26 76 19 0 46 -48 62
-74 24z"/>
<path d="M5996 548 c-13 -19 -14 -25 -2 -43 26 -39 76 -26 76 19 0 46 -48 62
-74 24z"/>
<path d="M6297 563 c-3 -5 -4 -36 -3 -71 1 -35 -1 -67 -4 -71 -3 -5 -21 -11
-41 -14 -77 -10 -119 -55 -119 -129 0 -94 43 -126 165 -124 l80 1 0 208 0 207
-37 0 c-20 0 -39 -3 -41 -7z m-3 -278 c-1 -47 -4 -88 -7 -91 -13 -13 -50 10
-62 39 -25 63 4 137 55 137 12 0 15 -15 14 -85z"/>
<path d="M8693 558 c-20 -26 -21 -46 -4 -62 32 -29 71 -13 71 29 0 39 -45 61
-67 33z"/>
<path d="M8984 494 c1 -44 -3 -78 -9 -80 -5 -2 -25 -5 -43 -8 -69 -10 -112
-58 -114 -128 -1 -91 47 -126 167 -124 l80 1 0 205 0 205 -41 3 -41 3 1 -77z
m0 -211 c0 -46 -3 -85 -6 -89 -4 -3 -16 -3 -27 1 -25 8 -48 50 -45 83 1 12 2
29 3 37 2 23 40 57 59 53 14 -3 17 -16 16 -85z"/>
<path d="M413 530 c-118 -53 -150 -222 -60 -318 73 -79 220 -81 287 -5 35 40
36 44 10 61 -17 10 -22 9 -36 -14 -38 -58 -110 -70 -154 -26 -34 35 -49 85
-43 148 7 79 33 113 93 121 35 5 43 2 76 -31 31 -31 39 -34 53 -24 9 7 18 13
20 15 2 1 -4 14 -13 28 -38 58 -154 81 -233 45z"/>
<path d="M5417 536 c-175 -64 -164 -328 15 -377 78 -21 158 -1 201 51 32 37
33 46 10 59 -14 7 -25 1 -55 -31 -35 -38 -40 -40 -78 -35 -22 3 -48 11 -56 18
-68 56 -63 228 8 265 42 22 90 11 123 -27 22 -27 28 -29 43 -18 9 7 19 14 21
16 2 1 -4 14 -13 28 -36 55 -141 79 -219 51z"/>
<path d="M1518 408 c-9 -7 -28 -53 -43 -103 -15 -50 -31 -100 -36 -113 -13
-34 -11 -42 12 -42 12 0 23 8 26 20 4 16 14 20 48 20 34 0 44 -4 48 -20 4 -16
14 -20 46 -20 26 0 41 5 41 13 -1 22 -69 229 -81 243 -14 17 -40 18 -61 2z
m31 -155 c1 -19 -4 -23 -28 -23 l-28 0 15 56 16 57 12 -34 c7 -19 13 -44 13
-56z"/>
<path d="M1724 409 c-4 -7 -8 -68 -9 -136 -1 -119 0 -123 20 -123 20 0 21 5
20 78 0 42 1 81 4 86 2 5 19 -30 36 -79 l32 -88 26 69 c15 38 31 80 36 94 7
19 10 3 10 -67 l1 -93 43 0 43 0 -1 126 c-1 133 -5 144 -52 144 -29 0 -46 -19
-63 -69 -7 -22 -16 -41 -19 -41 -3 0 -17 24 -31 53 -22 45 -29 52 -57 55 -17
2 -35 -2 -39 -9z"/>
<path d="M2103 405 c-82 -35 -85 -178 -6 -232 39 -27 100 -28 141 -3 77 48 73
173 -7 227 -38 26 -81 29 -128 8z m91 -57 c15 -35 12 -124 -5 -145 -29 -34
-57 -2 -63 70 -5 50 16 107 39 107 9 0 22 -14 29 -32z"/>
<path d="M4118 398 c-12 -21 -77 -224 -78 -240 0 -17 39 -6 45 12 9 29 90 29
98 0 4 -16 14 -20 46 -20 23 0 41 4 41 9 0 20 -70 234 -81 247 -18 22 -57 17
-71 -8z m37 -125 c7 -42 6 -43 -23 -43 l-29 0 15 56 c17 59 25 56 37 -13z"/>
<path d="M6507 408 c-13 -11 -87 -222 -87 -250 0 -18 42 -7 47 12 4 16 14 20
48 20 34 0 44 -4 48 -20 4 -16 14 -20 46 -20 26 0 41 5 41 13 -1 22 -69 229
-81 243 -14 17 -40 18 -62 2z m27 -134 c3 -13 7 -28 11 -34 6 -10 -47 -15 -57
-5 -2 3 2 28 11 55 13 43 17 47 23 30 4 -12 10 -32 12 -46z"/>
<path d="M6710 411 c-11 -8 -14 -37 -15 -135 0 -121 0 -126 20 -126 19 0 21 6
20 81 0 44 2 82 5 84 3 2 19 -32 34 -76 16 -43 31 -79 35 -79 3 0 21 39 38 88
l32 87 0 -92 1 -93 43 0 42 0 0 126 c-1 133 -5 144 -51 144 -26 0 -48 -24 -65
-72 -7 -21 -15 -38 -19 -38 -3 1 -16 24 -30 53 -26 54 -56 70 -90 48z"/>
<path d="M7088 405 c-82 -45 -74 -197 12 -243 37 -20 119 -8 148 21 50 50 47
140 -6 196 -31 32 -44 38 -82 39 -25 1 -57 -5 -72 -13z m92 -40 c17 -21 18
-138 1 -159 -34 -41 -65 0 -64 86 1 77 31 112 63 73z"/>
<path d="M9198 408 c-9 -7 -28 -53 -43 -103 -15 -50 -31 -100 -36 -113 -13
-34 -11 -42 12 -42 12 0 23 8 26 20 4 16 14 20 48 20 34 0 44 -4 48 -20 4 -16
14 -20 46 -20 26 0 41 5 41 13 -1 22 -69 229 -81 243 -14 17 -40 18 -61 2z
m31 -155 c1 -19 -4 -23 -28 -23 l-28 0 15 56 16 57 12 -34 c7 -19 13 -44 13
-56z"/>
<path d="M727 403 c-2 -5 -3 -50 -1 -101 1 -65 6 -99 18 -117 28 -43 124 -45
162 -3 15 16 20 40 22 124 4 100 3 104 -17 104 -14 0 -21 -7 -22 -20 0 -11 0
-50 -1 -87 0 -76 -10 -103 -37 -103 -34 0 -44 27 -44 120 l0 90 -38 0 c-21 0
-40 -3 -42 -7z"/>
<path d="M999 403 c-1 -10 -1 -224 0 -240 1 -8 16 -13 41 -13 l40 0 0 130 0
130 -40 0 c-22 0 -40 -3 -41 -7z"/>
<path d="M2361 394 c-26 -18 -40 -63 -30 -92 6 -15 27 -31 59 -45 79 -33 76
-67 -7 -67 -36 0 -43 -3 -43 -20 0 -18 7 -20 55 -20 87 0 125 29 125 96 0 30
-41 74 -68 74 -24 0 -49 27 -36 40 5 5 25 10 44 12 23 2 35 8 35 18 0 20 -106
23 -134 4z"/>
<path d="M2720 390 c0 -16 7 -20 33 -20 l34 0 -1 -110 -2 -110 43 0 42 0 0 83
c0 145 -3 135 33 139 21 2 32 9 34 21 2 15 -9 17 -107 17 -102 0 -109 -1 -109
-20z"/>
<path d="M2987 403 c-9 -18 1 -191 12 -211 25 -47 113 -57 158 -18 27 23 28
28 31 130 4 102 3 106 -17 106 -19 0 -21 -6 -22 -72 -1 -40 -1 -79 0 -85 3
-22 -19 -53 -37 -53 -34 0 -42 21 -42 117 l0 93 -39 0 c-22 0 -42 -3 -44 -7z"/>
<path d="M3277 398 c-25 -14 -45 -60 -38 -88 4 -18 21 -32 58 -50 82 -39 80
-70 -4 -70 -36 0 -43 -3 -43 -20 0 -18 7 -20 55 -20 65 0 99 14 114 47 26 56
8 97 -56 124 -53 23 -52 42 3 49 26 3 39 10 39 20 0 11 -14 15 -56 16 -31 1
-63 -3 -72 -8z"/>
<path d="M3644 388 c3 -13 9 -36 14 -53 6 -16 18 -57 28 -90 20 -70 38 -95 69
-95 35 0 52 29 79 127 13 50 27 101 31 112 5 17 2 21 -15 21 -11 0 -22 -6 -24
-12 -3 -7 -12 -40 -21 -73 -30 -107 -30 -107 -56 -7 l-24 92 -42 0 c-40 0 -43
-2 -39 -22z"/>
<path d="M3919 403 c-1 -10 -1 -235 0 -245 1 -5 19 -8 41 -8 l41 0 -2 130 -1
130 -39 0 c-21 0 -39 -3 -40 -7z"/>
<path d="M4328 254 c-3 -164 -3 -163 -50 -178 -12 -3 -15 -11 -11 -22 5 -13
16 -15 60 -12 29 3 59 10 66 17 8 8 13 66 15 181 l3 170 -40 0 -40 0 -3 -156z"/>
<path d="M4499 394 c-18 -22 -18 -206 0 -228 10 -12 32 -16 87 -16 67 0 74 2
74 20 0 17 -7 20 -45 20 -45 0 -45 0 -45 35 0 34 1 35 38 35 31 0 38 4 39 20
2 17 -4 20 -38 20 -38 0 -39 1 -39 34 0 34 1 35 43 38 29 2 42 8 42 18 0 23
-137 27 -156 4z"/>
<path d="M4733 395 c-30 -21 -44 -67 -30 -95 13 -24 23 -31 74 -50 35 -13 51
-39 31 -52 -7 -4 -32 -8 -55 -8 -36 0 -43 -3 -43 -20 0 -18 7 -20 55 -20 65 0
99 14 114 47 26 56 9 94 -55 122 -54 24 -54 44 2 51 28 4 39 10 40 23 2 14 -7
17 -55 17 -34 0 -65 -6 -78 -15z"/>
<path d="M5715 312 c1 -54 7 -108 14 -120 26 -50 117 -57 161 -14 26 27 28 33
29 130 2 97 1 102 -19 102 -11 0 -20 -3 -21 -7 0 -5 -1 -46 -2 -93 -2 -92 -8
-110 -36 -110 -34 0 -44 26 -43 120 l1 90 -43 0 -42 0 1 -98z"/>
<path d="M5989 360 c-1 -27 -1 -57 -1 -65 0 -8 0 -44 1 -80 l1 -65 40 0 40 0
0 130 0 130 -40 0 -40 0 -1 -50z"/>
<path d="M7346 388 c-32 -27 -38 -78 -12 -106 9 -11 34 -24 55 -31 41 -12 61
-39 39 -53 -7 -4 -32 -8 -55 -8 -36 0 -43 -3 -43 -20 0 -18 7 -20 56 -20 72 0
112 22 120 68 9 49 -9 80 -62 102 -54 24 -54 43 2 50 26 3 39 10 39 20 0 11
-14 16 -56 18 -47 2 -61 -1 -83 -20z"/>
<path d="M7710 391 c0 -15 8 -20 33 -23 l32 -3 0 -105 0 -105 42 -3 41 -3 0
93 c0 138 -2 128 36 128 27 0 34 4 32 18 -3 15 -17 17 -109 20 -101 3 -107 2
-107 -17z"/>
<path d="M7977 403 c-9 -17 1 -190 12 -211 25 -47 113 -57 158 -18 27 23 28
28 31 130 4 102 3 106 -17 106 -12 0 -21 -3 -22 -7 0 -5 -1 -46 -2 -93 -3 -92
-8 -110 -36 -110 -34 0 -44 26 -43 120 l1 90 -39 0 c-21 0 -41 -3 -43 -7z"/>
<path d="M8400 404 c0 -24 65 -222 78 -236 8 -10 25 -18 37 -18 38 0 55 32 90
167 8 34 18 69 21 78 5 11 -1 15 -19 15 -21 0 -26 -6 -31 -37 -7 -36 -20 -85
-36 -127 -5 -14 -13 6 -31 72 l-24 92 -42 0 c-24 0 -43 -3 -43 -6z"/>
<path d="M8679 403 c-1 -10 -1 -224 0 -240 1 -8 16 -13 41 -13 l40 0 0 130 0
130 -40 0 c-22 0 -40 -3 -41 -7z"/>
<path d="M4968 221 c-8 -11 -15 -53 -16 -97 -2 -43 -5 -81 -8 -86 -3 -4 -1 -8
3 -8 10 0 85 124 95 157 13 45 -47 72 -74 34z"/>
</g>
</svg>
