<svg id="Capa_1" enable-background="new 0 0 512 512" height="512" viewBox="0 0 512 512" width="512" xmlns="http://www.w3.org/2000/svg"><g><g><path d="m499.851 311.949c-7.123-6.654-16.414-10.319-26.16-10.319-10.39 0-20.112 4.08-27.375 11.489l-49.024 49.991h-71.985c5.057-6.726 7.675-14.901 7.441-23.478-.554-20.062-17.622-36.383-38.047-36.383h-83.4c-7.199 0-14.194 1.49-20.795 4.431l-60.821 27.129h-27.593v-6.64c0-4.143-3.358-7.5-7.5-7.5h-31.14c-4.142 0-7.5 3.357-7.5 7.5s3.358 7.5 7.5 7.5h23.64v161.331h-72.08v-161.33h13.44c4.142 0 7.5-3.357 7.5-7.5s-3.358-7.5-7.5-7.5h-20.941c-4.142 0-7.5 3.357-7.5 7.5v176.33c0 4.143 3.358 7.5 7.5 7.5h87.08c4.142 0 7.5-3.357 7.5-7.5v-2.3h80.37c9.418 0 18.826-1.147 27.962-3.41l124.27-30.77c4.021-.996 6.473-5.062 5.478-9.083s-5.062-6.473-9.083-5.478l-124.27 30.77c-7.958 1.972-16.153 2.971-24.356 2.971h-80.37v-137.39h29.19c1.053 0 2.094-.222 3.055-.65l62.276-27.778c4.665-2.077 9.606-3.131 14.688-3.131h83.4c12.379 0 22.721 9.778 23.053 21.794.166 6.122-2.087 11.903-6.346 16.279-4.26 4.377-16.129 6.791-16.155 6.791h-57.028c-4.142 0-7.5 3.357-7.5 7.5s3.358 7.5 7.5 7.5l162.215-.004c2.015 0 3.944-.811 5.355-2.249l51.23-52.24c4.42-4.509 10.338-6.991 16.665-6.991 5.931 0 11.585 2.23 15.918 6.278 9.392 8.78 9.898 23.568 1.129 32.965l-49.859 53.419c-13.42 14.428-30.641 24.562-49.8 29.308l-26.02 6.44c-4.021.995-6.474 5.062-5.479 9.082.846 3.416 3.907 5.7 7.274 5.7.597 0 1.203-.072 1.808-.222l26.021-6.44c21.996-5.448 41.768-17.085 57.169-33.643l49.851-53.41c14.41-15.439 13.579-39.734-1.851-54.159z"/><path d="m306.52 285.72c78.773 0 142.86-64.087 142.86-142.859 0-32.966-11.542-65.147-32.499-90.616-2.631-3.196-7.358-3.658-10.557-1.025-3.198 2.632-3.658 7.358-1.026 10.557 18.753 22.791 29.082 51.588 29.082 81.085 0 70.502-57.358 127.859-127.86 127.859s-127.86-57.357-127.86-127.859c.001-70.505 57.358-127.862 127.86-127.862 27.014 0 52.857 8.36 74.736 24.178 3.357 2.426 8.045 1.673 10.472-1.685 2.427-3.356 1.673-8.045-1.684-10.472-24.452-17.677-53.334-27.021-83.524-27.021-78.773 0-142.86 64.087-142.86 142.86.001 78.773 64.087 142.86 142.86 142.86z"/><path d="m364.119 54.433-24.976 15.37c-1.333-.597-2.679-1.156-4.035-1.677l-6.791-28.522c-.804-3.378-3.823-5.763-7.296-5.763h-29.006c-3.473 0-6.492 2.385-7.296 5.763l-6.791 28.522c-1.356.521-2.702 1.08-4.035 1.677l-24.976-15.37c-2.957-1.82-6.778-1.371-9.234 1.084l-20.51 20.511c-2.456 2.456-2.904 6.276-1.084 9.234l15.369 24.975c-.597 1.333-1.156 2.679-1.676 4.036l-28.522 6.791c-3.378.805-5.763 3.823-5.763 7.296v29.006c0 3.473 2.384 6.492 5.763 7.296l28.522 6.791c.52 1.355 1.08 2.702 1.676 4.035l-15.369 24.976c-1.82 2.958-1.371 6.778 1.084 9.234l20.51 20.51c2.456 2.455 6.277 2.902 9.234 1.084l24.975-15.37c1.332.597 2.678 1.156 4.035 1.677l6.791 28.522c.804 3.378 3.823 5.763 7.296 5.763h29.006c3.473 0 6.492-2.385 7.296-5.763l6.791-28.522c1.357-.521 2.704-1.08 4.035-1.677l24.975 15.37c2.958 1.821 6.778 1.371 9.234-1.084l20.511-20.51c2.456-2.456 2.904-6.276 1.084-9.234l-15.37-24.976c.597-1.333 1.156-2.68 1.676-4.035l28.522-6.791c3.379-.804 5.763-3.823 5.763-7.296v-29.006c0-3.473-2.384-6.491-5.763-7.296l-28.522-6.791c-.521-1.357-1.08-2.703-1.676-4.036l15.369-24.975c1.82-2.958 1.372-6.778-1.084-9.234l-20.511-20.511c-2.453-2.455-6.274-2.903-9.231-1.084zm.256 58.783c1.612 3.139 2.968 6.403 4.031 9.705.804 2.495 2.852 4.39 5.402 4.997l26.732 6.365v17.158l-26.732 6.364c-2.551.607-4.599 2.502-5.402 4.998-1.062 3.299-2.418 6.564-4.031 9.704-1.198 2.333-1.09 5.123.284 7.356l14.409 23.415-12.133 12.132-23.415-14.409c-2.235-1.375-5.025-1.482-7.357-.283-3.135 1.61-6.4 2.967-9.705 4.031-2.495.804-4.389 2.852-4.996 5.401l-6.365 26.731h-17.159l-6.365-26.731c-.607-2.55-2.501-4.598-4.996-5.401-3.305-1.064-6.57-2.421-9.705-4.031-2.335-1.202-5.125-1.092-7.357.283l-23.415 14.409-12.132-12.132 14.409-23.415c1.375-2.234 1.482-5.023.284-7.356-1.613-3.14-2.969-6.405-4.031-9.704-.803-2.496-2.852-4.391-5.402-4.998l-26.732-6.364v-17.158l26.732-6.365c2.55-.607 4.598-2.502 5.402-4.997 1.063-3.302 2.419-6.566 4.031-9.705 1.198-2.333 1.09-5.123-.285-7.356l-14.406-23.415 12.132-12.133 23.415 14.409c2.234 1.373 5.022 1.483 7.356.284 3.142-1.612 6.407-2.969 9.705-4.031 2.495-.803 4.39-2.852 4.997-5.401l6.365-26.732h17.159l6.365 26.732c.607 2.55 2.502 4.599 4.997 5.401 3.298 1.062 6.563 2.419 9.705 4.031 2.334 1.199 5.123 1.089 7.356-.284l23.415-14.409 12.133 12.133-14.409 23.414c-1.376 2.234-1.484 5.024-.286 7.357z"/><path d="m306.518 106.355c-20.129 0-36.506 16.377-36.506 36.507 0 20.129 16.376 36.506 36.506 36.506s36.506-16.377 36.506-36.506c.001-20.13-16.376-36.507-36.506-36.507zm0 58.013c-11.858 0-21.506-9.647-21.506-21.506s9.647-21.507 21.506-21.507 21.506 9.647 21.506 21.507c.001 11.859-9.647 21.506-21.506 21.506z"/></g></g></svg>