<?xml version="1.0" encoding="iso-8859-1"?>
<!-- Generator: Adobe Illustrator 19.0.0, SVG Export Plug-In . SVG Version: 6.00 Build 0)  -->
<svg version="1.1" id="Capa_1" xmlns="http://www.w3.org/2000/svg" xmlns:xlink="http://www.w3.org/1999/xlink" x="0px" y="0px"
	 viewBox="0 0 480.071 480.071" style="enable-background:new 0 0 480.071 480.071;" xml:space="preserve">
<g>
	<g>
		<path d="M417.756,344.035c8.894-9.75,8.2-24.864-1.55-33.758c-4.429-4.04-10.215-6.268-16.21-6.242h-20c-6.627,0-12-5.373-12-12
			v-12c-0.026-22.08-17.92-39.974-40-40c-4.418,0-8,3.582-8,8v60.472c0.001,3.445-2.204,6.503-5.472,7.592l-2.528,0.84v-4.904
			c0-4.418-3.582-8-8-8h-32c-4.418,0-8,3.582-8,8v96c0,4.418,3.582,8,8,8h32c4.418,0,8-3.582,8-8v-1.72
			c11.601,6.328,24.594,9.668,37.808,9.72h50.192c13.197,0.058,23.943-10.593,24.002-23.79c0.027-5.995-2.201-11.781-6.242-16.21
			C426.08,366.993,426.08,353.078,417.756,344.035z M295.996,400.035h-16v-80h16V400.035z M407.996,360.035c0,4.418-3.582,8-8,8v16
			c4.418,0,8,3.582,8,8s-3.582,8-8,8h-50.192c-12.638,0.009-24.995-3.733-35.504-10.752l-2.304-1.528v-53.952l7.592-2.528
			c9.799-3.268,16.408-12.439,16.408-22.768v-51.104c9.582,3.403,15.988,12.464,16,22.632v12c0,15.464,12.536,28,28,28h20
			c4.418,0,8,3.582,8,8s-3.582,8-8,8v16C404.414,352.035,407.996,355.617,407.996,360.035z"/>
	</g>
</g>
<g>
	<g>
		<path d="M400.503,220.291c-17.739-8.09-37.01-12.27-56.507-12.256c-42.606,0.038-82.722,20.081-108.336,54.128l-35.664-11.888
			v-29.672c0.696-0.544,1.416-1.032,2.104-1.6c27.175-22.663,43.669-55.631,45.512-90.968h0.384c4.418,0,8-3.582,8-8v-8
			c0-61.856-50.144-112-112-112s-112,50.144-112,112v16c0,4.418,3.582,8,8,8c0.328-0.031,0.654-0.081,0.976-0.152
			c3.754,32.444,19.837,62.203,44.92,83.12c0.68,0.568,1.408,1.056,2.104,1.6v29.672l-66.528,22.176
			c-3.033,1.012-5.173,3.733-5.44,6.92l-16,192c-0.367,4.403,2.905,8.27,7.308,8.636c0.219,0.018,0.439,0.027,0.66,0.028h272
			c4.418,0.015,8.012-3.554,8.028-7.972c0.001-0.231-0.008-0.462-0.028-0.692l-0.312-3.704
			c68.311,31.154,148.943,1.033,180.098-67.278S468.814,251.445,400.503,220.291z M87.996,464.035H16.692l14.84-178.08
			l56.464-18.816V464.035z M47.996,112.035c0-53.019,42.981-96,96-96s96,42.981,96,96h-24c-22.08-0.026-39.974-17.92-40-40
			c0.004-4.418-3.575-8.003-7.993-8.007c-0.586,0-1.17,0.063-1.743,0.191l-4.8,1.072c-40.375,8.919-78.811,25.043-113.464,47.6
			V112.035z M183.996,464.035h-80V317.803l28.352-9.448l-20.072,73.6c-0.518,1.898-0.319,3.92,0.56,5.68l24,48
			c1.975,3.952,6.78,5.555,10.733,3.579c1.549-0.774,2.805-2.03,3.579-3.579l24-48c0.879-1.76,1.078-3.782,0.56-5.68l-20.072-73.6
			l28.36,9.448V464.035z M103.996,300.931v-15.952l19.144,9.6L103.996,300.931z M143.996,326.435l15.48,56.76l-15.48,30.952
			l-15.48-30.952L143.996,326.435z M183.996,300.931l-19.144-6.4l19.144-9.552V300.931z M183.996,267.091l-40,20l-40-20v-36.416
			c12.442,6.139,26.126,9.341,40,9.36c13.874-0.019,27.558-3.221,40-9.36V267.091z M96.14,206.707
			c-23.881-19.965-38.307-49.02-39.776-80.112c31.962-20.886,67.325-36.03,104.496-44.752c4.79,26.705,28.005,46.154,55.136,46.192
			h15.616c-1.838,30.583-16.222,59.05-39.752,78.672C164.138,229.817,123.862,229.817,96.14,206.707z M199.996,464.035V267.139
			l26.456,8.8c-36.697,62.888-17.085,143.537,44.392,182.552l0.456,5.544H199.996z M343.996,464.035c-66.274,0-120-53.726-120-120
			s53.726-120,120-120s120,53.726,120,120C463.921,410.279,410.239,463.96,343.996,464.035z"/>
	</g>
</g>
<g>
	<g>
		<rect x="271.996" y="16.035" width="16" height="16"/>
	</g>
</g>
<g>
	<g>
		<rect x="303.996" y="16.035" width="16" height="16"/>
	</g>
</g>
<g>
	<g>
		<rect x="335.996" y="176.035" width="16" height="16"/>
	</g>
</g>
<g>
	<g>
		<rect x="335.996" y="144.035" width="16" height="16"/>
	</g>
</g>
<g>
	<g>
		<rect x="335.996" y="112.035" width="16" height="16"/>
	</g>
</g>
<g>
	<g>
		<rect x="335.996" y="80.035" width="16" height="16"/>
	</g>
</g>
<g>
	<g>
		<rect x="335.996" y="48.035" width="16" height="16"/>
	</g>
</g>
<g>
	<g>
		<rect x="335.996" y="16.035" width="16" height="16"/>
	</g>
</g>
<g>
	<g>
		<rect x="239.996" y="16.035" width="16" height="16"/>
	</g>
</g>
<g>
</g>
<g>
</g>
<g>
</g>
<g>
</g>
<g>
</g>
<g>
</g>
<g>
</g>
<g>
</g>
<g>
</g>
<g>
</g>
<g>
</g>
<g>
</g>
<g>
</g>
<g>
</g>
<g>
</g>
</svg>
