<svg id="Layer_1" height="512" viewBox="0 0 512 512" width="512" xmlns="http://www.w3.org/2000/svg" data-name="Layer 1"><path d="m270.2 404.253h-.14a18.73 18.73 0 0 0 .134 37.459h.142a18.729 18.729 0 0 0 -.136-37.458zm.048 25.458h-.048a6.73 6.73 0 0 1 -.049-13.459h.051a6.729 6.729 0 0 1 .049 13.458z"/><path d="m458.28 402.784h-.139a18.729 18.729 0 0 0 .133 37.458h.142a18.751 18.751 0 0 0 18.592-18.867 18.753 18.753 0 0 0 -18.728-18.591zm.048 25.458h-.051a6.729 6.729 0 0 1 -.048-13.458h.05a6.729 6.729 0 0 1 .049 13.458z"/><path d="m477.733 369.524-22.8-41.292c-7.266-12.8-17.843-27.47-35.579-27.349l-32.326.262a129.563 129.563 0 0 0 2.507-24.755v-161.638a6 6 0 0 0 -3.354-5.385l-183.744-90.25a5.994 5.994 0 0 0 -5.285 0l-183.791 90.01a6 6 0 0 0 -3.361 5.389v161.874c0 46.4 28.924 101.106 67.277 127.255l119.112 81.236a6 6 0 0 0 6.761 0l36.386-24.815a18.392 18.392 0 0 0 5.538 3.583 18.207 18.207 0 0 0 2.766.879l.113 16.917a12.142 12.142 0 0 0 12.137 12.055h.093l18.647-.138a12.141 12.141 0 0 0 12.051-12.226l-.109-16.389 147.741-1.147.109 16.356a12.142 12.142 0 0 0 12.138 12.054h.092l18.647-.137a12.157 12.157 0 0 0 12.052-12.227l-.114-17a18.3 18.3 0 0 0 13.45-17.219l7.042-45.317a5.994 5.994 0 0 0 .071-.965 31.49 31.49 0 0 0 -7.779-20.687 26.743 26.743 0 0 0 -16.488-8.934zm-58.281-56.641h.142c8.994 0 16.452 6.374 24.872 21.212l19.458 35.245-18.015.139a31.457 31.457 0 0 0 -30.99-26.084h-.238a31.457 31.457 0 0 0 -30.846 26.565l-120.17.931 19.7-35.512c.061-.108.118-.219.171-.332 3.759-7.9 12-21.167 24.927-21.262zm14.171 56.691-37.51.29a19.428 19.428 0 0 1 18.656-14.47h.145a19.48 19.48 0 0 1 18.709 14.18zm-183.831 1.589c-12.834 1.928-22.707 13.286-23.58 27.859-.008.131 0 .259-.01.39l-26.432 18.026-89.024-60.715c-23.624-16.106-43.583-53.85-43.583-82.421v-126.135l132.6-64.943 132.611 65.133v125.943a88.461 88.461 0 0 1 -4.853 27.326l-19.158.156c-14.383.106-27.015 10.024-35.588 27.935zm-50.022 101.5-115.732-78.933c-35.367-24.113-62.038-74.558-62.038-117.34v-158.132l177.787-87.073 177.753 87.305v157.9a119.245 119.245 0 0 1 -2.77 24.855l-34.656.281a97.668 97.668 0 0 0 4.263-27.224v-129.683a6 6 0 0 0 -3.355-5.385l-138.607-68.078a6 6 0 0 0 -5.284 0l-138.607 67.881a6 6 0 0 0 -3.361 5.388v129.875c0 32.56 21.9 73.982 48.822 92.335l92.4 63.021a6 6 0 0 0 6.761 0l24.843-16.942 5.8 34.7a18.369 18.369 0 0 0 .181 1.914zm79.111 8.557a.156.156 0 0 1 -.139.141l-18.648.138a.156.156 0 0 1 -.14-.136l-.109-16.378 18.928-.146zm190.53-1.346-18.647.137a.157.157 0 0 1 -.141-.135l-.109-16.366 18.928-.147.11 16.367a.144.144 0 0 1 -.141.143zm13.551-35.861a6.015 6.015 0 0 0 -.071.966 6.318 6.318 0 0 1 -6.238 6.328l-224.542 1.737a5.908 5.908 0 0 1 -2.427-.473 6.332 6.332 0 0 1 -3.244-3.029c-.019-.044-.043-.087-.063-.13a6.228 6.228 0 0 1 -.595-2.6 6.1 6.1 0 0 0 -.082-.945l-7.546-45.143c0-.329.017-.657.036-.982.472-7.876 5.717-16.242 14.539-16.814a6.089 6.089 0 0 0 .7.046h.046l220.425-1.712c.035 0 .07.006.106.006h.16a14.562 14.562 0 0 1 11.069 5.141 19.709 19.709 0 0 1 4.755 12.366z"/><path d="m326.8 405.839h-.045a6 6 0 0 0 -5.956 6.044l.086 11.73a6 6 0 0 0 6 5.956h.045a6 6 0 0 0 5.956-6.044l-.086-11.725a6 6 0 0 0 -6-5.961z"/><path d="m401.648 405.038h-.048a6 6 0 0 0 -5.957 6.044l.086 11.73a6 6 0 0 0 6 5.956h.045a6 6 0 0 0 5.956-6.044l-.086-11.73a6 6 0 0 0 -5.996-5.956z"/><path d="m351.751 405.519h-.046a6 6 0 0 0 -5.955 6.044l.087 11.73a6 6 0 0 0 6 5.956h.046a6 6 0 0 0 5.955-6.045l-.087-11.73a6 6 0 0 0 -6-5.955z"/><path d="m376.7 405.2h-.046a6 6 0 0 0 -5.955 6.045l.087 11.73a6 6 0 0 0 6 5.955h.046a6 6 0 0 0 5.955-6.044l-.087-11.73a6 6 0 0 0 -6-5.956z"/><path d="m242.748 218.006-57.148 52.343-28.45-30.849a6 6 0 0 0 -8.822 8.134l32.506 35.249a6 6 0 0 0 8.464.357l61.556-56.382a6 6 0 1 0 -8.106-8.848z"/></svg>