<svg id="Capa_1" enable-background="new 0 0 512 512" height="512" viewBox="0 0 512 512" width="512" xmlns="http://www.w3.org/2000/svg"><g><path d="m232.09 141.278c1.359 1.151 3.078 1.777 4.847 1.777.212 0 .426-.009.639-.027 1.988-.17 3.827-1.125 5.109-2.655l47.85-57.094c2.661-3.175 2.244-7.905-.931-10.565-3.173-2.662-7.904-2.245-10.565.931l-43.009 51.315-19.674-16.662c-3.16-2.678-7.894-2.285-10.57.876-2.677 3.161-2.284 7.894.877 10.57z"/><path d="m251.067 209.775c25.599 0 51.196-9.74 70.684-29.22 18.87-18.861 29.262-43.946 29.262-70.633 0-26.686-10.391-51.777-29.262-70.655-20.462-20.454-48.732-31.04-77.549-29.022-28.944 2.019-55.534 16.416-72.95 39.5-2.494 3.307-1.836 8.009 1.47 10.504 3.309 2.496 8.01 1.837 10.505-1.47 14.801-19.618 37.406-31.854 62.02-33.57 24.483-1.703 48.51 7.283 65.898 24.665 16.037 16.042 24.868 37.368 24.868 60.048 0 22.679-8.831 43.997-24.865 60.025-33.129 33.115-87.03 33.113-120.159 0-21.715-21.707-30.018-53.571-21.668-83.16 1.125-3.986-1.194-8.13-5.181-9.255-3.98-1.124-8.13 1.195-9.255 5.181-9.824 34.81-.053 72.301 25.5 97.842 19.487 19.481 45.085 29.22 70.682 29.22z"/><path d="m481.5 381.938c-2.49-1.42-5.06-2.88-7.7-4.46l-19.61-11.76c9.12-9.69 15.95-21.46 18.64-33.25.82-3.56 1.24-7.06 1.24-10.39v-49.64c0-22.58-16.99-42.96-43.3-51.91-23-7.82-45.83-4.19-58.12 8.93-12.6 2.22-30.27 12.21-29.67 50.9.01.34.01.62.01.84v40.88c0 3.33.42 6.83 1.24 10.36 2.68 11.8 9.5 23.59 18.64 33.29l-19.28 11.56c-.14.07-.28.16-.42.24-2.6 1.56-5.15 3.01-7.61 4.41-7.37 4.19-14.55 8.26-20.09 13.96l-13.82-8.29c9.13-9.7 15.96-21.47 18.65-33.25.8-3.51 1.21-7.01 1.21-10.4v-22.06c0-.005.001-.01.001-.015v-27.569c0-22.571-16.982-42.939-43.265-51.889-22.996-7.832-45.836-4.209-58.126 8.906-12.608 2.214-30.283 12.203-29.671 50.889.006.349.011.635.011.85v9.518 13.546 17.824c0 3.23.4 6.71 1.21 10.4 2.69 11.78 9.52 23.55 18.66 33.25l-13.8 8.29c-5.55-5.7-12.73-9.78-20.11-13.97-2.49-1.42-5.06-2.87-7.69-4.45l-.2-.12c-.02-.011-.039-.024-.059-.035l-19.355-11.596c9.131-9.695 15.959-21.465 18.649-33.258.805-3.484 1.213-6.979 1.213-10.387v-22.101-8.416-19.125c0-22.575-16.984-42.947-43.27-51.9-23.001-7.835-45.85-4.208-58.149 8.917-12.599 2.215-30.256 12.205-29.643 50.887.006.35.011.636.011.851v9.492 13.544 17.851c0 3.408.408 6.902 1.208 10.367 2.693 11.803 9.522 23.577 18.651 33.273l-19.619 11.755c-2.626 1.575-5.193 3.034-7.677 4.445-15.679 8.91-30.49 17.326-30.49 41.854v44.06c0 1.494 0 6.041 3.283 9.266 2.747 2.698 6.103 2.992 8.651 2.992.378 0 .738-.006 1.075-.012.357-.006.731-.014 1.123-.014h73.976c.005 0 .01.001.015.001s.01-.001.015-.001h15.307.004 15.262c.004 0 .008.001.012.001s.008-.001.012-.001h33.793v9.64c0 1.5 0 6.06 3.3 9.29 2.75 2.7 6.1 3 8.65 3 .38 0 .74-.01 1.08-.01.35-.01.72-.02 1.11-.02h8.64c4.14 0 7.5-3.36 7.5-7.5s-3.36-7.5-7.5-7.5h-7.78v-6.9-15-19.42c0-15.17 6.62-19.53 22.93-28.78.25-.14.5-.29.76-.43 1.04-.59 2.09-1.2 3.17-1.82l12.51 8.1 12.89 8.35c.11.06.22.13.33.19.9.52 1.69 1.07 2.46 1.59 1.57 1.07 4.57 3.12 8.2 3.12 1.5 0 3.11-.35 4.77-1.26l1.03 4.04-14.62 31.67c-.01.02-.02.05-.03.07-1.25 2.58-1.05 5.43.5 7.78l5.11 8.7h-17.59c-4.14 0-7.5 3.36-7.5 7.5s3.36 7.5 7.5 7.5h30.69.02 104.65c.39 0 .76.01 1.11.02.34 0 .7.01 1.08.01 2.56 0 5.92-.3 8.68-3 3.29-3.23 3.29-7.79 3.29-9.29v-9.64h64.32.02 74.06c.38 0 .76.01 1.11.01.34.01.7.02 1.08.02 2.55 0 5.9-.3 8.65-3 3.29-3.23 3.29-7.77 3.29-9.26v-44.06c.002-24.52-14.808-32.94-30.498-41.84zm-330.806 2.213-19.067 12.331c-.787.466-1.487.918-2.108 1.334l-4.099-4.342c-.069-.079-.144-.153-.216-.229l-6.833-7.238c.737-.247 1.483-.511 2.242-.795 5.802-2.161 11.436-5.276 16.691-9.084zm-78.643-140.169c2.088-.184 4.004-1.233 5.283-2.893 7.613-9.878 25.516-12.489 43.539-6.351 15.271 5.202 33.105 18.197 33.105 37.702v19.126.916h-3.158c-7.392 0-12.166-4.12-19.343-10.842-8.079-7.566-18.133-16.983-35.593-16.983h-13.436c-16.316 0-19.041 13.259-20.668 21.181-1.872 9.109-2.759 10.895-8.728 10.895h-.125v-6.044-9.492c0-.275-.005-.641-.013-1.089-.36-22.823 6.077-34.977 19.137-36.126zm-18.295 85.111c-.55-2.379-.828-4.738-.828-7.011v-10.351h.125c18.72 0 21.777-14.881 23.42-22.875 1.891-9.2 2.675-9.2 5.976-9.2h13.437c11.532 0 17.931 5.992 25.339 12.931 7.454 6.981 15.902 14.894 29.597 14.894h3.158v14.601c0 2.273-.278 4.632-.833 7.031-3.976 17.43-20.213 35.505-37.778 42.047-4.506 1.686-8.292 2.471-11.914 2.471s-7.408-.785-11.924-2.475c-17.557-6.538-33.795-24.612-37.775-42.063zm57.733 71.476-2.436 9.529h-11.252l-2.42-9.491 8.072-8.55zm-41.888-24.439c5.253 3.807 10.884 6.92 16.682 9.08.762.285 1.512.55 2.252.799l-11.145 11.805c-.624-.416-1.328-.869-2.119-1.335l-19.059-12.326zm.197 80.115 5.197 8.823h-59.995v-41.292c0-15.193 6.611-19.555 22.902-28.812 1.287-.732 2.597-1.476 3.933-2.247l25.427 16.445c.098.063.196.123.296.182.899.524 1.691 1.067 2.457 1.592 1.707 1.17 4.67 3.2 8.247 3.2 1.495 0 3.098-.36 4.761-1.281l1.024 4.017-14.614 31.664c-1.255 2.503-1.116 5.343.365 7.709zm44.647 8.823h-10.988c-.001 0-.002 0-.004 0h-11.049l-7.894-13.402 12.262-26.567h13.307l12.262 26.567zm38.085-19.42v19.42h-20.676l5.198-8.822c1.479-2.362 1.619-5.199.366-7.705l-14.615-31.665 1.034-4.045c1.68.94 3.3 1.308 4.811 1.308 3.591 0 6.567-2.044 8.28-3.221.76-.521 1.545-1.061 2.434-1.582.095-.055.188-.113.28-.172l25.428-16.445c1.337.771 2.646 1.516 3.929 2.251 5.89 3.35 10.51 6.05 14.02 8.87-15.679 8.898-30.489 17.318-30.489 41.808zm303.23-61.49-19.03 12.32c-.8.47-1.51.93-2.14 1.35l-4.1-4.35c-.08-.09-.18-.19-.27-.28l-6.78-7.19c.74-.24 1.48-.51 2.24-.79 5.8-2.17 11.43-5.28 16.69-9.09zm-78.62-140.18c2.09-.18 4.01-1.23 5.29-2.89 7.6-9.87 25.49-12.49 43.51-6.36 15.28 5.21 33.13 18.2 33.13 37.71v20.04h-3.18c-7.39 0-12.16-4.11-19.33-10.83-8.08-7.57-18.13-16.99-35.61-16.99h-13.44c-16.32 0-19.04 13.26-20.66 21.19-1.87 9.1-2.75 10.88-8.7 10.88h-.16v-15.53c0-.27 0-.64-.01-1.08-.35-22.83 6.09-34.99 19.16-36.14zm-18.29 85.12c-.57-2.46-.86-4.82-.86-7.02v-10.35h.16c18.7 0 21.75-14.88 23.39-22.87 1.89-9.2 2.67-9.2 5.97-9.2h13.44c11.55 0 17.95 5.99 25.35 12.93 7.45 6.98 15.89 14.89 29.59 14.89h3.18v14.6c0 2.2-.29 4.56-.86 7.04-3.97 17.43-20.21 35.5-37.79 42.05-4.47 1.68-8.25 2.46-11.9 2.46-3.63 0-7.4-.78-11.9-2.47-17.58-6.55-33.82-24.62-37.77-42.06zm57.71 71.48-2.42 9.52h-11.27l-2.42-9.49 8.07-8.55zm-41.88-24.44c5.25 3.8 10.88 6.91 16.68 9.07.76.28 1.51.55 2.25.8l-11.15 11.8c-.63-.41-1.33-.86-2.12-1.33l-19.04-12.33zm-71.44 29.91-19.03 12.33c-.8.46-1.51.92-2.14 1.33l-11.16-11.8c.74-.25 1.48-.51 2.24-.79 5.81-2.17 11.44-5.29 16.7-9.11zm-78.63-140.191c2.089-.184 4.006-1.233 5.285-2.894 7.604-9.868 25.495-12.474 43.516-6.338 15.269 5.2 33.1 18.19 33.1 37.69v19.109c0 .005-.001.01-.001.014v.946h-3.157c-7.388 0-12.156-4.117-19.325-10.835-8.078-7.569-18.131-16.99-35.61-16.99h-13.436c-16.321 0-19.042 13.265-20.667 21.19-1.867 9.101-2.751 10.885-8.7 10.885h-.154v-6.046-9.518c0-.275-.005-.641-.013-1.087-.362-22.823 6.085-34.977 19.162-36.126zm-18.3 85.221c-.56-2.57-.85-4.96-.85-7.12v-10.324h.154c18.704 0 21.755-14.878 23.395-22.872 1.887-9.204 2.672-9.204 5.973-9.204h13.436c11.55 0 17.947 5.994 25.354 12.935 7.448 6.979 15.89 14.89 29.582 14.89h3.157v14.574c0 2.27-.28 4.64-.83 7.05-3.98 17.41-20.22 35.49-37.76 42.05-4.56 1.69-8.35 2.48-11.93 2.48-3.56 0-7.36-.79-11.92-2.48-17.561-6.559-33.801-24.639-37.761-41.979zm57.72 71.38-2.42 9.52h-11.28l-2.41-9.49 8.07-8.54zm-34.12-2.76c-.62-.41-1.32-.86-2.12-1.32l-19.03-12.33 13.37-8.04c5.27 3.82 10.91 6.94 16.72 9.12.75.27 1.49.53 2.22.77zm37.07 67.27h-22.04l-7.89-13.43 12.25-26.56h13.34l12.24 26.58zm77.49 0h-60.08l5.2-8.82c1.45-2.34 1.61-5.16.39-7.66-.01-.02-.02-.05-.03-.07l-14.59-31.67 1.03-4.02c1.67.93 3.29 1.3 4.79 1.3 3.57 0 6.53-2.02 8.24-3.18.77-.53 1.56-1.07 2.46-1.59.11-.06.22-.13.33-.19l25.4-16.45c1.06.62 2.12 1.22 3.15 1.81.27.15.54.31.81.46 16.29 9.25 22.9 13.61 22.9 28.76zm30.49-30.6 5.12 8.7h-20.61v-19.42c0-24.49-14.81-32.9-30.49-41.81 0 0-.01 0-.01-.01 3.5-2.81 8.12-5.52 14-8.85 1.29-.74 2.61-1.48 3.95-2.26l25.41 16.44c.09.07.19.13.29.19.9.52 1.69 1.06 2.46 1.58 1.58 1.08 4.6 3.15 8.26 3.15 1.49 0 3.09-.35 4.74-1.25l1.03 4.04-14.61 31.67c-.01.01-.01.01-.01.02-1.28 2.58-1.1 5.44.47 7.81zm44.55 8.7h-22.03l-7.89-13.42 12.25-26.55h13.33l12.25 26.54zm77.49 0h-60.08l5.19-8.82c1.4-2.22 1.62-4.83.6-7.25-.06-.15-.13-.31-.2-.46l-14.62-31.67 1.03-4.03c1.67.93 3.29 1.3 4.8 1.3 3.58 0 6.56-2.04 8.27-3.21.76-.52 1.55-1.06 2.45-1.58.1-.06.2-.12.3-.19l25.4-16.44c1.34.78 2.66 1.52 3.95 2.26 16.3 9.25 22.91 13.61 22.91 28.8z"/></g></svg>